<svg xmlns="http://www.w3.org/2000/svg" width="64" height="64" viewBox="0 0 64 64">
  <circle cx="32" cy="32" r="28" fill="#B9F2FF" stroke="#89CFF0" stroke-width="2"/>
  <circle cx="32" cy="32" r="24" fill="#B9F2FF" stroke="#89CFF0" stroke-width="1"/>
  <path d="M32 16C23.1634 16 16 23.1634 16 32C16 40.8366 23.1634 48 32 48C40.8366 48 48 40.8366 48 32C48 23.1634 40.8366 16 32 16ZM32 44C25.3726 44 20 38.6274 20 32C20 25.3726 25.3726 20 32 20C38.6274 20 44 25.3726 44 32C44 38.6274 38.6274 44 32 44Z" fill="#89CFF0"/>
  <text x="32" y="36" font-family="Arial" font-size="12" font-weight="bold" text-anchor="middle" fill="#FFFFFF">D</text>
</svg>
