<svg xmlns="http://www.w3.org/2000/svg" width="80" height="80" viewBox="0 0 80 80" fill="none">
  <path d="M72.0073 48.5341C72.0073 44.2587 70.0977 40.3212 66.8193 37.685C67.7825 35.9951 68.3233 34.1362 68.4416 32.1759C68.4416 32.159 68.4416 32.159 68.4416 32.1421C68.4416 32.0238 68.4585 31.9055 68.4585 31.7872C68.4585 31.652 68.4585 31.5168 68.4585 31.3816C68.4585 31.1619 68.4585 30.9592 68.4416 30.7395C68.4416 30.6719 68.4247 30.6043 68.4247 30.5367C68.4078 30.4015 68.4078 30.2494 68.3909 30.1142C68.3909 30.0297 68.374 29.9452 68.3571 29.8607C68.3402 29.7424 68.3233 29.6072 68.3064 29.4889C68.2895 29.4044 68.2726 29.3199 68.2557 29.2355C68.2388 29.1172 68.2219 28.9989 68.1881 28.8806C68.1712 28.7961 68.1543 28.7116 68.1374 28.6271C68.1205 28.5088 68.0867 28.4074 68.0529 28.2891C68.036 28.2046 68.0022 28.1201 67.9853 28.0356C67.9515 27.9173 67.9177 27.8159 67.8839 27.7145C67.8501 27.63 67.8332 27.5456 67.7994 27.4611C67.7656 27.3597 67.7318 27.2414 67.698 27.14C67.6642 27.0555 67.6304 26.971 67.6135 26.8865C67.5797 26.7851 67.529 26.6837 67.4952 26.5654C67.4614 26.4809 67.4276 26.3964 67.3938 26.3288C67.3432 26.2274 67.2925 26.126 67.2587 26.0077C67.2249 25.9232 67.1911 25.8556 67.1573 25.7712C67.1066 25.6698 67.0559 25.5515 66.9883 25.4501C66.9545 25.3825 66.9207 25.3149 66.87 25.2304C66.8024 25.1121 66.7348 25.0107 66.6841 24.8924C66.6503 24.8248 66.6165 24.7741 66.5827 24.7065C66.4813 24.5544 66.3968 24.4023 66.2954 24.2502C66.2785 24.2333 66.2785 24.2164 66.2616 24.1995C66.1433 24.0306 66.0419 23.8785 65.9236 23.7095C65.8898 23.6588 65.8391 23.6081 65.8053 23.5574C65.7208 23.456 65.6532 23.3546 65.5688 23.2532C65.5181 23.1856 65.4674 23.1349 65.4167 23.0673C65.3322 22.9828 65.2646 22.8814 65.1801 22.7969C65.1294 22.7293 65.0618 22.6786 65.0111 22.611C64.9266 22.5265 64.859 22.442 64.7745 22.3744C64.7069 22.3069 64.6562 22.2562 64.5886 22.1886C64.5041 22.1041 64.4365 22.0365 64.352 21.952C64.2844 21.8844 64.2168 21.8337 64.1492 21.7661C64.0647 21.6985 63.9802 21.614 63.8957 21.5464C63.8282 21.4957 63.7606 21.4281 63.693 21.3774C63.6085 21.3098 63.524 21.2422 63.4395 21.1746C63.3719 21.1239 63.3043 21.0732 63.2198 21.0225C63.1353 20.9549 63.0339 20.8873 62.9494 20.8366C62.8818 20.7859 62.7973 20.7352 62.7297 20.6845C62.6283 20.617 62.5438 20.5663 62.4424 20.4987C62.3748 20.448 62.2903 20.4142 62.2228 20.3635C62.1214 20.2959 62.02 20.2452 61.9186 20.1945C61.851 20.1607 61.7834 20.11 61.6989 20.0762C61.5806 20.0086 61.4792 19.9579 61.3609 19.9072C61.2933 19.8734 61.2257 19.8396 61.175 19.8058C61.0229 19.7382 60.8708 19.6706 60.7187 19.603C60.6849 19.5861 60.668 19.5692 60.6342 19.5692C60.4483 19.4847 60.2625 19.4171 60.0766 19.3495C60.009 19.3326 59.9583 19.2988 59.8907 19.2819C59.7555 19.2312 59.6372 19.1974 59.502 19.1467C59.4175 19.1298 59.3499 19.096 59.2654 19.0791C59.1471 19.0453 59.0288 19.0115 58.9105 18.9777C58.826 18.9608 58.7415 18.9439 58.6571 18.9102C58.5388 18.8764 58.4205 18.8595 58.3191 18.8257C58.2346 18.8088 58.1501 18.7919 58.0487 18.775C57.9304 18.7581 57.829 18.7243 57.7107 18.7074C57.6262 18.6905 57.5248 18.6736 57.4403 18.6736C57.3727 18.6567 57.3051 18.6567 57.2544 18.6398C56.5954 14.0263 52.6241 10.4775 47.8417 10.4775C44.5971 10.4775 41.7411 12.0998 40.0174 14.584C38.2937 12.0998 35.4378 10.4775 32.1932 10.4775C27.4108 10.4775 23.4226 14.0432 22.7804 18.6398C22.7128 18.6398 22.6452 18.6567 22.5945 18.6736C22.51 18.6905 22.4087 18.7074 22.3242 18.7074C22.2059 18.7243 22.0876 18.7412 21.9862 18.775C21.9017 18.7919 21.8172 18.8088 21.7158 18.8257C21.5975 18.8426 21.4792 18.8764 21.3778 18.9102C21.2933 18.927 21.2088 18.9439 21.1243 18.9777C21.006 19.0115 20.8877 19.0453 20.7694 19.0791C20.685 19.096 20.6174 19.1298 20.5329 19.1467C20.3977 19.1805 20.2794 19.2312 20.1442 19.2819C20.0766 19.2988 20.0259 19.3157 19.9583 19.3495C19.7724 19.4171 19.5865 19.4847 19.4006 19.5692C19.3668 19.5861 19.3499 19.5861 19.3161 19.603C19.164 19.6706 19.0119 19.7382 18.8599 19.8058C18.7923 19.8396 18.7247 19.8734 18.674 19.9072C18.5557 19.9579 18.4543 20.0255 18.336 20.0762C18.2684 20.11 18.2008 20.1607 18.1163 20.1945C18.0149 20.2452 17.9135 20.3128 17.8121 20.3635C17.7445 20.4142 17.66 20.448 17.5924 20.4987C17.491 20.5663 17.4065 20.617 17.3051 20.6845C17.2376 20.7352 17.1531 20.7859 17.0855 20.8366C17.001 20.9042 16.8996 20.9549 16.8151 21.0225C16.7475 21.0732 16.6799 21.1239 16.5954 21.1746C16.5109 21.2422 16.4264 21.3098 16.3419 21.3774C16.2743 21.4281 16.2067 21.4957 16.1391 21.5464C16.0546 21.614 15.9701 21.6816 15.8856 21.7661C15.818 21.8168 15.7504 21.8844 15.6828 21.952C15.5983 22.0196 15.5139 22.1041 15.4463 22.1886C15.3787 22.2562 15.328 22.3069 15.2604 22.3744C15.1759 22.4589 15.1083 22.5434 15.0238 22.611C14.9731 22.6786 14.9055 22.7293 14.8548 22.7969C14.7703 22.8814 14.7027 22.9828 14.6182 23.0673C14.5675 23.1349 14.5168 23.1856 14.4661 23.2532C14.3816 23.3546 14.2971 23.456 14.2295 23.5574C14.1957 23.6081 14.145 23.6588 14.1112 23.7095C13.9929 23.8616 13.8746 24.0306 13.7733 24.1995C13.7564 24.2164 13.7564 24.2333 13.7395 24.2502C13.6381 24.4023 13.5367 24.5544 13.4522 24.7065C13.4184 24.7741 13.3846 24.8248 13.3508 24.8924C13.2832 25.0107 13.2156 25.1121 13.1649 25.2304C13.1311 25.298 13.0973 25.3656 13.0466 25.4501C12.9959 25.5515 12.9283 25.6529 12.8776 25.7712C12.8438 25.8556 12.81 25.9232 12.7762 26.0077C12.7255 26.1091 12.6748 26.2105 12.641 26.3288C12.6072 26.4133 12.5734 26.4978 12.5396 26.5654C12.4889 26.6668 12.4551 26.7682 12.4213 26.8865C12.3875 26.971 12.3537 27.0555 12.3368 27.14C12.303 27.2414 12.2692 27.3597 12.2354 27.4611C12.2016 27.5456 12.1847 27.63 12.1509 27.7145C12.1171 27.8159 12.0834 27.9342 12.0496 28.0356C12.0327 28.1201 11.9989 28.2046 11.982 28.2891C11.9482 28.4074 11.9313 28.5088 11.8975 28.6271C11.8806 28.7116 11.8637 28.7961 11.8468 28.8806C11.8299 28.9989 11.7961 29.1172 11.7792 29.2355C11.7623 29.3199 11.7454 29.4044 11.7285 29.4889C11.7116 29.6072 11.6947 29.7424 11.6778 29.8607C11.6609 29.9452 11.6609 30.0297 11.644 30.1142C11.6271 30.2494 11.6271 30.3846 11.6102 30.5367C11.6102 30.6043 11.5933 30.6719 11.5933 30.7395C11.5764 30.9423 11.5764 31.1619 11.5764 31.3816C11.5764 31.5168 11.5764 31.652 11.5764 31.7872C11.5764 31.9055 11.5933 32.0238 11.5933 32.1421C11.5933 32.159 11.5933 32.159 11.5933 32.1759C11.7116 34.1193 12.2692 35.9951 13.2156 37.685C9.93718 40.3212 8.02759 44.2587 8.02759 48.5341C8.02759 56.2063 14.2633 62.4589 21.9524 62.4589C22.3073 62.4589 22.6621 62.442 23.017 62.4251C23.9634 65.957 26.87 68.6778 30.5033 69.3368C30.554 69.3537 30.6047 69.3537 30.6554 69.3706C30.7399 69.3875 30.8244 69.4044 30.892 69.4044C30.9596 69.4213 31.0272 69.4213 31.1116 69.4382C31.1792 69.4382 31.2468 69.4551 31.3144 69.4551C31.3989 69.472 31.5003 69.472 31.5848 69.472C31.6355 69.472 31.6862 69.472 31.7538 69.4889C31.9059 69.4889 32.058 69.5058 32.2101 69.5058C35.4547 69.5058 38.3106 67.8835 40.0343 65.3994C41.758 67.8835 44.614 69.5058 47.8586 69.5058C48.0107 69.5058 48.1628 69.5058 48.3149 69.4889C48.3656 69.4889 48.4331 69.4889 48.4838 69.472C48.5683 69.472 48.6697 69.4551 48.7542 69.4551C48.8218 69.4551 48.8894 69.4382 48.957 69.4382C49.0246 69.4382 49.0922 69.4213 49.1767 69.4044C49.2612 69.3875 49.3457 69.3875 49.4133 69.3706C49.464 69.3706 49.5147 69.3537 49.5654 69.3368C53.1987 68.6778 56.1222 65.957 57.0516 62.4251C57.4065 62.4589 57.7614 62.4589 58.1163 62.4589C65.7546 62.4589 72.0073 56.2232 72.0073 48.5341ZM41.6904 59.9748V33.8658C41.6904 32.9363 40.93 32.1759 40.0005 32.1759C39.0711 32.1759 38.3106 32.9363 38.3106 33.8658V59.9748C38.3106 63.3546 35.5561 66.1091 32.1763 66.1091C32.0749 66.1091 31.9735 66.1091 31.8721 66.1091C31.8214 66.1091 31.7707 66.1091 31.72 66.0922C31.6693 66.0922 31.6186 66.0922 31.5679 66.0753C31.5003 66.0753 31.4327 66.0584 31.3651 66.0584C31.3313 66.0584 31.3144 66.0584 31.2806 66.0415C31.1961 66.0246 31.1116 66.0077 31.0272 66.0077C31.0103 66.0077 30.9934 66.0077 30.9934 66.0077C30.9089 65.9908 30.8075 65.9739 30.723 65.9401C28.1881 65.3149 26.2447 63.118 26.0588 60.4142C26.0419 60.279 26.0419 60.1269 26.0419 59.9917V57.7441C26.0419 56.8147 25.2815 56.0542 24.352 56.0542C23.4226 56.0542 22.6621 56.8147 22.6621 57.7441V59.0453C22.4087 59.0622 22.1721 59.0791 21.9186 59.0791C16.1053 59.0791 11.3736 54.3474 11.3736 48.5341C11.3736 45.3233 12.7931 42.3829 15.2266 40.3888C15.6997 40.8789 16.2236 41.3352 16.7982 41.7407C16.4264 43.0589 16.3926 44.4784 16.7982 45.8979C17.0179 46.6414 17.6938 47.1315 18.4205 47.1315C18.5726 47.1315 18.7247 47.1146 18.8937 47.0639C19.7893 46.8104 20.3132 45.8641 20.0597 44.9684C19.4344 42.7547 20.7188 40.4395 22.9156 39.8142C23.8113 39.5608 24.3351 38.6144 24.0817 37.7188C23.8282 36.8231 22.8818 36.2992 21.9862 36.5527C20.5836 36.9583 19.3837 37.7357 18.4712 38.7496C17.8121 38.2257 17.2376 37.6174 16.7475 36.9414C16.6799 36.8569 16.6123 36.7555 16.5616 36.671C16.494 36.5696 16.4264 36.4851 16.3757 36.3837C16.3419 36.333 16.325 36.2992 16.2912 36.2485C15.5308 34.9811 15.0745 33.5278 14.9731 32.0238C14.9731 31.99 14.9731 31.9562 14.9731 31.9224C14.9562 31.7534 14.9562 31.5675 14.9562 31.3816C14.9562 26.1767 19.1809 21.952 24.3858 21.952C25.2646 21.952 26.1433 22.0703 26.9714 22.3069C27.867 22.5603 28.7965 22.0365 29.0669 21.1408C29.3204 20.2452 28.7965 19.3157 27.9008 19.0453C27.3432 18.8933 26.7855 18.775 26.2109 18.6905C26.8193 15.9359 29.2697 13.8742 32.2101 13.8742C35.5899 13.8742 38.3444 16.6288 38.3444 20.0086V25.8219C38.3444 26.7513 39.1049 27.5118 40.0343 27.5118C40.9638 27.5118 41.7242 26.7513 41.7242 25.8219V20.0086C41.7242 16.6288 44.4788 13.8742 47.8586 13.8742C50.799 13.8742 53.2494 15.9359 53.8577 18.6905C53.2832 18.775 52.7255 18.8933 52.1678 19.0453C51.2722 19.2988 50.7483 20.2283 51.0018 21.1408C51.2553 22.0365 52.1847 22.5603 53.0973 22.3069C53.9422 22.0703 54.8041 21.952 55.6828 21.952C60.8877 21.952 65.1125 26.1767 65.1125 31.3816C65.1125 31.5675 65.1125 31.7365 65.0956 31.9224C65.0956 31.9562 65.0956 31.99 65.0956 32.0238C64.9942 33.5278 64.5379 34.9811 63.7775 36.2485C63.7437 36.2992 63.7268 36.333 63.693 36.3837C63.6254 36.4851 63.5747 36.5865 63.5071 36.671C63.4395 36.7555 63.3888 36.8569 63.3212 36.9414C62.8311 37.6174 62.2565 38.2088 61.5975 38.7496C60.6849 37.7357 59.4851 36.9583 58.0825 36.5527C57.1868 36.2992 56.2574 36.8231 55.987 37.7188C55.7335 38.6144 56.2574 39.5439 57.153 39.8142C59.3668 40.4395 60.6511 42.7547 60.009 44.9684C59.7555 45.8641 60.2794 46.7935 61.175 47.0639C61.3271 47.1146 61.4792 47.1315 61.6482 47.1315C62.3748 47.1315 63.0677 46.6414 63.2705 45.8979C63.6761 44.4953 63.6423 43.0589 63.2705 41.7407C63.8282 41.3352 64.352 40.8789 64.8421 40.3888C67.2756 42.3829 68.6951 45.3402 68.6951 48.5341C68.6951 54.3474 63.9633 59.0791 58.1501 59.0791C57.8966 59.0791 57.66 59.0622 57.4065 59.0453V57.7441C57.4065 56.8147 56.6461 56.0542 55.7166 56.0542C54.7872 56.0542 54.0267 56.8147 54.0267 57.7441V59.9748C54.0267 60.11 54.0267 60.2621 54.0098 60.3973C53.8239 63.1011 51.8805 65.298 49.3457 65.9232C49.2612 65.9401 49.1598 65.9739 49.0753 65.9908C49.0584 65.9908 49.0415 65.9908 49.0415 65.9908C48.957 66.0077 48.8725 66.0246 48.788 66.0246C48.7542 66.0246 48.7373 66.0246 48.7035 66.0415C48.6359 66.0584 48.5683 66.0584 48.5007 66.0584C48.45 66.0584 48.3993 66.0584 48.3487 66.0753C48.298 66.0753 48.2473 66.0922 48.1966 66.0922C48.0952 66.0922 47.9938 66.0922 47.8924 66.0922C44.445 66.1091 41.6904 63.3546 41.6904 59.9748Z" fill="white"/>
  <path d="M40.0002 8.12843C40.9297 8.12843 41.6901 7.36797 41.6901 6.43853V1.6899C41.6901 0.760456 40.9297 0 40.0002 0C39.0708 0 38.3103 0.760456 38.3103 1.6899V6.43853C38.3103 7.36797 39.0708 8.12843 40.0002 8.12843Z" fill="white"/>
  <path d="M40.0002 71.8716C39.0708 71.8716 38.3103 72.632 38.3103 73.5615V78.3101C38.3103 79.2396 39.0708 80 40.0002 80C40.9297 80 41.6901 79.2396 41.6901 78.3101V73.5615C41.6901 72.632 40.9297 71.8716 40.0002 71.8716Z" fill="white"/>
  <path d="M78.3106 38.3101H73.562C72.6325 38.3101 71.8721 39.0705 71.8721 40C71.8721 40.9294 72.6325 41.6899 73.562 41.6899H78.3106C79.24 41.6899 80.0005 40.9294 80.0005 40C80.0005 39.0705 79.24 38.3101 78.3106 38.3101Z" fill="white"/>
  <path d="M6.43853 38.3101H1.6899C0.760456 38.3101 0 39.0705 0 40C0 40.9294 0.760456 41.6899 1.6899 41.6899H6.43853C7.36797 41.6899 8.12843 40.9294 8.12843 40C8.12843 39.0705 7.36797 38.3101 6.43853 38.3101Z" fill="white"/>
  <path d="M66.6174 15.0741C67.0568 15.0741 67.4793 14.9051 67.8172 14.584L71.5857 10.8155C72.2448 10.1565 72.2448 9.09183 71.5857 8.43277C70.9267 7.77371 69.862 7.77371 69.203 8.43277L65.4345 12.2013C64.7754 12.8603 64.7754 13.925 65.4345 14.584C65.7556 14.9051 66.1949 15.0741 66.6174 15.0741Z" fill="white"/>
  <path d="M12.1842 65.4162L8.41568 69.1847C7.75662 69.8437 7.75662 70.9084 8.41568 71.5674C8.75366 71.9054 9.17614 72.0575 9.61551 72.0575C10.0549 72.0575 10.4774 71.8885 10.8153 71.5674L14.5838 67.7989C15.2429 67.1399 15.2429 66.0752 14.5838 65.4162C13.9079 64.7571 12.8432 64.7571 12.1842 65.4162Z" fill="white"/>
  <path d="M67.8172 65.4162C67.1582 64.7571 66.0935 64.7571 65.4345 65.4162C64.7754 66.0752 64.7754 67.1399 65.4345 67.7989L69.203 71.5674C69.5409 71.9054 69.9634 72.0575 70.4028 72.0575C70.8422 72.0575 71.2646 71.8885 71.6026 71.5674C72.2617 70.9084 72.2617 69.8437 71.6026 69.1847L67.8172 65.4162Z" fill="white"/>
  <path d="M12.1839 14.584C12.5218 14.922 12.9443 15.0741 13.3837 15.0741C13.8231 15.0741 14.2455 14.9051 14.5835 14.584C15.2426 13.925 15.2426 12.8603 14.5835 12.2013L10.815 8.43277C10.156 7.77371 9.09135 7.77371 8.43228 8.43277C7.77322 9.09183 7.77322 10.1565 8.43228 10.8155L12.1839 14.584Z" fill="white"/>
</svg>
