<svg width="128" height="128" viewBox="0 0 128 128" fill="none" xmlns="http://www.w3.org/2000/svg">
<path id="Rahmen Hirn" fill-rule="evenodd" clip-rule="evenodd" d="M61.7123 4.37128C61.7123 5.20376 61.4796 5.98189 61.0756 6.64417C61.9616 6.60334 62.8527 6.5827 63.7487 6.5827C65.7441 6.5827 67.7155 6.68506 69.6581 6.8848C69.3471 6.2839 69.1714 5.60165 69.1714 4.87836C69.1714 2.46417 71.1285 0.50708 73.5427 0.50708C75.9569 0.50708 77.9139 2.46417 77.9139 4.87836C77.9139 6.11592 77.3997 7.23337 76.5731 8.02864C79.3699 8.6705 82.0882 9.51777 84.7114 10.5537C84.6614 10.2891 84.6353 10.016 84.6353 9.73688C84.6353 7.32269 86.5923 5.3656 89.0065 5.3656C91.4207 5.3656 93.3778 7.32269 93.3778 9.73688C93.3778 11.3825 92.4685 12.8157 91.1249 13.5615C93.6133 14.9237 95.9892 16.4658 98.235 18.1703C98.4452 15.952 100.313 14.2166 102.587 14.2166C105.001 14.2166 106.958 16.1736 106.958 18.5878C106.958 20.6383 105.546 22.359 103.641 22.831C105.651 24.7933 107.515 26.9027 109.219 29.1417C109.866 27.5365 111.438 26.4036 113.275 26.4036C115.689 26.4036 117.646 28.3607 117.646 30.7749C117.646 33.1891 115.689 35.1462 113.275 35.1462L113.257 35.1461L113.215 35.1458C114.605 37.5494 115.824 40.0636 116.857 42.6721C117.657 41.6667 118.892 41.0224 120.278 41.0224C122.692 41.0224 124.649 42.9795 124.649 45.3936C124.649 47.8078 122.692 49.7649 120.278 49.7649C119.868 49.7649 119.473 49.7087 119.097 49.6037C119.772 52.265 120.26 55.0007 120.546 57.7963C121.26 57.2877 122.134 56.9886 123.078 56.9886C125.492 56.9886 127.449 58.9457 127.449 61.3599C127.449 63.7741 125.492 65.7312 123.078 65.7312C122.255 65.7312 121.485 65.5038 120.828 65.1083C120.759 67.9135 120.487 70.6685 120.028 73.3593C120.479 73.2022 120.963 73.1169 121.467 73.1169C123.881 73.1169 125.838 75.074 125.838 77.4882C125.838 79.9024 123.881 81.8594 121.467 81.8594C120.231 81.8594 119.115 81.3466 118.32 80.5222C117.502 83.176 116.496 85.7473 115.317 88.2204C115.398 88.2158 115.481 88.2135 115.564 88.2135C117.978 88.2135 119.935 90.1706 119.935 92.5848C119.935 94.999 117.978 96.9561 115.564 96.9561C113.901 96.9561 112.455 96.0278 111.716 94.6614C110.215 96.9814 108.549 99.1856 106.736 101.258C108.704 101.684 110.177 103.435 110.177 105.53C110.177 107.944 108.22 109.901 105.806 109.901C103.718 109.901 101.973 108.438 101.538 106.481C99.4741 108.305 97.2768 109.982 94.9629 111.496C96.3476 112.229 97.2909 113.685 97.2909 115.361C97.2909 117.775 95.3338 119.732 92.9196 119.732C90.5054 119.732 88.5483 117.775 88.5483 115.361C88.5483 115.28 88.5505 115.2 88.5549 115.12C86.0821 116.314 83.5101 117.336 80.8545 118.169C81.7001 118.966 82.2279 120.096 82.2279 121.35C82.2279 123.764 80.2708 125.721 77.8566 125.721C75.4424 125.721 73.4854 123.764 73.4854 121.35C73.4854 120.844 73.5713 120.358 73.7295 119.906C71.031 120.382 68.2671 120.668 65.4521 120.751C65.8678 121.419 66.1078 122.209 66.1078 123.054C66.1078 125.469 64.1507 127.426 61.7365 127.426C59.3223 127.426 57.3652 125.469 57.3652 123.054C57.3652 122.104 57.6684 121.225 58.1833 120.508C55.3725 120.236 52.6213 119.76 49.9447 119.096C50.0629 119.492 50.1263 119.912 50.1263 120.347C50.1263 122.761 48.1693 124.718 45.7551 124.718C43.3409 124.718 41.3838 122.761 41.3838 120.347C41.3838 118.952 42.0369 117.71 43.0539 116.909C40.4245 115.886 37.8896 114.674 35.466 113.29C35.4674 113.335 35.4681 113.381 35.4681 113.427C35.4681 115.841 33.5111 117.798 31.0969 117.798C28.6827 117.798 26.7256 115.841 26.7256 113.427C26.7256 111.58 27.8713 110 29.4908 109.36C27.2279 107.661 25.0954 105.797 23.1109 103.786C22.6671 105.73 20.9276 107.18 18.8493 107.18C16.4351 107.18 14.478 105.223 14.478 102.809C14.478 100.526 16.2287 98.6512 18.4609 98.4546C16.7317 96.2061 15.1662 93.8251 13.7823 91.3295C13.0477 92.7109 11.5938 93.6515 9.9201 93.6515C7.50592 93.6515 5.54883 91.6944 5.54883 89.2802C5.54883 86.866 7.50592 84.9089 9.9201 84.9089C10.2082 84.9089 10.4897 84.9368 10.7622 84.99C9.70288 82.3586 8.83389 79.6302 8.17228 76.8217C7.3742 77.6792 6.23566 78.2155 4.97186 78.2155C2.55767 78.2155 0.600586 76.2584 0.600586 73.8442C0.600586 71.43 2.55767 69.473 4.97186 69.473C5.70177 69.473 6.38989 69.6519 6.99477 69.9682C6.76849 67.903 6.65234 65.8046 6.65234 63.6791C6.65234 62.8978 6.66803 62.1202 6.69912 61.3466C6.0251 61.7715 5.2269 62.0173 4.37128 62.0173C1.95709 62.0173 0 60.0602 0 57.6461C0 55.2319 1.95709 53.2748 4.37128 53.2748C5.54152 53.2748 6.60436 53.7346 7.38895 54.4835C7.85539 51.6026 8.53739 48.794 9.41787 46.0747C9.02048 46.1936 8.59933 46.2574 8.16327 46.2574C5.74908 46.2574 3.79199 44.3003 3.79199 41.8861C3.79199 39.472 5.74908 37.5149 8.16327 37.5149C9.76808 37.5149 11.1709 38.3797 11.9311 39.6687C13.1549 37.0322 14.5739 34.5048 16.1696 32.105C16.1357 32.1058 16.1017 32.1061 16.0676 32.1061C13.6534 32.1061 11.6963 30.1491 11.6963 27.7349C11.6963 25.3207 13.6534 23.3636 16.0676 23.3636C18.1018 23.3636 19.8116 24.7532 20.2993 26.6349C22.18 24.4312 24.2254 22.3722 26.4165 20.4772C24.5243 19.9966 23.1245 18.2819 23.1245 16.2402C23.1245 13.826 25.0816 11.8689 27.4958 11.8689C29.91 11.8689 31.8671 13.826 31.8671 16.2402L31.867 16.2609L31.8666 16.3062C34.2525 14.6973 36.7664 13.264 39.3901 12.0246C38.0987 11.2649 37.2319 9.86076 37.2319 8.25415C37.2319 5.83996 39.189 3.88287 41.6032 3.88287C44.0174 3.88287 45.9745 5.83996 45.9745 8.25415C45.9745 8.672 45.9159 9.07615 45.8064 9.45883C48.5111 8.56429 51.3053 7.86647 54.1721 7.38233C53.427 6.59839 52.9697 5.53823 52.9697 4.37128C52.9697 1.95709 54.9268 0 57.341 0C59.7552 0 61.7123 1.95709 61.7123 4.37128ZM117.935 63.6791C117.935 93.6053 93.6749 117.865 63.7487 117.865C33.8226 117.865 9.5626 93.6053 9.5626 63.6791C9.5626 33.7529 33.8226 9.49296 63.7487 9.49296C93.6749 9.49296 117.935 33.7529 117.935 63.6791Z" fill="white"/>
</svg>
