<svg width="48" height="48" viewBox="0 0 48 48" xmlns="http://www.w3.org/2000/svg">
<g id="Frame 16">
<path id="Vector" d="M46.3159 20.128C46.3072 20.1077 46.2927 20.0908 46.2723 20.0797C45.2265 19.4895 44.1172 19.1901 42.9755 19.1901C41.4745 19.1901 39.9644 19.7183 38.4881 20.7593C38.368 20.8435 38.2281 20.888 38.0823 20.888C37.8528 20.888 37.6379 20.7767 37.5062 20.59C37.2825 20.2732 37.358 19.8334 37.6761 19.6095C39.4448 18.3619 41.0775 17.7558 42.6666 17.7558C43.4432 17.7558 44.2325 17.9004 45.0817 18.1994C45.1219 18.2134 45.1669 18.2004 45.1931 18.167C45.2207 18.1331 45.8559 17.3064 45.5136 15.2946C45.3621 14.5719 45.0842 13.9817 44.691 13.5459C43.8984 12.5412 43.0946 12.3303 42.5596 12.3303C42.2275 12.3303 42.0173 12.413 42.0081 12.4164C41.9888 12.4241 41.9723 12.4376 41.9612 12.456C41.1923 13.6639 40.2999 14.4751 38.6697 15.4498C38.5598 15.5152 38.4353 15.5495 38.3085 15.5495C38.0615 15.5495 37.8306 15.4184 37.7037 15.207C37.5042 14.8742 37.6132 14.4413 37.9463 14.242C39.914 13.0655 40.6965 12.292 41.17 11.0498C41.4092 10.1733 41.1143 8.99104 40.4863 8.30414L40.3604 8.14983C39.6463 7.27185 38.3191 5.63732 34.9637 4.77869C34.4979 4.63067 34.0225 4.55569 33.5499 4.55569C32.1826 4.55569 31.2907 5.17051 31.2534 5.19663C31.2166 5.22227 31.2016 5.26919 31.2156 5.31128C31.3488 5.70214 31.7545 6.89115 31.3415 8.22239C31.25 8.51892 30.9789 8.71773 30.669 8.71773C30.5983 8.71773 30.5281 8.70757 30.4598 8.68629C30.0894 8.57116 29.8812 8.17643 29.9965 7.80589C30.27 6.92405 30.2114 6.14524 29.8178 5.42592C29.3031 4.48458 28.5894 3.85089 27.6404 3.48954C26.7345 3.10449 25.2989 3.01887 24.7198 3C20.9892 3.02032 18.3295 3.26025 14.9635 4.46329C14.5326 4.60358 14.1965 4.88559 14.0169 5.25662C13.8048 5.69585 13.8097 6.24343 14.0319 6.83988C14.0348 6.84713 14.0426 6.87132 14.0561 6.91002C14.3166 7.67141 14.5713 8.35445 14.8134 8.94122C14.885 9.11488 14.885 9.30595 14.8129 9.47961C14.7408 9.65279 14.6052 9.78823 14.4314 9.85983C14.3452 9.89514 14.2551 9.91304 14.1631 9.91304C13.8789 9.91304 13.6233 9.74179 13.5114 9.47719C13.3095 8.99588 12.6805 7.42132 12.6747 7.40681C12.6631 7.37585 12.3716 6.64542 11.4328 6.64542C10.7278 6.64542 9.8529 7.06481 8.83466 7.89103C7.4804 8.93928 6.78898 9.88885 6.7793 10.7126C6.77252 11.2936 7.11968 11.5814 7.14389 11.6003C7.42326 11.7783 8.94118 12.9344 9.57547 13.6402C9.8408 13.9348 9.83208 14.3731 9.55562 14.6372C9.42392 14.7629 9.25106 14.8321 9.06901 14.8321C8.87485 14.8321 8.69425 14.7547 8.56013 14.6149C6.98556 12.9717 5.69472 12.1721 4.61305 12.1721C4.46102 12.1721 4.31189 12.1885 4.16954 12.2209C3.74975 12.3172 3.06899 12.8004 2.65937 13.437C1.21504 15.312 0.743445 16.783 0.610295 19.3004C0.52992 20.8072 0.937119 22.2777 1.39419 22.9168C2.0367 23.8146 2.68648 24.323 2.93293 24.501C2.93293 24.501 3.13096 24.6268 3.2065 24.5677C3.84949 24.0632 4.58594 23.7981 5.48991 23.7981C6.03075 23.7981 6.64227 23.8891 7.30754 24.069C7.48379 24.1169 7.63098 24.232 7.72152 24.3936C7.81449 24.559 7.83724 24.7588 7.7835 24.9412C7.69634 25.2392 7.41891 25.4472 7.10757 25.4472C7.04076 25.4472 6.97442 25.437 6.91003 25.4186C6.44521 25.2832 6.01138 25.2256 5.62113 25.214C5.23668 25.2039 4.53558 25.2401 4.21796 25.5986C4.20343 25.615 4.19036 25.6315 4.18552 25.6523C4.18116 25.6721 4.10611 27.3845 6.54592 28.2581C8.59499 28.9915 9.6602 29.0157 14.1133 29.0157C14.7698 29.0157 15.4922 29.0089 16.3855 28.9939C16.6107 28.9876 16.9298 28.8768 17.1331 28.6413C17.2881 28.4623 17.3544 28.2378 17.3249 28.0032C17.3224 27.6254 17.381 27.2805 17.5108 26.9177C18.0443 25.424 19.1188 24.4487 20.995 23.7536C21.0744 23.7241 21.1562 23.7091 21.24 23.7091C21.5329 23.7091 21.7978 23.8939 21.8999 24.1687C21.9653 24.3447 21.9585 24.5358 21.8796 24.7066C21.8011 24.8778 21.6612 25.0075 21.485 25.0732C20.0503 25.6049 19.1667 26.3643 18.8578 27.3303C18.3373 28.9605 19.5419 30.7503 19.5565 30.7649C23.1419 34.2753 30.1078 34.3754 30.4579 33.4012C30.7528 32.678 30.9556 31.5301 30.2444 30.1665C29.1302 28.0313 25.3507 27.8987 25.3125 27.8968C24.9246 27.8862 24.6172 27.5616 24.6283 27.1751C24.6385 26.7978 24.9551 26.4906 25.3492 26.4906C25.5386 26.4959 29.9931 26.642 31.4926 29.5163C32.307 31.0764 32.1922 32.4647 31.9521 33.3572C31.8945 33.5966 31.938 33.8385 32.0683 34.0044C32.1516 34.1089 32.307 34.2337 32.583 34.2337C32.583 34.2337 35.0504 34.2497 37.0665 33.8308C37.3391 33.7746 37.5991 33.9759 37.6417 34.2492C37.6843 34.5235 37.496 34.7808 37.222 34.8234C34.2631 35.2858 31.6688 35.517 29.4169 35.517C26.6958 35.517 24.4738 35.1789 22.7095 34.5022C22.7395 35.7449 23.1622 36.8285 23.9306 37.7151C23.9354 37.7224 23.9398 37.7277 23.9441 37.7345C24.2003 38.0039 24.5842 38.3851 24.9348 38.7044C25.203 38.9487 26.4721 39.7565 26.8023 39.9558C27.4395 40.3273 30.3368 42.1084 30.6152 42.2874C31.8906 43.1083 32.2683 43.9993 32.308 44.0525C32.444 44.2325 32.5142 44.7665 32.5142 44.7665C32.6295 45.2454 33.0618 45.6014 33.577 45.6C34.1788 45.5985 34.6664 45.1095 34.6645 44.5077C34.6645 44.5077 34.6814 43.2844 34.204 42.446C34.1275 42.2908 33.1228 40.6461 31.9632 39.7526C31.6112 39.4813 30.7808 38.8746 30.7808 38.8746L30.776 38.8722C30.6816 38.8079 30.652 38.6812 30.7126 38.583C30.7741 38.4833 30.9053 38.4514 31.0065 38.5128C31.0065 38.5128 33.4531 40.2296 34.987 39.8024C37.2413 39.175 40.1919 37.6938 40.1919 34.3609C40.1919 33.8656 40.1426 33.3997 40.0486 32.961C40.3614 32.7946 40.6723 32.6064 40.9826 32.3902C41.3467 32.099 41.4552 31.7381 41.4818 31.4866C41.5196 31.1267 41.4155 30.7455 41.2097 30.494L39.7242 28.5827L39.7068 28.5639C39.3974 28.1711 38.9926 28.0888 38.7069 28.0888C38.4634 28.0888 38.2726 28.1474 38.1705 28.1861C37.6485 28.4492 37.0985 28.665 36.5383 28.827C36.1693 28.933 35.7709 28.709 35.6663 28.3462C35.6145 28.1658 35.6353 27.9756 35.7258 27.8112C35.8168 27.6467 35.966 27.5277 36.1471 27.4759C37.4253 27.1069 39.7315 26.0881 40.8248 23.4116C40.9327 23.1456 41.1889 22.9738 41.4775 22.9738C41.5685 22.9738 41.6576 22.9913 41.7423 23.0261C42.1021 23.1722 42.2759 23.5838 42.1287 23.9432C41.7781 24.8019 41.2978 25.5792 40.6926 26.2671C40.4166 26.7121 40.4524 27.1731 40.8059 27.6806L41.7762 28.9402C41.7893 28.9581 41.8072 28.9707 41.828 28.976C41.844 28.9808 42.2231 29.0877 42.7644 29.0877C43.4936 29.0877 44.5254 28.8899 45.2977 27.9447C47.185 25.69 47.277 23.7391 47.3434 22.3145C47.3506 22.1728 47.3564 22.0349 47.3647 21.8879C47.2814 20.8444 46.6142 20.3148 46.3159 20.128ZM17.4057 19.1935C16.4979 20.0898 15.4961 20.7496 14.4294 21.1555C14.4173 21.1598 14.4072 21.1666 14.3984 21.1753C13.9075 21.4419 13.7361 21.8095 13.8276 22.4026L14.2319 24.7017C14.2682 24.886 14.2304 25.0737 14.1254 25.2295C14.0203 25.3853 13.8615 25.4917 13.6765 25.5275C13.2964 25.6024 12.9231 25.3466 12.8495 24.9731L12.4089 22.4916C12.2743 21.9701 11.7732 21.6944 11.4483 21.6576C11.4352 21.6503 11.4197 21.646 11.4033 21.6455C7.90309 21.5193 5.1016 19.2602 5.07351 19.2375C4.92826 19.118 4.83771 18.9497 4.81883 18.7629C4.80043 18.5762 4.85611 18.3929 4.97474 18.2478C5.10886 18.0838 5.30786 17.9899 5.51993 17.9899C5.68117 17.9899 5.83949 18.046 5.9649 18.1486C6.07093 18.2347 8.59644 20.2582 11.6274 20.2582C13.416 20.2582 15.0274 19.563 16.4165 18.1931C16.6838 17.929 17.1476 17.9314 17.412 18.1994C17.5442 18.3329 17.6163 18.5104 17.6149 18.6981C17.6144 18.8853 17.5398 19.0614 17.4057 19.1935ZM18.3339 14.3082C16.1333 14.3082 14.5592 15.6685 14.4929 15.7261C14.3641 15.8388 14.1994 15.9012 14.0285 15.9012C13.8256 15.9012 13.6325 15.8141 13.4993 15.6622C13.3754 15.521 13.3134 15.34 13.326 15.1524C13.3376 14.9651 13.4223 14.7934 13.5637 14.6696C14.5277 13.8231 16.2921 12.919 18.3518 12.919C19.8358 12.919 21.255 13.3891 22.57 14.3169C22.7235 14.4253 22.8257 14.5869 22.8576 14.7721C22.8896 14.9569 22.8475 15.1436 22.739 15.297C22.6073 15.4837 22.3918 15.595 22.1633 15.595C22.0176 15.595 21.8776 15.5505 21.758 15.4658C20.6691 14.6976 19.5168 14.3082 18.3339 14.3082ZM34.6282 24.2799C34.5071 24.4241 34.3372 24.5121 34.1503 24.5286C31.1178 24.7941 28.8586 24.1266 27.4845 22.5549C27.27 22.3102 27.0734 22.0359 26.9011 21.7398C26.8972 21.7326 26.8914 21.7258 26.8861 21.7195C26.7035 21.5362 26.4537 21.438 26.1428 21.4269C26.0329 21.423 25.9167 21.4298 25.7874 21.4481C25.7734 21.4452 24.8965 21.6378 24.0357 21.6092C22.095 21.5454 20.8473 20.6364 20.7955 20.5982C20.4827 20.368 20.4164 19.9268 20.6468 19.6143C20.7844 19.4271 21.0061 19.3202 21.2385 19.3289C21.3794 19.3337 21.514 19.3802 21.6288 19.4639C21.668 19.4919 22.6054 20.1135 24.0734 20.2006C24.7832 20.2427 25.4795 20.0187 25.5642 19.9829C26.107 19.7551 26.0867 19.1538 26.06 18.9211C25.9448 17.5613 26.1859 16.4768 26.1956 16.4309C26.2794 16.0589 26.6614 15.8146 27.0376 15.8997C27.4148 15.9853 27.654 16.3617 27.5692 16.7395C27.5625 16.77 26.9214 19.7812 28.5502 21.6358C29.614 22.8466 31.4679 23.3521 34.0278 23.1272C34.4229 23.0943 34.7575 23.3845 34.7904 23.7667C34.8064 23.9534 34.7492 24.1358 34.6282 24.2799ZM34.0752 13.3916C32.8144 14.5994 32.1932 16.5208 32.4944 18.2874C32.5534 18.6314 32.3205 18.9593 31.9768 19.0179C31.9409 19.0242 31.9046 19.0271 31.8688 19.0271C31.5594 19.0271 31.2825 18.8079 31.2452 18.5003C31.0137 16.6127 31.6253 14.8703 31.6325 14.8524C31.6732 14.7533 31.6785 14.6672 31.6475 14.5965C31.6107 14.5095 31.5265 14.4616 31.4611 14.4359C29.5709 14.227 26.1666 13.5081 24.5857 11.043C24.3421 10.6846 23.705 10.8684 22.6732 10.867C18.0376 10.8592 17.3805 7.88474 17.3549 7.758C17.3215 7.59257 17.3544 7.42326 17.4478 7.28249C17.5413 7.14124 17.6836 7.04498 17.8497 7.0116C17.8913 7.00289 17.934 6.99854 17.9761 6.99854C18.2729 6.99854 18.5334 7.20945 18.5958 7.49969C18.6157 7.58483 19.1241 9.59909 22.6838 9.59909C22.8601 9.59909 23.0436 9.59426 23.229 9.5841C23.6381 9.53427 23.8672 9.31901 23.9267 8.92719C23.9853 7.55677 25.0186 6.53803 25.6199 6.15249C25.7221 6.0867 25.8402 6.05187 25.9613 6.05187C26.1787 6.05187 26.3781 6.16071 26.4958 6.34308C26.5873 6.4853 26.6178 6.65461 26.5815 6.81956C26.5452 6.985 26.4469 7.12625 26.305 7.21767C26.2397 7.26073 24.7048 8.28576 25.3551 9.79887C26.5258 12.5242 30.5078 13.1028 32.1651 13.2247C32.3743 13.2082 32.6125 13.0834 32.8168 12.8822C32.9568 12.7211 33.0783 12.5915 33.1989 12.4763C34.8097 10.9337 34.9061 9.4235 34.9095 9.36013C34.9274 9.01184 35.2252 8.74095 35.5714 8.75885C35.9176 8.77433 36.1887 9.06795 36.1756 9.41334C36.1727 9.49751 36.0749 11.4769 34.0752 13.3916Z" />
</g>
</svg>
