<?xml version="1.0" encoding="utf-8"?><!-- Uploaded to: SVG Repo, www.svgrepo.com, Generator: SVG Repo Mixer Tools -->
<svg width="800px" height="800px" viewBox="0 0 16 16" xmlns="http://www.w3.org/2000/svg">
<path d="M8 9C9.38071 9 10.5 7.88071 10.5 6.5C10.5 5.11929 9.38071 4 8 4C6.61929 4 5.5 5.11929 5.5 6.5C5.5 7.88071 6.61929 9 8 9Z" />
<path fill-rule="evenodd" clip-rule="evenodd" d="M8 16C12.4183 16 16 12.4183 16 8C16 3.58172 12.4183 0 8 0C3.58172 0 0 3.58172 0 8C0 12.4183 3.58172 16 8 16ZM6 10C4.80291 10 3.76957 10.7012 3.28827 11.7152C2.48151 10.6934 2 9.40294 2 8C2 4.68629 4.68629 2 8 2C11.3137 2 14 4.68629 14 8C14 9.40294 13.5185 10.6934 12.7117 11.7152C12.2304 10.7012 11.1971 10 10 10H6Z" />
</svg>
