<svg width="48" height="48" viewBox="0 0 48 48" xmlns="http://www.w3.org/2000/svg">
<g id="Frame 14">
<path id="Union"  d="M18.6647 5.09094C17.5936 5.09094 16.7253 5.95924 16.7253 7.03034C16.7253 8.10143 17.5936 8.96973 18.6647 8.96973H20.6073V11.2696C13.4004 12.8257 8 19.2368 8 26.9092C8 35.7458 15.1634 42.9092 24 42.9092C32.8366 42.9092 40 35.7458 40 26.9092C40 18.8972 34.1111 12.2607 26.4255 11.0919V8.96973H28.3617C29.4328 8.96973 30.3011 8.10143 30.3011 7.03034C30.3011 5.95924 29.4328 5.09094 28.3617 5.09094H18.6647ZM36.1212 26.9092C36.1212 33.6036 30.6944 39.0304 24 39.0304C17.3056 39.0304 11.8788 33.6036 11.8788 26.9092C11.8788 20.2149 17.3056 14.788 24 14.788C30.6944 14.788 36.1212 20.2149 36.1212 26.9092ZM25.4544 20.1212C25.4544 19.3179 24.8031 18.6667 23.9998 18.6667C23.1965 18.6667 22.5453 19.3179 22.5453 20.1212V27.8788C22.5453 28.3533 22.7767 28.798 23.1653 29.0702C23.554 29.3424 24.051 29.4079 24.4969 29.2458L29.8302 27.3064C30.5852 27.0319 30.9746 26.1973 30.7001 25.4423C30.4256 24.6874 29.591 24.2979 28.8361 24.5724L25.4544 25.8022V20.1212Z" />
</g>
</svg>
