<?xml version="1.0" ?>

<!-- Uploaded to: SVG Repo, www.svgrepo.com, Generator: SVG Repo Mixer Tools -->
<svg fill="#000000" width="800px" height="800px" viewBox="0 0 512 512" version="1.1" xml:space="preserve" xmlns="http://www.w3.org/2000/svg" xmlns:xlink="http://www.w3.org/1999/xlink">

<g id="coffee-cup-tea-heart-love">

<path d="M238.23,232c-3.555,0-6.797-2.383-7.738-5.977c-7.405-28.394,22.411-41.758,2.418-62.078l-28.313-28.758   c-25.432-25.828-9.573-67.618,24.203-70.992c9.75-0.945,19.324,1.594,27.199,7.125c7.879-5.531,17.461-8.07,27.199-7.125   c33.725,3.369,49.662,45.136,24.203,70.992c-3.098,3.156-8.168,3.188-11.313,0.094c-3.148-3.102-3.188-8.164-0.086-11.313   c16.014-16.277,6.085-41.818-14.387-43.852c-7.355-0.703-14.652,1.914-19.918,7.25c-3.008,3.063-8.391,3.063-11.398,0   c-5.262-5.336-12.516-7.953-19.918-7.25c-20.382,2.025-30.48,27.494-14.387,43.852l28.316,28.758   c28.169,28.609-3.408,49.828,1.664,69.25c1.113,4.281-1.445,8.648-5.723,9.766C239.578,231.914,238.898,232,238.23,232z    M272.328,231.742c4.273-1.117,6.832-5.492,5.719-9.766c-1.926-7.359,0.953-14.102,4.285-21.906   c5.188-12.164,12.293-28.813-5.949-47.344c-3.105-3.156-8.172-3.188-11.316-0.094c-3.148,3.102-3.188,8.164-0.09,11.313   c10.723,10.898,7.68,18.023,2.637,29.844c-3.914,9.172-8.355,19.578-5.051,32.234c0.941,3.594,4.184,5.977,7.738,5.977   C270.969,232,271.648,231.914,272.328,231.742z M256.207,320c-43.139,0-88-14.07-88-40c0-25.984,45.336-40,88-40s88,14.016,88,40   C344.207,308.551,292.544,320,256.207,320z M256.207,256c-43.953,0-72,14.211-72,24c0,3.24,3.92,6.939,6.557,8.845   C207.263,278.089,230.727,272,256.207,272c25.481,0,48.948,6.09,65.446,16.846c2.643-1.909,6.554-5.599,6.554-8.846   C328.207,270.211,300.16,256,256.207,256z M256.207,336c32.999,0,69.611-7.794,87.76-24c0.08,0,0.16-0.08,0.24-0.16V312h20   c15.44,0,28,12.56,28,28v40c0,15.44-12.56,28-28,28h-34.32c-6.551,10.078-13.768,17.389-23.147,24h13.467c4.422,0,8,3.578,8,8   s-3.578,8-8,8h-128c-4.422,0-8-3.578-8-8s3.578-8,8-8h13.533c-22.667-15.928-37.533-42.225-37.533-72v-48.16   C189.819,330.127,227.766,336,256.207,336z M364.207,384c2.24,0,4-1.76,4-4v-40c0-2.24-1.76-4-4-4h-20v24c0,8.32-1.12,16.4-3.36,24   H364.207z M283.967,374.56c-7.12-8.96-20-9.44-27.76-1.44c-7.76-8-20.64-7.52-27.76,1.44c-6.32,7.84-4.96,19.36,2.08,26.56   l19.92,20.48c3.2,3.2,8.32,3.2,11.52,0l19.92-20.48C288.927,393.92,290.287,382.4,283.967,374.56z"/>

</g>

<g id="Layer_1"/>

</svg>