<svg width="49" height="48" viewBox="0 0 49 48" xmlns="http://www.w3.org/2000/svg">
<g id="Frame 15">
<path id="Union" fill-rule="evenodd" clip-rule="evenodd" d="M17.2453 9.07265C20.1728 7.81803 24.0777 7.09094 28.2861 7.09094C32.4945 7.09094 36.3994 7.81803 39.327 9.07265C40.7872 9.69843 42.0967 10.495 43.0701 11.4814C44.0521 12.4764 44.7861 13.7708 44.7861 15.3052V23.5909C44.7861 25.4857 43.6802 26.9955 42.3404 28.0715C40.989 29.1569 39.174 30.0005 37.1456 30.6067C36.9337 30.6702 36.7184 30.7314 36.5 30.7903V31.8767C36.5 33.772 35.3929 35.2818 34.0533 36.3574C32.7015 37.4429 30.8863 38.2865 28.8585 38.8928L28.8585 38.8928C26.3009 39.6573 23.249 40.091 20 40.091C16.7528 40.091 13.7006 39.6599 11.1414 38.8928C9.11362 38.2865 7.29845 37.4429 5.94662 36.3574C4.60706 35.2818 3.5 33.772 3.5 31.8767V23.591C3.5 21.3669 5.00819 19.6846 6.69895 18.5612C8.07605 17.6462 9.82581 16.9185 11.7861 16.3918V15.3052C11.7861 13.7708 12.5201 12.4764 13.5021 11.4814C14.4756 10.495 15.785 9.69843 17.2453 9.07265ZM11.7861 20.5643C10.6096 20.9526 9.64065 21.4091 8.91256 21.8928C7.6852 22.7083 7.5 23.3356 7.5 23.591C7.5 23.8086 7.62233 24.2873 8.45103 24.9528C9.26747 25.6083 10.5594 26.2582 12.2871 26.7747L12.2887 26.7751C12.5609 26.8567 12.8416 26.9343 13.1303 27.0075C12.3363 26.0716 11.7861 24.927 11.7861 23.5909V20.5643ZM24.1466 31.5632C22.8211 31.722 21.4313 31.8053 20 31.8053C16.7525 31.8053 13.7 31.3741 11.1407 30.6068C9.81236 30.2097 8.57532 29.7106 7.5 29.1085V31.8767C7.5 32.0943 7.62233 32.573 8.45103 33.2385C9.26747 33.894 10.5594 34.5439 12.2871 35.0604L12.2887 35.0608C14.4272 35.702 17.0874 36.091 20 36.091C22.9114 36.091 25.5724 35.7002 27.7129 35.0603C29.4405 34.5438 30.7325 33.894 31.5489 33.2385C32.3776 32.573 32.5 32.0943 32.5 31.8767V31.5549C31.1521 31.7189 29.7386 31.8052 28.2861 31.8052C26.8599 31.8052 25.4717 31.7216 24.1466 31.5632ZM15.7861 20.8227V23.5909C15.7861 23.8085 15.9085 24.2873 16.7372 24.9527C17.5536 25.6082 18.8456 26.2581 20.5733 26.7746C22.7137 27.4144 25.3747 27.8052 28.2861 27.8052C31.1987 27.8052 33.8589 27.4162 35.9974 26.775L35.9993 26.7745C37.7279 26.258 39.0197 25.6082 39.8357 24.9528C40.6637 24.2878 40.7861 23.809 40.7861 23.5909V20.8232C39.711 21.4251 38.4741 21.924 37.1456 22.321C34.5862 23.0883 31.5337 23.5195 28.2861 23.5195C25.0371 23.5195 21.9852 23.0858 19.4276 22.3213L19.4276 22.3213C18.099 21.9241 16.8617 21.425 15.7861 20.8227Z" />
</g>
</svg>
