<svg width="84" height="60" viewBox="0 0 84 60" fill="none" xmlns="http://www.w3.org/2000/svg">
<g clip-path="url(#clip0_130_538)">
<path d="M15.13 42.2159C15.0815 41.8949 15.094 41.5364 14.9487 41.2652C14.6539 40.7172 14.344 40.1401 13.9067 39.7111C12.9476 38.7715 11.8821 37.9412 10.9065 37.0182C10.4581 36.5933 10.018 36.1062 9.74679 35.561C9.31364 34.6947 9.60425 33.8574 10.1633 33.0908C10.3294 33.0327 10.5038 32.9538 10.6864 32.9081C11.6178 32.6756 12.1409 32.9911 12.3844 33.928C12.4716 34.2643 12.5546 34.6006 12.657 35.0116C13.4638 34.6116 14.29 34.429 14.9778 33.9183C14.9058 33.0368 14.6304 32.2688 14.1585 31.5838C13.7143 30.9375 13.057 30.5971 12.2834 30.5279C11.8475 30.4891 11.3977 30.4781 10.9673 30.5431C9.68036 30.7355 8.48471 31.1728 7.79693 32.3643C6.99291 33.7578 6.77842 35.2524 7.33749 36.8064C7.86474 38.1778 8.88464 39.087 10.1398 39.772L10.1467 39.7776C10.3751 40.0031 10.5909 40.2439 10.8359 40.4501C11.5928 41.0895 12.282 41.7772 12.6723 42.7113C12.7193 43.0905 12.8134 43.4697 12.8037 43.8475C12.7816 44.7456 12.2267 45.2881 11.3285 45.3697C11.0905 45.3919 10.8566 45.4514 10.566 45.5026C9.36623 44.9809 9.34962 43.7963 9.17664 42.6089C8.34771 42.8234 7.56445 43.0255 6.78257 43.2261C6.75627 43.5929 6.73413 43.889 6.72583 43.9997C6.92511 44.5145 7.06764 44.8618 7.19357 45.2161C7.46204 45.962 7.89242 46.5861 8.57328 47.0041C10.0831 47.9326 11.6607 47.9645 13.2023 47.1577C14.7536 46.3467 15.1715 44.8605 15.2711 43.2455C15.2781 43.1417 15.2269 43.0365 15.213 42.93C15.1812 42.692 15.1632 42.4526 15.1272 42.2145L15.13 42.2159Z" fill="#676766"/>
<path d="M71.8141 33.8033C73.2741 33.6331 74.6856 33.4671 76.1165 33.2996V30.9664C74.6524 31.1117 73.2422 31.2501 71.7781 31.3954V26.9297C71.9054 26.902 72.0078 26.8702 72.113 26.8591C73.4526 26.7125 74.7908 26.5602 76.1317 26.4288C76.4389 26.3983 76.7406 26.4135 76.8998 26.0814V24.0762C75.5353 24.0167 74.2787 24.27 73.0181 24.418C71.7657 24.5633 70.4953 24.6145 69.3079 24.9065C69.3079 26.783 69.3079 28.5668 69.3079 30.3506C69.3079 32.1372 69.3093 33.9223 69.3121 35.7089C69.3135 37.4816 69.2858 39.2543 69.3176 41.0796C70.7125 40.9288 71.9954 40.7766 73.2796 40.6576C74.3701 40.5565 75.4647 40.5067 76.5552 40.4043C76.8361 40.378 77.106 40.2396 77.3717 40.1552V37.7376C75.509 37.9217 73.6906 38.1016 71.8155 38.287V33.8033H71.8141Z" fill="#676766"/>
<path d="M71.1266 14.6701C72.1036 16.6448 73.0474 18.5559 74.0119 20.5058C75.1979 20.3605 76.3313 20.2207 77.538 20.0726C77.4148 19.7903 77.3415 19.5897 77.2446 19.4015C76.6911 18.3331 76.1583 17.2524 75.5632 16.2075C75.1107 15.4118 73.7601 14.2535 75.2173 13.7028C75.4387 13.5021 75.7334 13.3153 75.9147 13.051C76.1735 12.6746 76.4876 12.2566 76.5333 11.8304C76.6537 10.7302 76.6855 9.61486 76.662 8.50639C76.6495 7.94454 76.507 7.36194 76.3036 6.83331C76.0766 6.24655 75.6712 5.73868 75.0595 5.48543C74.4229 5.22112 73.7642 5.13117 73.0571 5.20728C70.5454 5.47713 68.0295 5.7027 65.5137 5.93519C65.2521 5.95871 65.0196 5.97255 64.9643 6.28945C64.9726 6.34619 64.9823 6.40431 64.9906 6.46105C64.992 6.56207 64.9947 6.66309 64.9961 6.76411C64.9989 6.82916 65.0003 6.8942 65.003 6.95924C65.0113 8.81084 65.0196 10.6624 65.0279 12.514C65.0072 12.6483 64.9698 12.7839 64.9684 12.9181C64.9601 15.6332 64.9546 18.347 64.9546 21.0621C64.9546 21.1894 65.0044 21.3167 65.0445 21.5119C65.9468 21.4316 66.8159 21.3596 67.6849 21.2725C67.952 21.2462 68.2163 21.1756 68.5872 21.1064C68.5498 20.3729 68.5139 19.6741 68.4793 18.9739C68.4737 17.6689 68.4682 16.3653 68.4627 15.0603C68.5111 14.9981 68.5609 14.9344 68.6094 14.8721C69.4507 14.8029 70.2907 14.7351 71.1266 14.6673V14.6701ZM68.4724 8.73196C69.7552 8.63232 71.0076 8.505 72.2627 8.45103C72.9367 8.42336 73.3117 8.82191 73.4196 9.49584C73.6051 10.6514 73.0626 11.4291 71.9112 11.5855C70.7972 11.7377 69.6763 11.8387 68.4724 11.9716V8.73196Z" fill="#676766"/>
<path d="M62.2422 21.6656C62.2519 20.6623 62.2547 19.6411 62.2256 18.5755C59.6087 18.7194 57.1247 19.1442 54.5687 19.2909V15.7995C56.5726 15.585 58.5349 15.3746 60.4819 15.1671C60.63 14.2772 60.5857 12.8519 60.4044 12.2942C58.4712 12.4851 56.5393 12.6761 54.5424 12.874V10.116C56.9171 9.86827 59.2558 9.62471 61.6471 9.37423C61.6471 8.79301 61.6651 8.30175 61.6416 7.81186C61.6195 7.33305 61.7426 6.83901 61.5572 6.36435C58.0865 6.71862 54.6545 7.06873 51.2502 7.41746V22.644C52.0363 22.8627 60.1554 22.1126 62.2422 21.667V21.6656Z" fill="#676766"/>
<path d="M43.2542 14.0946C42.7823 16.0444 42.3229 17.9984 41.8579 19.951C41.6489 19.8057 41.57 19.6729 41.5299 19.529C41.076 17.8794 40.6387 16.2257 40.1779 14.5789C39.789 13.1881 39.3905 11.8001 38.9615 10.4218C38.8037 9.91256 38.7456 9.3438 38.2363 8.84838C37.1431 8.93418 35.9862 9.02551 34.7739 9.121C34.8736 9.43098 34.9386 9.63856 35.0064 9.84614C35.9544 12.7661 36.9009 15.686 37.8502 18.6046C38.1796 19.6189 38.5159 20.6305 38.848 21.6435C38.9518 22.5112 39.295 23.2986 39.6022 24.1137C39.8112 24.0736 39.9426 24.0486 40.0727 24.0237C41.3763 23.8591 42.6799 23.6958 44.0305 23.5242C45.6261 18.2738 47.1484 13.0622 48.5613 7.73022C47.2342 7.87691 45.9873 8.0153 44.7114 8.15784C44.2174 10.163 43.7275 12.1281 43.2514 14.096L43.2542 14.0946Z" fill="#676766"/>
<path d="M26.6877 30.539L26.743 29.1192C25.8145 29.2202 25.034 29.306 24.1912 29.3973V36.6349C23.1035 36.7484 22.0767 36.8563 21.0499 36.9587C20.816 36.9822 20.5807 36.985 20.2583 37.0016V29.8125C19.3643 29.9246 18.5631 30.0242 17.7521 30.1252V36.7871C17.7521 37.9994 17.7521 39.2116 17.7521 40.4239C17.7521 42.317 17.7452 44.2087 17.7563 46.1018C17.7563 46.2942 17.8559 46.4866 17.9099 46.6789C18.0884 46.6665 18.2669 46.6526 18.4454 46.6402C19.0405 46.5737 19.6369 46.5073 20.2749 46.4354V39.5216C21.656 39.2019 22.9319 38.9736 24.2673 38.9473C24.2673 39.8427 24.2673 40.6384 24.2673 41.4327C24.2659 42.2284 24.2466 43.0255 24.2632 43.8212C24.2798 44.5976 24.1732 45.3809 24.3227 46.1226C25.1599 45.9801 25.928 45.8486 26.75 45.7074C26.75 44.9117 26.7527 44.1492 26.75 43.3867C26.7334 39.1037 26.7195 34.822 26.6891 30.5404L26.6877 30.539Z" fill="#676766"/>
<path d="M35.4021 28.2237C35.3495 28.4161 35.2512 28.6084 35.2512 28.8008C35.2485 32.1442 35.2554 35.4889 35.2678 38.8323C35.2678 39.1022 35.3177 39.3734 35.3439 39.6433C35.3163 40.2716 35.3315 40.9054 35.254 41.5281C35.0935 42.7957 33.4605 43.5153 32.406 42.7999C32.0504 42.5591 31.8303 42.2117 31.793 41.7772C31.7625 41.4229 31.7598 41.0659 31.7584 40.7116C31.7487 37.0444 31.7418 33.3772 31.7349 29.71C31.7349 29.6491 31.7349 29.5882 31.7362 29.5273C31.7335 29.4263 31.7307 29.3266 31.7279 29.2256C31.7279 29.1578 31.7279 29.0886 31.7279 29.0208C31.7321 28.9184 31.7362 28.816 31.7404 28.7136C31.4968 28.3635 31.2131 28.5683 30.9378 28.6541C30.5323 28.6928 30.1227 28.7081 29.7227 28.7786C29.5345 28.8119 29.3643 28.9475 29.1858 29.0374C29.1941 29.0969 29.2024 29.1578 29.2107 29.2173C29.2273 32.6742 29.2384 36.1311 29.2619 39.5879C29.2702 40.8445 29.3062 42.0996 29.3283 43.233C29.6715 43.7326 29.8625 44.1976 30.2057 44.4771C31.8123 45.7821 35.0533 45.5094 36.5327 44.0093C37.4142 43.1154 37.7615 42.0415 37.7629 40.8085C37.7671 36.6929 37.7906 32.5773 37.8031 28.4617C37.8031 28.3095 37.7615 28.1573 37.7311 27.9414C36.9229 28.0397 36.1632 28.131 35.4035 28.2237H35.4021Z" fill="#676766"/>
<path d="M49.7524 33.3134V35.4888C49.7524 35.6964 49.7524 35.9039 49.7524 36.1129C49.7566 38.4198 49.7607 40.7253 49.7677 43.0322C49.7677 43.0557 49.787 43.0806 49.8036 43.1C49.8216 43.1208 49.8452 43.136 49.9088 43.1872C50.6547 43.1069 51.438 43.0225 52.2987 42.9284V35.8611C53.8583 35.6728 55.3418 35.4929 56.8461 35.3103C56.8641 34.4897 56.8779 33.7659 56.8253 33.0269C55.2892 33.1916 53.8431 33.348 52.397 33.503C52.3638 33.431 52.3306 33.359 52.2974 33.2871C52.3001 32.5467 52.2946 31.8064 52.3084 31.0674C52.3223 30.3132 52.2614 29.5534 52.3596 28.7979C54.1116 28.6027 55.7667 28.4187 57.4315 28.2332V25.907C54.8589 26.1824 52.3375 26.4522 49.7538 26.7276C49.7538 28.9473 49.7538 31.1338 49.7538 33.3106L49.7524 33.3134Z" fill="#676766"/>
<path d="M40.2415 31.3275C40.2249 31.4354 40.1958 31.5434 40.1958 31.6513C40.1889 35.7586 40.1847 39.8645 40.1833 43.9718C40.1833 44.0936 40.2318 44.2167 40.2678 44.3925C40.4504 44.3191 40.5708 44.2721 40.6912 44.2237C41.3721 44.1711 42.0529 44.1171 42.7892 44.0604C42.7892 42.7955 42.7822 41.5929 42.7905 40.389C42.7988 39.1657 42.7629 37.9409 42.7988 36.7024C44.3349 36.51 45.7644 36.3329 47.1566 36.1585V33.9112C45.6883 34.0579 44.2865 34.199 42.8819 34.3402V29.8302C43.7592 29.7278 44.5826 29.6655 45.3936 29.5299C46.2156 29.3929 47.0833 29.487 47.861 29.1396V26.8992C45.2787 27.1773 42.7559 27.4486 40.2429 27.7198V31.3289L40.2415 31.3275Z" fill="#676766"/>
<path d="M62.0923 25.3661C61.1679 25.4823 60.3334 25.5861 59.5391 25.6871V42.101C62.1961 41.8243 64.7742 41.5558 67.3468 41.2887V38.766C65.5893 38.95 63.8858 39.1285 62.0923 39.3167V25.3675V25.3661Z" fill="#676766"/>
<path d="M18.0664 21.5022C18.0817 21.4386 18.083 21.3652 18.0623 21.2767C16.9275 21.415 15.8011 21.5534 14.6954 21.6877C14.5556 23.1808 14.0906 23.8409 12.9503 24.1744C12.2833 24.3696 11.5969 24.4194 10.9119 24.2561C10.2961 24.1094 9.88785 23.7385 9.755 23.1089C9.70518 22.8695 9.67888 22.619 9.6775 22.3741C9.67196 20.5612 9.66643 18.747 9.68304 16.9341C9.6858 16.5536 9.74531 16.1661 9.83249 15.7952C9.97641 15.1835 10.404 14.7393 10.9811 14.6079C11.7242 14.439 12.5033 14.3629 13.2658 14.3726C14.1128 14.3837 14.5251 14.8583 14.6386 15.7094C14.6594 15.863 14.7147 16.0125 14.7632 16.1993C15.3444 16.1301 15.8869 16.0651 16.4307 15.9986C16.9663 15.9336 17.5032 15.8658 18.1135 15.7911C18.0401 15.1808 18.0083 14.6618 17.9101 14.1553C17.6485 12.8088 16.9676 11.6796 15.0109 11.371C13.0389 11.061 11.1222 11.4361 9.24297 11.9979C7.43012 12.5404 6.43098 13.8454 6.37147 15.6859C6.28429 18.4273 6.36317 21.1743 6.37147 23.9198C6.44205 25.038 6.83091 25.979 7.84389 26.5768C8.39743 26.7996 8.93299 27.0902 9.50729 27.2314C10.6241 27.5054 11.7616 27.349 12.8659 27.14C13.8028 26.9629 14.7535 26.7166 15.617 26.3222C17.2804 25.5625 17.9792 24.1315 18.0817 22.3962L18.0678 21.5022H18.0664Z" fill="#676766"/>
<path d="M21.061 22.5513C21.4015 24.1898 22.3923 25.1446 24.0501 25.4159C26.0457 25.7424 27.9941 25.4823 29.8873 24.825C31.66 24.2105 32.7048 22.9803 32.8625 21.0706C32.8916 20.7149 32.9165 20.3593 32.9193 20.0022C32.9276 19.0695 32.922 18.1368 32.922 17.2041H32.9248C32.9248 16.2713 32.9414 15.3386 32.9193 14.4059C32.9068 13.8593 32.8736 13.3057 32.7767 12.7688C32.4322 10.8549 31.5659 10.0634 29.5717 9.76446C27.7686 9.49461 25.9502 9.77138 24.1955 10.2668C22.9334 10.6224 21.9342 11.3642 21.3599 12.5931C21.0043 13.3556 20.9116 14.1734 20.9019 14.9927C20.8784 17.0781 20.8853 19.1622 20.9019 21.2477C20.9046 21.6822 20.9725 22.1237 21.061 22.5499V22.5513ZM24.3837 14.1416C25.416 12.6429 26.9023 12.7564 28.3581 12.8809C28.8881 12.9266 29.2092 13.3639 29.3143 13.8883C29.3891 14.2634 29.4347 14.6495 29.4389 15.03C29.4389 15.03 29.5344 19.1484 29.4361 19.8832C29.3766 20.3288 29.295 20.7938 29.14 21.22C28.9531 21.7348 28.5325 22.1084 28.0121 22.2081C27.2925 22.3465 26.5452 22.4364 25.8173 22.4046C24.9926 22.3686 24.5525 21.869 24.4127 21.0456C24.3809 20.8574 24.3698 20.6637 24.3712 20.4727C24.3823 18.444 24.3989 16.4153 24.4113 14.3879C24.4113 14.3063 24.3947 14.2246 24.385 14.1416H24.3837Z" fill="#676766"/>
<path d="M64.2712 5.73868C64.2948 5.77743 64.3224 5.81341 64.3377 5.85492C64.3418 5.86599 64.3114 5.89229 64.2975 5.91028L64.2712 5.73868Z" fill="white"/>
<path d="M14.4378 41.6623C14.3894 41.3412 14.4019 40.9828 14.2566 40.7116C13.9618 40.1636 13.6518 39.5865 13.2145 39.1575C12.2555 38.2179 11.1899 37.3876 10.2143 36.4645C9.76595 36.0397 9.32588 35.5526 9.05465 35.0073C8.6215 34.141 8.91211 33.3038 9.47119 32.5372C9.63725 32.479 9.81162 32.4002 9.99428 32.3545C10.9256 32.122 11.4487 32.4375 11.6923 33.3744C11.7795 33.7107 11.8625 34.0469 11.9649 34.4579C12.7717 34.058 13.5978 33.8753 14.2856 33.3647C14.2137 32.4832 13.9383 31.7151 13.4664 31.0301C13.0222 30.3839 12.3648 30.0435 11.5913 29.9743C11.1553 29.9355 10.7056 29.9244 10.2752 29.9895C8.98822 30.1818 7.79257 30.6191 7.1048 31.8106C6.30078 33.2042 6.08628 34.6987 6.64536 36.2528C7.1726 37.6242 8.1925 38.5334 9.44766 39.2184L9.45458 39.2239C9.68292 39.4495 9.8988 39.6903 10.1437 39.8965C10.9007 40.5358 11.5899 41.2236 11.9801 42.1577C12.0272 42.5369 12.1213 42.9161 12.1116 43.2939C12.0894 44.192 11.5345 44.7345 10.6364 44.8161C10.3984 44.8382 10.1645 44.8978 9.87389 44.949C8.67409 44.4272 8.65748 43.2427 8.4845 42.0553C7.65557 42.2698 6.87231 42.4719 6.09043 42.6725C6.06414 43.0392 6.04199 43.3354 6.03369 43.4461C6.23297 43.9609 6.3755 44.3082 6.50143 44.6625C6.7699 45.4084 7.20028 46.0325 7.88114 46.4504C9.39092 47.379 10.9685 47.4108 12.5101 46.604C14.0614 45.7931 14.4794 44.3068 14.579 42.6919C14.5859 42.5881 14.5347 42.4829 14.5209 42.3764C14.489 42.1383 14.4711 41.8989 14.4351 41.6609L14.4378 41.6623Z" fill="white"/>
<path d="M71.122 33.25C72.5819 33.0798 73.9935 32.9137 75.4244 32.7463V30.4131C73.9603 30.5584 72.5501 30.6968 71.086 30.8421V26.3764C71.2133 26.3487 71.3157 26.3169 71.4209 26.3058C72.7604 26.1591 74.0986 26.0069 75.4396 25.8754C75.7468 25.845 76.0485 25.8602 76.2076 25.5281V23.5229C74.8431 23.4634 73.5866 23.7166 72.3259 23.8647C71.0735 24.01 69.8031 24.0612 68.6158 24.3532C68.6158 26.2297 68.6158 28.0135 68.6158 29.7973C68.6158 31.5838 68.6172 33.369 68.6199 35.1556C68.6213 36.9283 68.5937 38.701 68.6255 40.5263C70.0204 40.3755 71.3032 40.2232 72.5875 40.1042C73.6779 40.0032 74.7726 39.9534 75.863 39.851C76.144 39.8247 76.4138 39.6863 76.6795 39.6019V37.1843C74.8169 37.3683 72.9985 37.5482 71.1233 37.7337V33.25H71.122Z" fill="white"/>
<path d="M70.4344 14.1167C71.4114 16.0915 72.3552 18.0026 73.3198 19.9524C74.5057 19.8071 75.6391 19.6674 76.8458 19.5193C76.7227 19.237 76.6493 19.0363 76.5525 18.8481C75.9989 17.7798 75.4661 16.699 74.8711 15.6542C74.4186 14.8585 73.0679 13.7002 74.5251 13.1494C74.7465 12.9488 75.0413 12.7619 75.2226 12.4976C75.4814 12.1212 75.7955 11.7033 75.8412 11.2771C75.9616 10.1769 75.9934 9.06151 75.9699 7.95304C75.9574 7.3912 75.8149 6.8086 75.6114 6.27996C75.3845 5.69321 74.979 5.18533 74.3674 4.93209C73.7308 4.66777 73.0721 4.57782 72.3649 4.65393C69.8532 4.92378 67.3374 5.14935 64.8215 5.38184C64.56 5.40537 64.3275 5.4192 64.2721 5.73611C64.2804 5.79285 64.2901 5.85097 64.2984 5.90771C64.2998 6.00873 64.3026 6.10975 64.304 6.21077C64.3067 6.27581 64.3081 6.34085 64.3109 6.40589C64.3192 8.25749 64.3275 10.1091 64.3358 11.9607C64.315 12.0949 64.2777 12.2305 64.2763 12.3648C64.268 15.0799 64.2625 17.7936 64.2625 20.5088C64.2625 20.6361 64.3123 20.7634 64.3524 20.9585C65.2547 20.8782 66.1237 20.8063 66.9928 20.7191C67.2599 20.6928 67.5242 20.6222 67.8951 20.553C67.8577 19.8196 67.8217 19.1208 67.7871 18.4205C67.7816 17.1155 67.7761 15.812 67.7705 14.507C67.819 14.4447 67.8688 14.3811 67.9172 14.3188C68.7586 14.2496 69.5986 14.1818 70.4344 14.114V14.1167ZM67.7802 8.17861C69.063 8.07897 70.3154 7.95166 71.5706 7.89769C72.2445 7.87001 72.6195 8.26856 72.7275 8.9425C72.9129 10.098 72.3705 10.8757 71.2191 11.0321C70.1051 11.1843 68.9842 11.2854 67.7802 11.4182V8.17861Z" fill="white"/>
<path d="M61.5501 21.112C61.5598 20.1087 61.5625 19.0874 61.5335 18.0219C58.9166 18.1658 56.4326 18.5906 53.8766 18.7373V15.2459C55.8804 15.0314 57.8427 14.821 59.7898 14.6134C59.9379 13.7236 59.8936 12.2982 59.7123 11.7405C57.7791 11.9315 55.8472 12.1225 53.8503 12.3204V9.56236C56.225 9.31465 58.5637 9.07109 60.955 8.82061C60.955 8.2394 60.973 7.74813 60.9495 7.25824C60.9273 6.77943 61.0505 6.28539 60.8651 5.81073C57.3944 6.165 53.9624 6.51511 50.5581 6.86384V22.0904C51.3441 22.309 59.4632 21.559 61.5501 21.1134V21.112Z" fill="white"/>
<path d="M42.5621 13.541C42.0902 15.4908 41.6307 17.4448 41.1657 19.3975C40.9568 19.2522 40.8779 19.1193 40.8378 18.9754C40.3839 17.3258 39.9466 15.6721 39.4857 14.0253C39.0969 12.6346 38.6983 11.2466 38.2693 9.86823C38.1116 9.35897 38.0534 8.79021 37.5442 8.29479C36.4509 8.38059 35.294 8.47192 34.0818 8.56741C34.1814 8.87739 34.2465 9.08497 34.3143 9.29255C35.2622 12.2125 36.2088 15.1324 37.1581 18.051C37.4875 19.0653 37.8237 20.0769 38.1559 21.0899C38.2596 21.9576 38.6028 22.745 38.9101 23.5601C39.119 23.52 39.2505 23.4951 39.3806 23.4701C40.6842 23.3055 41.9878 23.1422 43.3384 22.9706C44.934 17.7202 46.4562 12.5086 47.8691 7.17664C46.542 7.32332 45.2952 7.46171 44.0192 7.60425C43.5252 9.60945 43.0353 11.5745 42.5593 13.5424L42.5621 13.541Z" fill="white"/>
<path d="M25.9955 29.9854L26.0509 28.5656C25.1223 28.6666 24.3418 28.7524 23.4991 28.8437V36.0813C22.4114 36.1948 21.3845 36.3027 20.3577 36.4051C20.1239 36.4286 19.8886 36.4314 19.5662 36.448V29.2589C18.6722 29.371 17.8709 29.4706 17.06 29.5716V36.2335C17.06 37.4458 17.06 38.658 17.06 39.8703C17.06 41.7634 17.0531 43.6551 17.0641 45.5483C17.0641 45.7406 17.1638 45.933 17.2178 46.1253C17.3963 46.1129 17.5748 46.099 17.7533 46.0866C18.3484 46.0201 18.9448 45.9537 19.5828 45.8818V38.968C20.9639 38.6484 22.2398 38.42 23.5752 38.3937C23.5752 39.2891 23.5752 40.0848 23.5752 40.8791C23.5738 41.6748 23.5544 42.4719 23.571 43.2677C23.5876 44.044 23.4811 44.8273 23.6305 45.569C24.4678 45.4265 25.2358 45.295 26.0578 45.1539C26.0578 44.3581 26.0606 43.5956 26.0578 42.8331C26.0412 38.5501 26.0274 34.2685 25.9969 29.9868L25.9955 29.9854Z" fill="white"/>
<path d="M34.7099 27.6701C34.6573 27.8625 34.5591 28.0548 34.5591 28.2472C34.5563 31.5906 34.5632 34.9354 34.5757 38.2788C34.5757 38.5486 34.6255 38.8198 34.6518 39.0897C34.6241 39.718 34.6394 40.3518 34.5619 40.9745C34.4013 42.2421 32.7684 42.9617 31.7139 42.2463C31.3582 42.0055 31.1382 41.6581 31.1008 41.2236C31.0704 40.8693 31.0676 40.5123 31.0662 40.158C31.0566 36.4908 31.0496 32.8236 31.0427 29.1564C31.0427 29.0955 31.0427 29.0346 31.0441 28.9737C31.0413 28.8727 31.0386 28.7731 31.0358 28.672C31.0358 28.6042 31.0358 28.535 31.0358 28.4672C31.0399 28.3648 31.0441 28.2624 31.0482 28.16C30.8047 27.8099 30.521 28.0147 30.2456 28.1005C29.8401 28.1392 29.4305 28.1545 29.0306 28.2251C28.8424 28.2583 28.6722 28.3939 28.4937 28.4838C28.502 28.5433 28.5103 28.6042 28.5186 28.6637C28.5352 32.1206 28.5462 35.5775 28.5698 39.0343C28.5781 40.2909 28.614 41.546 28.6362 42.6794C28.9794 43.179 29.1704 43.644 29.5136 43.9235C31.1202 45.2285 34.3612 44.9559 35.8405 43.4558C36.7221 42.5618 37.0694 41.4879 37.0708 40.2549C37.0749 36.1393 37.0985 32.0237 37.1109 27.9081C37.1109 27.7559 37.0694 27.6037 37.039 27.3878C36.2308 27.4861 35.4711 27.5774 34.7113 27.6701H34.7099Z" fill="white"/>
<path d="M49.0603 32.76V34.9354C49.0603 35.143 49.0603 35.3506 49.0603 35.5596C49.0645 37.8665 49.0686 40.172 49.0755 42.4788C49.0755 42.5024 49.0949 42.5273 49.1115 42.5467C49.1295 42.5674 49.153 42.5826 49.2167 42.6338C49.9626 42.5536 50.7458 42.4692 51.6066 42.3751V35.3077C53.1662 35.1195 54.6497 34.9396 56.1539 34.7569C56.1719 33.9363 56.1858 33.2126 56.1332 32.4736C54.5971 32.6383 53.151 32.7946 51.7049 32.9496C51.6716 32.8777 51.6384 32.8057 51.6052 32.7337C51.608 31.9934 51.6024 31.253 51.6163 30.514C51.6301 29.7598 51.5692 29.0001 51.6675 28.2445C53.4194 28.0494 55.0745 27.8653 56.7393 27.6799V25.3536C54.1667 25.629 51.6453 25.8989 49.0617 26.1743C49.0617 28.394 49.0617 30.5805 49.0617 32.7573L49.0603 32.76Z" fill="white"/>
<path d="M39.5493 30.7742C39.5327 30.8821 39.5037 30.99 39.5037 31.098C39.4967 35.2053 39.4926 39.3112 39.4912 43.4184C39.4912 43.5402 39.5396 43.6634 39.5756 43.8391C39.7583 43.7658 39.8787 43.7187 39.9991 43.6703C40.6799 43.6177 41.3608 43.5638 42.097 43.507C42.097 42.2422 42.0901 41.0396 42.0984 39.8356C42.1067 38.6123 42.0707 37.3876 42.1067 36.1491C43.6428 35.9567 45.0723 35.7796 46.4645 35.6052V33.3578C44.9962 33.5045 43.5943 33.6457 42.1897 33.7868V29.2768C43.0671 29.1744 43.8905 29.1122 44.7014 28.9765C45.5234 28.8395 46.3911 28.9336 47.1688 28.5863V26.3458C44.5866 26.624 42.0638 26.8952 39.5507 27.1665V30.7755L39.5493 30.7742Z" fill="white"/>
<path d="M61.4001 24.8125C60.4757 24.9287 59.6413 25.0325 58.8469 25.1336V41.5475C61.5039 41.2707 64.082 41.0022 66.6546 40.7351V38.2124C64.8971 38.3964 63.1936 38.5749 61.4001 38.7631V24.8139V24.8125Z" fill="white"/>
<path d="M17.3743 20.9489C17.3895 20.8852 17.3909 20.8119 17.3701 20.7233C16.2354 20.8617 15.1089 21.0001 14.0032 21.1343C13.8635 22.6275 13.3985 23.2876 12.2582 23.6211C11.5912 23.8162 10.9048 23.866 10.2198 23.7028C9.60394 23.5561 9.19571 23.1852 9.06286 22.5555C9.01304 22.3161 8.98675 22.0656 8.98536 21.8207C8.97983 20.0079 8.97429 18.1936 8.9909 16.3808C8.99366 16.0002 9.05317 15.6127 9.14035 15.2419C9.28427 14.6302 9.71188 14.186 10.289 14.0545C11.0321 13.8857 11.8112 13.8096 12.5737 13.8193C13.4206 13.8303 13.833 14.305 13.9465 15.1561C13.9672 15.3097 14.0226 15.4591 14.071 15.6459C14.6522 15.5768 15.1947 15.5117 15.7386 15.4453C16.2741 15.3802 16.8111 15.3124 17.4213 15.2377C17.348 14.6274 17.3162 14.1085 17.2179 13.602C16.9564 12.2555 16.2755 11.1263 14.3187 10.8177C12.3467 10.5077 10.4301 10.8827 8.55083 11.4446C6.73798 11.987 5.73884 13.292 5.67933 15.1325C5.59215 17.874 5.67103 20.6209 5.67933 23.3665C5.74991 24.4846 6.13877 25.4257 7.15175 26.0235C7.7053 26.2463 8.24085 26.5369 8.81515 26.678C9.93192 26.952 11.0694 26.7957 12.1738 26.5867C13.1106 26.4096 14.0613 26.1632 14.9249 25.7688C16.5883 25.0091 17.2871 23.5782 17.3895 21.8428L17.3757 20.9489H17.3743Z" fill="white"/>
<path d="M20.3689 21.9979C20.7093 23.6364 21.7002 24.5913 23.358 24.8625C25.3535 25.1891 27.302 24.9289 29.1951 24.2716C30.9678 23.6572 32.0126 22.4269 32.1704 20.5172C32.1995 20.1616 32.2244 19.8059 32.2271 19.4489C32.2354 18.5162 32.2299 17.5834 32.2299 16.6507H32.2327C32.2327 15.718 32.2493 14.7853 32.2271 13.8526C32.2147 13.3059 32.1815 12.7524 32.0846 12.2155C31.74 10.3016 30.8737 9.51003 28.8796 9.21111C27.0764 8.94126 25.258 9.21803 23.5033 9.71345C22.2412 10.0691 21.2421 10.8109 20.6678 12.0397C20.3121 12.8022 20.2194 13.6201 20.2097 14.4393C20.1862 16.5248 20.1931 18.6089 20.2097 20.6943C20.2125 21.1289 20.2803 21.5703 20.3689 21.9966V21.9979ZM23.6915 13.5882C24.7239 12.0895 26.2101 12.203 27.666 12.3276C28.196 12.3732 28.517 12.8105 28.6222 13.335C28.6969 13.71 28.7426 14.0961 28.7467 14.4767C28.7467 14.4767 28.8422 18.595 28.744 19.3299C28.6845 19.7755 28.6028 20.2404 28.4478 20.6667C28.261 21.1815 27.8403 21.5551 27.32 21.6547C26.6004 21.7931 25.8531 21.8831 25.1252 21.8512C24.3004 21.8153 23.8604 21.3157 23.7206 20.4923C23.6888 20.3041 23.6777 20.1104 23.6791 19.9194C23.6901 17.8907 23.7067 15.8619 23.7192 13.8346C23.7192 13.7529 23.7026 13.6713 23.6929 13.5882H23.6915Z" fill="white"/>
<path d="M41.654 59.229L30.8821 50.1246L7.6029 52.4481H7.54755C3.38491 52.4481 0 49.0618 0 44.9006V14.3284C0 10.1852 3.35446 6.81133 7.49081 6.78089L75.4284 0H76.4525C80.6151 0 84 3.38629 84 7.54755V38.1183C84 42.2616 80.6455 45.6354 76.5092 45.6658L58.1219 47.88L41.654 59.2276V59.229ZM31.419 47.8454L41.9363 54.4644L56.7035 45.3226L56.9581 45.2977L75.4284 43.4544H75.4838C78.4245 43.4544 80.8171 41.0617 80.8171 38.1211V7.54755C80.8171 4.62346 78.4535 2.24185 75.5363 2.21417L7.6029 8.99506H7.54755C4.60685 8.99506 2.21417 11.3877 2.21417 14.3284V44.8992C2.21417 47.8233 4.57779 50.2049 7.49496 50.2326L31.419 47.844V47.8454Z" fill="white"/>
</g>
<defs>
<clipPath id="clip0_130_538">
<rect width="84" height="59.229" fill="white"/>
</clipPath>
</defs>
</svg>
