<svg xmlns="http://www.w3.org/2000/svg" width="200" height="201" viewBox="0 0 200 201" fill="none">
  <path fill-rule="evenodd" clip-rule="evenodd" d="M91.0256 11.5027H108.386L132.963 64.3302H66.3468L91.0256 11.5027ZM46.5988 64.3302L71.2778 11.5027H47.3992L47.2029 11.5054C43.6779 11.6022 40.2253 12.5271 37.124 14.2055C34.0451 15.8718 31.3982 18.2343 29.3944 21.1042L3.38057 57.1234L3.34044 57.1795C1.79799 59.3592 0.672615 61.7834 0 64.3302H46.5988ZM2.9379 82.222H46.2235L73.7274 170.398L4.52785 84.3421C3.95378 83.665 3.42323 82.9569 2.9379 82.222ZM64.9656 82.222H134.337L100.978 189.61C100.487 189.644 99.9942 189.661 99.5002 189.661C99.1562 189.661 98.8129 189.652 98.4701 189.635L64.9656 82.222ZM153.072 82.222L125.938 169.571L194.473 84.3423C195.047 83.6651 195.578 82.9569 196.063 82.222H153.072ZM199 64.3302C198.327 61.7834 197.202 59.3592 195.661 57.1795L195.621 57.1234L169.606 21.1042C167.602 18.2342 164.955 15.8718 161.877 14.2055C158.775 12.5271 155.323 11.6022 151.797 11.5054L151.601 11.5027H128.119L152.696 64.3302H199Z" fill="#B89826"/>
</svg>
