<svg xmlns="http://www.w3.org/2000/svg" width="25" height="24" viewBox="0 0 25 24" fill="none">
<g clip-path="url(#clip0_885_5880)">
<path fill-rule="evenodd" clip-rule="evenodd" d="M12.5 24C19.1274 24 24.5 18.6274 24.5 12C24.5 5.37258 19.1274 0 12.5 0C5.87258 0 0.5 5.37258 0.5 12C0.5 18.6274 5.87258 24 12.5 24ZM17.11 10.1983L14.2482 7.33642L7.00563 14.5806L9.86588 17.4424L17.11 10.1983ZM18.0054 5.36993L19.2816 6.64621C19.6642 7.02877 19.6642 7.64572 19.2816 8.02831L17.8556 9.45434L14.9937 6.59248L16.2163 5.36993C16.7112 4.87669 17.5121 4.87669 18.0054 5.36993ZM5.90193 18.9906C5.66751 19.0476 5.45588 18.8375 5.50796 18.6031L6.23076 15.3555L9.091 18.2173L5.90193 18.9906Z" fill="white"/>
</g>
<defs>
<clipPath id="clip0_885_5880">
<rect width="24" height="24" fill="white" transform="translate(0.5)"/>
</clipPath>
</defs>
</svg>
