<svg xmlns="http://www.w3.org/2000/svg" viewBox="0 0 24 24" width="24" height="24">
  <rect width="24" height="24" fill="#f5f5f5"/>
  <rect width="24" height="1.85" fill="#b22234"/>
  <rect width="24" height="1.85" fill="#b22234" y="3.7"/>
  <rect width="24" height="1.85" fill="#b22234" y="7.4"/>
  <rect width="24" height="1.85" fill="#b22234" y="11.1"/>
  <rect width="24" height="1.85" fill="#b22234" y="14.8"/>
  <rect width="24" height="1.85" fill="#b22234" y="18.5"/>
  <rect width="24" height="1.85" fill="#b22234" y="22.2"/>
  <rect width="9.6" height="12.9" fill="#3c3b6e"/>
  <g fill="#fff">
    <g>
      <polygon points="0.8,0.86 1,0.5 1.2,0.86 0.7,0.64 1.3,0.64"/>
      <polygon points="2.4,0.86 2.6,0.5 2.8,0.86 2.3,0.64 2.9,0.64"/>
      <polygon points="4,0.86 4.2,0.5 4.4,0.86 3.9,0.64 4.5,0.64"/>
      <polygon points="5.6,0.86 5.8,0.5 6,0.86 5.5,0.64 6.1,0.64"/>
      <polygon points="7.2,0.86 7.4,0.5 7.6,0.86 7.1,0.64 7.7,0.64"/>
      <polygon points="8.8,0.86 9,0.5 9.2,0.86 8.7,0.64 9.3,0.64"/>
    </g>
    <g transform="translate(0, 1.07)">
      <polygon points="0,0.86 0.2,0.5 0.4,0.86 -0.1,0.64 0.5,0.64"/>
      <polygon points="1.6,0.86 1.8,0.5 2,0.86 1.5,0.64 2.1,0.64"/>
      <polygon points="3.2,0.86 3.4,0.5 3.6,0.86 3.1,0.64 3.7,0.64"/>
      <polygon points="4.8,0.86 5,0.5 5.2,0.86 4.7,0.64 5.3,0.64"/>
      <polygon points="6.4,0.86 6.6,0.5 6.8,0.86 6.3,0.64 6.9,0.64"/>
      <polygon points="8,0.86 8.2,0.5 8.4,0.86 7.9,0.64 8.5,0.64"/>
    </g>
    <g transform="translate(0, 2.14)">
      <polygon points="0.8,0.86 1,0.5 1.2,0.86 0.7,0.64 1.3,0.64"/>
      <polygon points="2.4,0.86 2.6,0.5 2.8,0.86 2.3,0.64 2.9,0.64"/>
      <polygon points="4,0.86 4.2,0.5 4.4,0.86 3.9,0.64 4.5,0.64"/>
      <polygon points="5.6,0.86 5.8,0.5 6,0.86 5.5,0.64 6.1,0.64"/>
      <polygon points="7.2,0.86 7.4,0.5 7.6,0.86 7.1,0.64 7.7,0.64"/>
      <polygon points="8.8,0.86 9,0.5 9.2,0.86 8.7,0.64 9.3,0.64"/>
    </g>
    <g transform="translate(0, 3.21)">
      <polygon points="0,0.86 0.2,0.5 0.4,0.86 -0.1,0.64 0.5,0.64"/>
      <polygon points="1.6,0.86 1.8,0.5 2,0.86 1.5,0.64 2.1,0.64"/>
      <polygon points="3.2,0.86 3.4,0.5 3.6,0.86 3.1,0.64 3.7,0.64"/>
      <polygon points="4.8,0.86 5,0.5 5.2,0.86 4.7,0.64 5.3,0.64"/>
      <polygon points="6.4,0.86 6.6,0.5 6.8,0.86 6.3,0.64 6.9,0.64"/>
      <polygon points="8,0.86 8.2,0.5 8.4,0.86 7.9,0.64 8.5,0.64"/>
    </g>
    <g transform="translate(0, 4.28)">
      <polygon points="0.8,0.86 1,0.5 1.2,0.86 0.7,0.64 1.3,0.64"/>
      <polygon points="2.4,0.86 2.6,0.5 2.8,0.86 2.3,0.64 2.9,0.64"/>
      <polygon points="4,0.86 4.2,0.5 4.4,0.86 3.9,0.64 4.5,0.64"/>
      <polygon points="5.6,0.86 5.8,0.5 6,0.86 5.5,0.64 6.1,0.64"/>
      <polygon points="7.2,0.86 7.4,0.5 7.6,0.86 7.1,0.64 7.7,0.64"/>
      <polygon points="8.8,0.86 9,0.5 9.2,0.86 8.7,0.64 9.3,0.64"/>
    </g>
    <g transform="translate(0, 5.35)">
      <polygon points="0,0.86 0.2,0.5 0.4,0.86 -0.1,0.64 0.5,0.64"/>
      <polygon points="1.6,0.86 1.8,0.5 2,0.86 1.5,0.64 2.1,0.64"/>
      <polygon points="3.2,0.86 3.4,0.5 3.6,0.86 3.1,0.64 3.7,0.64"/>
      <polygon points="4.8,0.86 5,0.5 5.2,0.86 4.7,0.64 5.3,0.64"/>
      <polygon points="6.4,0.86 6.6,0.5 6.8,0.86 6.3,0.64 6.9,0.64"/>
      <polygon points="8,0.86 8.2,0.5 8.4,0.86 7.9,0.64 8.5,0.64"/>
    </g>
  </g>
</svg>
