<svg xmlns="http://www.w3.org/2000/svg" width="62" height="62" viewBox="0 0 62 62" fill="none">
<path d="M0.607045 57.0623C0.343591 56.427 0.159645 55.7504 0.0676183 55.0449L0.563418 54.9802C0.5216 54.6596 0.5 54.3325 0.5 54V53.0417H0V51.125H0.5V49.2083H0V47.2917H0.5V45.375H0V43.4583H0.5V41.5417H0V39.625H0.5V37.7083H0V35.7917H0.5V33.875H0V31.9583H0.5V30.0417H0V28.125H0.5V26.2083H0V24.2917H0.5V22.375H0V20.4583H0.5V18.5417H0V16.625H0.5V14.7083H0V12.7917H0.5V10.875H0V8.95833H0.5V8C0.5 7.66755 0.5216 7.34039 0.563418 7.0198L0.0676182 6.95513C0.159645 6.24962 0.343591 5.57301 0.607044 4.9377L1.06891 5.12922C1.32164 4.51976 1.65255 3.95064 2.04926 3.43439L1.6528 3.12973C2.07869 2.57552 2.57552 2.07869 3.12973 1.6528L3.43439 2.04926C3.95064 1.65255 4.51976 1.32164 5.12922 1.06891L4.9377 0.607044C5.57301 0.343591 6.24962 0.159645 6.95513 0.0676183L7.0198 0.563418C7.34038 0.5216 7.66755 0.5 8 0.5H8.95833V0H10.875V0.5H12.7917V0H14.7083V0.5H16.625V0H18.5417V0.5H20.4583V0H22.375V0.5H24.2917V0H26.2083V0.5H28.125V0H30.0417V0.5H31.9583V0H33.875V0.5H35.7917V0H37.7083V0.5H39.625V0H41.5417V0.5H43.4583V0H45.375V0.5H47.2917V0H49.2083V0.5H51.125V0H53.0417V0.5H54C54.3325 0.5 54.6596 0.5216 54.9802 0.563418L55.0449 0.0676183C55.7504 0.159645 56.427 0.343591 57.0623 0.607044L56.8708 1.06891C57.4802 1.32164 58.0494 1.65255 58.5656 2.04926L58.8703 1.6528C59.4245 2.07869 59.9213 2.57552 60.3472 3.12973L59.9507 3.43439C60.3475 3.95064 60.6784 4.51976 60.9311 5.12922L61.393 4.9377C61.6564 5.57301 61.8404 6.24962 61.9324 6.95513L61.4366 7.0198C61.4784 7.34038 61.5 7.66755 61.5 8V8.95833H62V10.875H61.5V12.7917H62V14.7083H61.5V16.625H62V18.5417H61.5V20.4583H62V22.375H61.5V24.2917H62V26.2083H61.5V28.125H62V30.0417H61.5V31.9583H62V33.875H61.5V35.7917H62V37.7083H61.5V39.625H62V41.5417H61.5V43.4583H62V45.375H61.5V47.2917H62V49.2083H61.5V51.125H62V53.0417H61.5V54C61.5 54.3325 61.4784 54.6596 61.4366 54.9802L61.9324 55.0449C61.8404 55.7504 61.6564 56.427 61.393 57.0623L60.9311 56.8708C60.6784 57.4802 60.3475 58.0494 59.9507 58.5656L60.3472 58.8703C59.9213 59.4245 59.4245 59.9213 58.8703 60.3472L58.5656 59.9507C58.0494 60.3475 57.4802 60.6784 56.8708 60.9311L57.0623 61.393C56.427 61.6564 55.7504 61.8404 55.0449 61.9324L54.9802 61.4366C54.6596 61.4784 54.3325 61.5 54 61.5H53.0417V62H51.125V61.5H49.2083V62H47.2917V61.5H45.375V62H43.4583V61.5H41.5417V62H39.625V61.5H37.7083V62H35.7917V61.5H33.875V62H31.9583V61.5H30.0417V62H28.125V61.5H26.2083V62H24.2917V61.5H22.375V62H20.4583V61.5H18.5417V62H16.625V61.5H14.7083V62H12.7917V61.5H10.875V62H8.95833V61.5H8C7.66755 61.5 7.34039 61.4784 7.0198 61.4366L6.95513 61.9324C6.24962 61.8404 5.57301 61.6564 4.9377 61.393L5.12922 60.9311C4.51976 60.6784 3.95064 60.3475 3.43439 59.9507L3.12973 60.3472C2.57552 59.9213 2.07869 59.4245 1.6528 58.8703L2.04926 58.5656C1.65255 58.0494 1.32164 57.4802 1.06891 56.8708L0.607045 57.0623Z" stroke="#686868" stroke-dasharray="2 2"/>
</svg>
