<?xml version="1.0" encoding="utf-8"?><!-- Uploaded to: SVG Repo, www.svgrepo.com, Generator: SVG Repo Mixer Tools -->
<svg width="800px" height="800px" viewBox="0 0 16 16" xmlns="http://www.w3.org/2000/svg">
<path fill-rule="evenodd" clip-rule="evenodd" d="M14.2454 14C15.3433 12.6304 16 10.8919 16 9C16 4.58172 12.4183 1 8 1C3.58172 1 0 4.58172 0 9C0 10.8919 0.656718 12.6304 1.75463 14H14.2454ZM8 5C8.55229 5 9 4.55228 9 4C9 3.44772 8.55229 3 8 3C7.44772 3 7 3.44772 7 4C7 4.55228 7.44772 5 8 5ZM5.5 5.5C5.5 6.05228 5.05228 6.5 4.5 6.5C3.94772 6.5 3.5 6.05228 3.5 5.5C3.5 4.94772 3.94772 4.5 4.5 4.5C5.05228 4.5 5.5 4.94772 5.5 5.5ZM13 10C13.5523 10 14 9.55229 14 9C14 8.44772 13.5523 8 13 8C12.4477 8 12 8.44772 12 9C12 9.55229 12.4477 10 13 10ZM4 9C4 9.55229 3.55228 10 3 10C2.44772 10 2 9.55229 2 9C2 8.44772 2.44772 8 3 8C3.55228 8 4 8.44772 4 9ZM11.5 6.5C12.0523 6.5 12.5 6.05228 12.5 5.5C12.5 4.94772 12.0523 4.5 11.5 4.5C10.9477 4.5 10.5 4.94772 10.5 5.5C10.5 6.05228 10.9477 6.5 11.5 6.5ZM8.99997 7.99999L8.99985 14L6.99985 14L6.99997 7.99995L8.99997 7.99999Z"/>
</svg>
