<?xml version="1.0" encoding="utf-8"?>

<!DOCTYPE svg PUBLIC "-//W3C//DTD SVG 1.0//EN" "http://www.w3.org/TR/2001/REC-SVG-20010904/DTD/svg10.dtd">
<!-- Uploaded to: SVG Repo, www.svgrepo.com, Generator: SVG Repo Mixer Tools -->
<svg version="1.0" id="Layer_1" xmlns="http://www.w3.org/2000/svg" xmlns:xlink="http://www.w3.org/1999/xlink" 
	 width="800px" height="800px" viewBox="0 0 64 64" enable-background="new 0 0 64 64" xml:space="preserve">
<path  d="M32,0C14.328,0,0,14.328,0,32s14.328,32,32,32s32-14.328,32-32S49.672,0,32,0z M52.812,20.078
	c-2.293,1.973-4.105,3.762-7.457,3.887c-2.562,0.094-4.445,0.105-6.359-1.598c-2.727-2.477-0.859-5.777-0.758-9.504
	C38.273,11.43,38.512,10.18,38.824,9C44.789,10.766,49.773,14.789,52.812,20.078z M9.867,41.289c2.09-2.031,5.508-3.109,7.949-5.816
	c2.492-2.785,2.41-7.836,6.129-7.375c3.039,0.422,2.5,4.23,4.906,6.125c2.836,2.266,6.328,0.824,8.59,3.676
	c2.969,3.77,2.277,8.066,0,12.293c-1.676,3.055-3.836,4.137-6.723,5.742C21.316,55.438,13.34,49.555,9.867,41.289z"/>
</svg>
