<svg xmlns="http://www.w3.org/2000/svg" width="200" height="200" viewBox="0 0 200 200" fill="none">
<path d="M186.22 74.3756C179.396 51.2508 164.041 32.2961 142.811 20.9233C121.58 9.55043 97.3164 6.89677 74.3796 13.7205C51.2533 20.5442 32.2973 35.8975 20.9238 57.1268C9.55016 78.3561 6.89632 102.618 13.7205 125.553C20.5446 148.678 35.899 167.633 57.1297 179.006C70.3989 186.209 85.1846 189.999 99.9702 189.999C108.5 189.999 117.22 188.673 125.75 186.209C148.877 179.385 167.833 164.032 179.206 142.802C190.58 121.762 193.044 97.3109 186.22 74.3756ZM63.0061 108.305C63.9539 107.926 65.0912 108.684 65.4703 109.631V110.011C68.1242 119.298 74.1901 126.88 82.5307 131.429C82.9098 131.619 83.289 131.808 83.6681 131.998C84.6159 132.567 84.995 133.704 84.6159 134.652C84.2368 135.41 83.6681 135.789 82.9098 135.789C82.5307 135.789 82.3412 135.789 81.962 135.599C81.5829 135.41 81.0142 135.22 80.6351 134.841C71.3467 129.723 64.5225 121.194 61.6791 111.148L61.4896 110.769C61.4896 109.631 62.0583 108.494 63.0061 108.305ZM35.1407 99.3959C36.2781 99.3959 37.0363 100.154 37.0363 101.291C37.2259 108.305 38.5528 115.318 41.0171 121.952C45.9457 135.41 55.0445 146.214 67.1764 153.606C68.1242 154.175 68.3137 155.312 67.7451 156.26C67.3659 156.829 66.7972 157.208 66.039 157.208C65.6599 157.208 65.2808 157.208 65.0912 157.018C52.2011 149.247 42.5336 137.684 37.2259 123.468C34.5721 116.455 33.0556 109.063 33.0556 101.481C33.2451 100.344 34.0034 99.3959 35.1407 99.3959ZM68.3137 171.424C67.9346 172.182 67.3659 172.561 66.6077 172.561C66.4181 172.561 66.039 172.561 65.8495 172.372C62.6269 170.855 59.594 169.149 56.561 167.254C40.2589 156.829 28.5061 140.907 23.0089 122.521C22.6298 121.573 23.388 120.436 24.3358 120.057C25.2836 119.677 26.421 120.246 26.8001 121.383C31.9182 138.822 43.2918 153.986 58.6462 164.032C61.4896 165.927 64.333 167.443 67.3659 168.96C68.3137 169.339 68.6928 170.476 68.3137 171.424ZM88.2175 150.005C88.028 150.763 87.2697 151.332 86.3219 151.332C86.1324 151.332 85.9428 151.332 85.7532 151.332C84.8054 151.142 84.0472 150.763 83.0994 150.574C80.0664 149.626 77.0335 148.299 74.1901 146.593C61.8687 139.58 52.7698 128.397 48.7891 114.749C47.6517 110.579 46.8935 106.409 46.7039 102.239C46.7039 101.102 47.4621 100.344 48.5995 100.154C49.5473 100.154 50.4951 100.912 50.6847 102.05C50.8742 106.03 51.4429 109.821 52.5803 113.612C56.1819 126.312 64.5225 136.737 76.0857 143.181C78.7395 144.698 81.5829 145.835 84.4263 146.783C85.1846 146.972 86.1324 147.351 86.8906 147.541C87.8384 147.92 88.5966 148.868 88.2175 150.005ZM111.913 122.331C99.5911 128.965 84.2368 124.227 77.6022 111.906C70.9676 99.5854 75.7066 84.2321 88.028 77.5979C100.349 70.9638 115.704 75.7025 122.338 88.023C128.973 100.344 124.234 115.886 111.913 122.331ZM136.934 91.6244C136.745 91.6244 136.555 91.6244 136.366 91.6244C135.607 91.6244 134.66 91.0558 134.47 90.2976V89.9185C131.816 80.6307 125.75 73.0488 117.41 68.4997C117.031 68.3101 116.652 68.1206 116.083 67.931C115.135 67.3624 114.756 66.2251 115.325 65.2774C115.893 64.3296 117.031 63.9505 117.978 64.5192C118.358 64.7087 118.926 64.8983 119.305 65.2774C128.594 70.3951 135.418 78.9248 138.261 88.9708L138.451 89.3499C138.451 90.2976 137.882 91.4349 136.934 91.6244ZM151.341 99.775C150.204 99.775 149.445 99.0168 149.256 97.8795C149.066 93.899 148.498 90.1081 147.36 86.3171C143.759 73.6174 135.418 63.1923 123.855 56.7477C121.201 55.2313 118.358 54.0941 115.514 53.1463C114.756 52.9568 113.808 52.5777 113.05 52.3881C112.102 52.1986 111.344 51.0613 111.723 50.1136C111.913 49.1658 113.05 48.4076 113.998 48.7867C114.945 48.9763 115.704 49.3554 116.652 49.5449C119.684 50.4927 122.717 51.8195 125.561 53.5254C138.072 60.3491 147.171 71.5324 151.151 85.1798C152.289 89.3499 153.047 93.5199 153.237 97.6899C153.237 98.8272 152.289 99.5854 151.341 99.775ZM164.8 100.533C163.662 100.533 162.904 99.775 162.904 98.6377C162.715 91.6244 161.388 84.6112 158.923 77.977C153.995 64.5192 144.896 53.715 132.764 46.3226C131.816 45.754 131.627 44.6167 132.195 43.669C132.764 42.7212 133.901 42.5317 134.849 43.1003C147.739 50.8718 157.407 62.4341 162.715 76.6502C165.368 83.6634 166.885 91.0558 166.885 98.6377C166.695 99.5854 165.937 100.533 164.8 100.533ZM175.605 79.6829C175.415 79.6829 175.226 79.6829 175.036 79.6829C174.278 79.6829 173.519 79.1143 173.14 78.3561C168.022 60.9178 156.649 45.754 141.294 35.708C138.451 33.8125 135.607 32.2961 132.575 30.7797C131.627 30.4006 131.248 29.2634 131.627 28.1261C132.006 27.1783 133.143 26.7992 134.281 27.1783C137.503 28.6947 140.536 30.4006 143.569 32.2961C159.682 42.7212 171.624 58.6432 176.932 77.0293C177.121 78.3561 176.552 79.4934 175.605 79.6829Z" fill="#B89826"/>
<path d="M101.108 96.3627C99.0224 95.794 96.9372 96.9314 96.3685 99.0165C95.7999 101.102 96.9372 103.187 99.0224 103.756C101.108 104.324 103.193 103.187 103.761 101.102C104.33 99.0165 103.193 96.9314 101.108 96.3627Z" fill="#B89826"/>
</svg>
