<svg width="80" height="80" viewBox="0 0 80 80" fill="none" xmlns="http://www.w3.org/2000/svg">
<g id="Frame 16">
<path id="Union" fill-rule="evenodd" clip-rule="evenodd" d="M28.9959 16.3272C33.8177 14.2608 40.2493 13.0632 47.1808 13.0632C54.1122 13.0632 60.5438 14.2608 65.3656 16.3272C67.7707 17.3579 69.9274 18.6698 71.5308 20.2945C73.1481 21.9333 74.3571 24.0654 74.3571 26.5926V40.2395C74.3571 43.3603 72.5355 45.847 70.3289 47.6193C68.103 49.407 65.1137 50.7965 61.7727 51.7949C61.424 51.8995 61.0697 52.0002 60.71 52.0971V53.8866C60.71 57.0082 58.8867 59.495 56.6803 61.2666C54.4538 63.0544 51.4641 64.444 48.1242 65.4424L48.1242 65.4424C43.9117 66.7017 38.885 67.416 33.5337 67.416C28.1854 67.416 23.1583 66.7059 18.9432 65.4424C15.6033 64.444 12.6137 63.0544 10.3871 61.2666C8.1808 59.495 6.35742 57.0082 6.35742 53.8866V40.2396C6.35742 36.5765 8.84149 33.8055 11.6263 31.9553C13.8943 30.4484 16.776 29.2499 20.0044 28.3824V26.5926C20.0044 24.0654 21.2134 21.9333 22.8307 20.2945C24.4341 18.6698 26.5909 17.3579 28.9959 16.3272ZM20.0044 35.2548C18.067 35.8941 16.4713 36.646 15.2722 37.4427C13.2507 38.7858 12.9456 39.819 12.9456 40.2396C12.9456 40.598 13.1471 41.3865 14.512 42.4825C15.8567 43.5623 17.9847 44.6326 20.8303 45.4833L20.8328 45.484C21.281 45.6184 21.743 45.746 22.2181 45.8665C20.9105 44.3251 20.0044 42.4401 20.0044 40.2395V35.2548ZM40.3629 53.3703C38.18 53.6319 35.891 53.769 33.5337 53.769C28.1849 53.769 23.1573 53.0588 18.942 51.7951C16.7542 51.1409 14.7167 50.319 12.9456 49.3272V53.8866C12.9456 54.245 13.1471 55.0335 14.512 56.1295C15.8567 57.2092 17.9847 58.2795 20.8303 59.1302L20.8328 59.131C24.3551 60.1871 28.7366 60.8277 33.5337 60.8277C38.329 60.8277 42.7118 60.1841 46.2372 59.1302C49.0828 58.2795 51.2107 57.2092 52.5554 56.1295C53.9204 55.0335 54.1218 54.245 54.1218 53.8866V53.3566C51.9017 53.6268 49.5734 53.7689 47.1808 53.7689C44.8318 53.7689 42.5454 53.6313 40.3629 53.3703ZM26.5927 35.6802V40.2395C26.5927 40.5979 26.7941 41.3864 28.1591 42.4824C29.5038 43.5622 31.6317 44.6325 34.4773 45.4832C38.0027 46.537 42.3855 47.1807 47.1808 47.1807C51.9779 47.1807 56.3594 46.54 59.8817 45.4839L59.8847 45.483C62.7319 44.6323 64.8595 43.5621 66.2035 42.4826C67.5672 41.3873 67.7689 40.5988 67.7689 40.2395V35.681C65.9981 36.6724 63.9608 37.494 61.7727 38.1479C57.5574 39.4117 52.5297 40.1219 47.1808 40.1219C41.8295 40.1219 36.8028 39.4077 32.5903 38.1484L32.5903 38.1484C30.402 37.4942 28.3641 36.6721 26.5927 35.6802Z" fill="#B89826"/>
</g>
</svg>
