<?xml version="1.0" encoding="utf-8"?>
<!-- Uploaded to: SVG Repo, www.svgrepo.com, Generator: SVG Repo Mixer Tools -->
<svg width="800px" height="800px" viewBox="0 0 32 32" fill="none" xmlns="http://www.w3.org/2000/svg">
<g clip-path="url(#clip0_901_2818)">
<path d="M21 13C21 11.9 20.1 11 19 11C18.57 11 18.18 11.13 17.85 11.36C17.28 11.13 16.66 11 16 11C13.24 11 11 13.24 11 16C11 18.76 13.24 21 16 21C18.76 21 21 18.76 21 16C21 15.34 20.87 14.72 20.64 14.15C20.86 13.82 21 13.43 21 13ZM22.8 2.64C25.56 4.04 27.82 6.28 29.28 9.02C29.19 9.01 29.1 9 29 9C27.9 9 27 9.9 27 11C27 12.1 27.9 13 29 13C29.61 13 30.16 12.72 30.52 12.29C30.82 13.48 31 14.72 31 16C31 24.28 24.28 31 16 31C7.72 31 1 24.28 1 16C1 7.72 7.72 1 16 1C18.44 1 20.76 1.59 22.8 2.64Z" fill="#FFC44D"/>
<path d="M29.2798 9.02C30.2498 9.16 30.9998 10 30.9998 11C30.9998 11.49 30.8198 11.94 30.5198 12.29C30.1598 12.72 29.6098 13 28.9998 13C27.8998 13 26.9998 12.1 26.9998 11C26.9998 9.9 27.8998 9 28.9998 9C29.0998 9 29.1898 9.01 29.2798 9.02ZM19 11C20.1 11 21 11.9 21 13C21 13.43 20.86 13.82 20.64 14.15C20.27 14.66 19.67 15 19 15C17.9 15 17 14.1 17 13C17 12.33 17.34 11.73 17.85 11.36C18.18 11.13 18.57 11 19 11Z" fill="#FFE6EA"/>
<path d="M18.0078 1.13276C17.3508 1.04476 16.6808 0.999756 15.9998 0.999756C7.71582 0.999756 0.999817 7.71576 0.999817 15.9998C0.999817 24.2838 7.71582 30.9998 15.9998 30.9998C24.2838 30.9998 30.9998 24.2838 30.9998 15.9998M31 11V0.999956L21 2.99996V13M31 11C31 9.89596 30.104 8.99996 29 8.99996C27.896 8.99996 27 9.89596 27 11C27 12.104 27.896 13 29 13C30.104 13 31 12.104 31 11ZM21 13C21 11.896 20.104 11 19 11C17.896 11 17 11.896 17 13C17 14.104 17.896 15 19 15C20.104 15 21 14.104 21 13ZM14.0537 11.3936C12.2597 12.1526 10.9997 13.9286 10.9997 15.9996C10.9997 18.7616 13.2387 20.9996 15.9997 20.9996C18.0367 20.9996 19.7897 19.7816 20.5687 18.0336M8.00002 7.99996L10 9.99996M24 24L22 22" stroke="#000000" stroke-width="2" stroke-linecap="round" stroke-linejoin="round"/>
</g>
<defs>
<clipPath id="clip0_901_2818">
<rect width="32" height="32" fill="white"/>
</clipPath>
</defs>
</svg>