<svg width="18" height="23" viewBox="0 0 18 23" fill="none" xmlns="http://www.w3.org/2000/svg">
<g id="Group 10">
<g id="Group">
<path id="Vector" d="M15.6515 0.887268H2.39678C1.4882 0.887268 0.750244 1.57664 0.750244 2.42541V20.6016C0.750244 21.4503 1.4882 22.1397 2.39678 22.1397H15.6515C16.5601 22.1397 17.298 21.4503 17.298 20.6016V2.42541C17.298 1.57664 16.5601 0.887268 15.6515 0.887268ZM15.7169 20.6016C15.7169 20.6335 15.6885 20.66 15.6515 20.66H2.39678C2.36265 20.66 2.33421 20.6335 2.33421 20.6016V2.42541C2.33421 2.39354 2.36265 2.36564 2.39678 2.36564H15.6515C15.6885 2.36564 15.7169 2.39354 15.7169 2.42541V20.6016Z" fill="#FFE500"/>
</g>
<g id="Group_2">
<path id="Vector_2" d="M9.02359 13.6813C8.8487 13.8994 8.65703 14.1009 8.4493 14.2849L8.44873 14.2853L8.44916 14.2857C8.65689 14.4696 8.84856 14.6711 9.02345 14.8894C9.19834 14.6713 9.39001 14.4698 9.59775 14.2858L9.59832 14.2854L9.59789 14.285C9.39015 14.101 9.19849 13.8994 9.02359 13.6813Z" fill="#FFE500"/>
<path id="Vector_3" d="M13.6634 7.45036C13.0848 7.45036 12.6153 7.8875 12.6153 8.42943C12.6153 8.62217 12.6754 8.80135 12.7794 8.95317L10.9089 13.3176L9.51789 8.72258C10.046 8.53742 10.4213 8.0607 10.4213 7.50203C10.4213 6.7825 9.79572 6.19806 9.02378 6.19806C8.25185 6.19806 7.62622 6.7825 7.62622 7.50203C7.62622 8.07438 8.02108 8.5616 8.57035 8.73613L7.16795 13.3054L5.28624 8.9274C5.37881 8.78169 5.43255 8.61008 5.43255 8.42943C5.43255 7.8875 4.96291 7.45036 4.38449 7.45036C3.80607 7.45036 3.33643 7.88763 3.33643 8.42957C3.33643 8.97004 3.80607 9.40718 4.38449 9.40718H4.42516L6.24032 16.8167L11.8368 16.8288L13.6568 9.40718H13.6634C14.2419 9.40718 14.7114 8.97004 14.7114 8.42957C14.7114 7.88763 14.2418 7.45036 13.6634 7.45036ZM10.1566 14.8372C9.67401 15.2653 9.29536 15.8027 9.02393 16.4479C8.75249 15.8027 8.37399 15.2653 7.8897 14.8372C7.62807 14.6049 7.35664 14.4258 7.09018 14.2861C7.35664 14.1449 7.62807 13.9658 7.8897 13.7335C8.37399 13.3054 8.75263 12.768 9.02393 12.1228C9.29536 12.768 9.67387 13.3054 10.1566 13.7335C10.4182 13.9658 10.6912 14.1449 10.9577 14.2846C10.6912 14.4242 10.4182 14.6049 10.1566 14.8372Z" fill="#FFE500"/>
</g>
</g>
</svg>
