<svg xmlns="http://www.w3.org/2000/svg" width="18" height="24" viewBox="0 0 18 24" fill="none">
<path d="M15.6515 0.919922H2.39678C1.4882 0.919922 0.750244 1.65788 0.750244 2.56645V22.0234C0.750244 22.932 1.4882 23.6699 2.39678 23.6699H15.6515C16.5601 23.6699 17.298 22.932 17.298 22.0234V2.56645C17.298 1.65788 16.5601 0.919922 15.6515 0.919922ZM15.7169 22.0234C15.7169 22.0575 15.6885 22.086 15.6515 22.086H2.39678C2.36265 22.086 2.33421 22.0575 2.33421 22.0234V2.56645C2.33421 2.53233 2.36265 2.50247 2.39678 2.50247H15.6515C15.6885 2.50247 15.7169 2.53233 15.7169 2.56645V22.0234Z" fill="#686868"/>
<path d="M9.02372 14.6157C8.84883 14.8492 8.65716 15.0649 8.44942 15.2618L8.44885 15.2622L8.44928 15.2627C8.65701 15.4596 8.84868 15.6753 9.02357 15.9089C9.19847 15.6754 9.39013 15.4597 9.59787 15.2628L9.59844 15.2624L9.59801 15.262C9.39028 15.065 9.19861 14.8492 9.02372 14.6157Z" fill="#686868"/>
<path d="M13.6635 7.94552C13.0849 7.94552 12.6154 8.41346 12.6154 8.99359C12.6154 9.1999 12.6756 9.39171 12.7795 9.55423L10.909 14.2262L9.51801 9.3074C10.0461 9.10919 10.4215 8.59888 10.4215 8.00083C10.4215 7.23061 9.79584 6.60498 9.02391 6.60498C8.25197 6.60498 7.62634 7.23061 7.62634 8.00083C7.62634 8.61352 8.0212 9.13507 8.57047 9.3219L7.16807 14.2131L5.28637 9.52665C5.37893 9.37067 5.43268 9.18696 5.43268 8.99359C5.43268 8.41346 4.96303 7.94552 4.38461 7.94552C3.80619 7.94552 3.33655 8.41361 3.33655 8.99373C3.33655 9.57229 3.80619 10.0402 4.38461 10.0402H4.42528L6.24044 17.9719L11.8369 17.9848L13.6569 10.0402H13.6635C14.242 10.0402 14.7115 9.57229 14.7115 8.99373C14.7115 8.41361 14.2419 7.94552 13.6635 7.94552ZM10.1567 15.8529C9.67413 16.3111 9.29548 16.8864 9.02405 17.577C8.75261 16.8864 8.37411 16.3111 7.88982 15.8529C7.62819 15.6042 7.35676 15.4125 7.0903 15.2629C7.35676 15.1118 7.62819 14.9201 7.88982 14.6714C8.37411 14.2131 8.75275 13.6379 9.02405 12.9473C9.29548 13.6379 9.67399 14.2131 10.1567 14.6714C10.4183 14.9201 10.6913 15.1118 10.9578 15.2614C10.6913 15.4108 10.4183 15.6042 10.1567 15.8529Z" fill="#686868"/>
</svg>
