<svg xmlns="http://www.w3.org/2000/svg" width="80" height="81" viewBox="0 0 80 81" fill="none">
<path d="M74.6029 32.3918C71.6318 32.3918 69.2231 34.793 69.2075 37.7603C62.8165 37.609 56.548 39.5663 50.7342 42.5982L41.7293 16.0051C43.8604 15.2836 45.3962 13.2716 45.3962 10.8968C45.3962 7.91619 42.98 5.5 39.9994 5.5C37.0188 5.5 34.6026 7.91619 34.6026 10.8968C34.6026 13.2716 36.1385 15.2836 38.2695 16.0051L29.2539 42.6304C23.4434 39.6015 17.1793 37.647 10.7925 37.7981C10.7925 37.7947 10.793 37.7917 10.793 37.7883C10.793 34.8077 8.37685 32.3915 5.39624 32.3915C2.41564 32.3915 0 34.808 0 37.7886C0 40.7692 2.41619 43.1854 5.3968 43.1854C7.15168 43.1854 8.70612 42.3439 9.69197 41.0469C13.5016 44.3387 18.5971 51.5345 19.4953 66.7313C17.2595 66.8046 15.4683 68.6353 15.4683 70.8888C15.4683 73.1886 17.3328 75.0532 19.6327 75.0532H60.3673C62.6672 75.0532 64.5317 73.1886 64.5317 70.8888C64.5317 68.6344 62.7393 66.8032 60.5025 66.7313C61.3931 51.5315 66.4798 44.3254 70.2908 41.0241C71.2756 42.3345 72.8378 43.1857 74.6032 43.1857C77.5838 43.1857 80 40.7695 80 37.7889C79.9997 34.808 77.5835 32.3918 74.6029 32.3918Z" fill="#B89826"/>
</svg>
