<svg width="80" height="80" viewBox="0 0 80 80" fill="none" xmlns="http://www.w3.org/2000/svg">
<g id="Frame 16">
<path id="Union" fill-rule="evenodd" clip-rule="evenodd" d="M69.5862 1C74.831 1 79 5.16897 79 10.4138C79 15.6586 74.831 19.8276 69.7207 19.6931H68.7793C69.3172 21.8448 69.7207 24.131 69.7207 26.5517V33.2759C71.3345 34.4862 72.4103 36.5034 72.4103 38.6552V41.3448C72.4103 45.1103 69.4517 48.069 65.6862 48.069H64.3414C64.3414 53.1793 61.1138 57.6172 56.5414 59.3655C63.4 62.5931 68.2414 69.5862 68.2414 77.6552C68.2414 78.4621 67.7034 79 66.8965 79H13.1034C12.2966 79 11.7586 78.4621 11.7586 77.6552C11.7586 69.5862 16.6 62.5931 23.5931 59.3655C19.0207 57.6172 15.7931 53.1793 15.7931 48.069H14.4483C10.6828 48.069 7.72414 45.1103 7.72414 41.3448V38.6552C7.72414 36.369 8.8 34.4862 10.4138 33.2759V26.5517C10.4138 24.2655 10.6828 21.9793 11.3552 19.8276H10.4138C5.16897 19.8276 1 15.6586 1 10.4138C1 5.16897 5.16897 1 10.4138 1C14.4483 1 17.9448 3.55517 19.2897 7.32069C23.7276 3.42069 29.5103 1 35.9655 1H44.0345C50.3552 1 56.2724 3.42069 60.7103 7.32069C62.0552 3.55517 65.5517 1 69.5862 1ZM9.47241 17.0034C9.74138 17.1379 10.0103 17.1379 10.4138 17.1379C11.0862 17.1379 11.7586 17.0034 12.431 16.869C13.5069 14.1793 15.1207 11.6241 17.1379 9.47241C17.0034 8.53103 16.6 7.72414 16.1966 6.91724L9.47241 17.0034ZM10.4138 41.3448C10.4138 43.631 12.1621 45.3793 14.4483 45.3793H15.7931V34.6207H14.4483C12.1621 34.6207 10.4138 36.369 10.4138 38.6552V41.3448ZM40 65.5517C43.9 65.5517 47.1276 63.2655 47.9345 60.1724H32.0655C32.8724 63.2655 36.1 65.5517 40 65.5517ZM52.1034 57.4828C57.3483 57.4828 61.5172 53.3138 61.5172 48.069V46.7241V33.2759V30.5862C57.0793 30.5862 44.169 29.7793 40 24.8034C35.831 29.7793 22.9207 30.4517 18.4828 30.5862V33.2759V46.7241V48.069C18.4828 53.3138 22.6517 57.4828 27.8966 57.4828H31.931H48.069H52.1034ZM65.5517 45.3793C67.8379 45.3793 69.5862 43.631 69.5862 41.3448V38.6552C69.5862 36.369 67.8379 34.6207 65.5517 34.6207H64.2069V45.3793H65.5517ZM63.9379 6.91724C63.4 7.72414 63.131 8.53103 62.9965 9.47241C64.8793 11.6241 66.4931 14.0448 67.7034 16.869C68.2414 17.0034 68.9138 17.1379 69.5862 17.1379C69.9897 17.1379 70.2586 17.1379 70.6621 17.0034L63.9379 6.91724ZM31.9303 34.6206C31.9303 33.8137 32.4682 33.2758 33.2751 33.2758C34.082 33.2758 34.6199 33.8137 34.6199 34.6206C34.6199 37.5792 32.1993 39.9999 29.2406 39.9999C26.282 39.9999 23.8613 37.5792 23.8613 34.6206C23.8613 33.8137 24.3993 33.2758 25.2062 33.2758C26.0131 33.2758 26.551 33.8137 26.551 34.6206C26.551 36.0999 27.7613 37.3102 29.2406 37.3102C30.7199 37.3102 31.9303 36.0999 31.9303 34.6206ZM54.7937 33.2758C53.9868 33.2758 53.4488 33.8137 53.4488 34.6206C53.4488 36.0999 52.2385 37.3102 50.7592 37.3102C49.2799 37.3102 48.0695 36.0999 48.0695 34.6206C48.0695 33.8137 47.5316 33.2758 46.7247 33.2758C45.9178 33.2758 45.3799 33.8137 45.3799 34.6206C45.3799 37.5792 47.8006 39.9999 50.7592 39.9999C53.7178 39.9999 56.1385 37.5792 56.1385 34.6206C56.1385 33.8137 55.6006 33.2758 54.7937 33.2758ZM33.4094 50.3553C34.3508 47.3966 37.0405 45.3794 39.9991 45.3794C42.9577 45.3794 45.6474 47.3966 46.7232 50.3553C46.9922 51.1622 46.5888 51.8346 45.9163 52.1035C45.1094 52.3725 44.437 51.9691 44.1681 51.2966C43.4957 49.4139 41.8819 48.2035 39.9991 48.2035C38.1163 48.2035 36.5025 49.4139 35.8301 51.2966C35.6956 51.8346 35.1577 52.238 34.6198 52.238C34.5525 52.238 34.4853 52.2044 34.4181 52.1708C34.3508 52.1372 34.2836 52.1035 34.2163 52.1035C33.5439 51.8346 33.1405 51.0277 33.4094 50.3553Z" fill="white"/>
</g>
</svg>
