<svg xmlns="http://www.w3.org/2000/svg" width="48" height="48" viewBox="0 0 48 48" fill="none">
<path fill-rule="evenodd" clip-rule="evenodd" d="M41.962 3.05881C37.7707 -1.13248 31.2154 -0.898519 27.0816 3.03838C25.5152 4.53025 24.7201 6.25233 24.5605 8.03087C20.363 12.4245 16.3069 17.3619 13.108 21.8755C9.89217 26.4128 7.44237 30.6596 6.67753 33.5278C6.5672 33.9415 6.6857 34.3827 6.98848 34.6855L7.81312 35.5101L5.5813 37.7419C3.17605 40.1472 3.17605 43.9 5.5813 46.3052C5.59476 46.3187 5.60854 46.3318 5.62262 46.3446C8.01103 48.5159 11.4953 48.5125 13.8799 46.5615C13.8896 46.5535 13.8992 46.5454 13.9087 46.5371L29.0414 33.34C31.8734 30.9627 36.3539 31.4282 38.5684 34.3809C38.9661 34.9111 39.7183 35.0185 40.2484 34.6209C40.7786 34.2233 40.8861 33.4711 40.4884 32.9409C37.4233 28.854 31.3464 28.2613 27.4879 31.5106L27.4721 31.5241L12.3464 44.7151C10.8654 45.9162 8.73774 45.9145 7.25827 44.5879C5.81039 43.1197 5.81709 40.9003 7.27835 39.439L9.51017 37.2072L9.98144 37.6785C10.2747 37.9717 10.6987 38.0928 11.1026 37.9985C13.999 37.3227 18.2644 34.8555 22.7946 31.6227C27.2379 28.4521 32.0892 24.432 36.4271 20.3057C38.3084 20.2145 40.1494 19.4206 41.7859 17.784C45.9213 13.6487 46.1577 7.25453 41.962 3.05881ZM35.1645 17.8415C36.7173 18.092 38.2985 17.7229 39.7987 16.3635C37.2114 15.9398 34.7391 14.3707 32.6947 12.3263C30.5653 10.1969 28.9516 7.60333 28.6107 4.89918C27.1545 6.35246 26.7422 7.9781 27.0035 9.61614C27.2821 11.3618 28.3476 13.2121 29.9901 14.8546C31.6402 16.5047 33.4474 17.5645 35.1645 17.8415Z" fill="#B89826"/>
</svg>
