<svg xmlns="http://www.w3.org/2000/svg" width="153" height="153" viewBox="0 0 153 153" fill="none">
<path fill-rule="evenodd" clip-rule="evenodd" d="M87.4288 6.89153C89.4433 7.57946 89.5792 12.5059 89.386 16.1919C91.6637 16.6762 93.8949 17.2863 96.072 18.0145L96.4951 12.4792L103.552 10.7678L107.36 16.9509L103.762 21.1827C105.85 22.2137 107.872 23.3594 109.818 24.6116C112.277 21.858 115.845 18.4525 117.76 19.3831C118.965 19.9678 119.216 22.1253 119.072 24.5501C123.523 22.2762 128.579 20.3901 130.484 22.2969C132.388 24.2028 130.526 29.2618 128.273 33.7179C130.699 33.5636 132.859 33.8053 133.449 35.0078C134.387 36.9192 130.996 40.5015 128.252 42.9715C129.507 44.9046 130.657 46.9125 131.693 48.9871L135.909 45.3689L142.109 49.1495L140.43 56.2142L134.896 56.6619C135.637 58.8451 136.26 61.0833 136.755 63.3687C140.441 63.1606 145.368 63.2765 146.064 65.2881C146.502 66.5532 145.154 68.2563 143.337 69.8687C148.092 71.4075 153 73.6488 153 76.3437C152.999 79.0381 148.105 81.2987 143.361 82.8567C145.185 84.4624 146.542 86.1606 146.109 87.4282C145.421 89.4428 140.494 89.5787 136.808 89.3855C136.324 91.6635 135.714 93.8949 134.985 96.0723L140.521 96.4953L142.232 103.552L136.049 107.36L131.817 103.763C130.786 105.851 129.641 107.872 128.389 109.818C131.142 112.276 134.548 115.845 133.617 117.76C133.032 118.965 130.875 119.216 128.45 119.072C130.724 123.523 132.61 128.579 130.704 130.484C128.798 132.388 123.739 130.526 119.283 128.273C119.437 130.699 119.195 132.859 117.993 133.449C116.081 134.387 112.499 130.996 110.029 128.252C108.096 129.507 106.088 130.657 104.013 131.693L107.631 135.909L103.851 142.109L96.7867 140.429L96.3384 134.896C94.1553 135.637 91.9171 136.26 89.6317 136.755C89.8398 140.441 89.7238 145.368 87.7123 146.064C86.4472 146.502 84.7441 145.153 83.1317 143.337C81.5927 148.093 79.3511 153.001 76.6558 153C73.9614 152.999 71.7008 148.105 70.1429 143.361C68.5371 145.185 66.839 146.541 65.5713 146.108C63.5568 145.42 63.4209 140.494 63.6141 136.808C61.3362 136.324 59.1048 135.714 56.9275 134.985L56.5044 140.521L49.448 142.232L45.6393 136.049L49.2372 131.817C47.1493 130.786 45.1281 129.64 43.182 128.388C40.7232 131.142 37.1548 134.547 35.2393 133.617C34.0352 133.031 33.7837 130.875 33.928 128.45C29.4769 130.724 24.4212 132.61 22.5161 130.703C20.6117 128.797 22.474 123.738 24.7264 119.282C22.3008 119.436 20.1408 119.195 19.5511 117.992C18.6124 116.081 22.0039 112.498 24.7477 110.028C23.4929 108.095 22.3434 106.088 21.3074 104.014L17.092 107.631L10.8916 103.85L12.5708 96.7865L18.1042 96.3382C17.3628 94.155 16.7403 91.9168 16.2446 89.6314C12.5594 89.8395 7.63213 89.7236 6.93606 87.712C6.49813 86.4469 7.84658 84.7438 9.66265 83.1314C4.9072 81.5925 -0.000824532 79.3508 1.03901e-07 76.6556C0.000824948 73.9611 4.89483 71.7013 9.63874 70.1426C7.81524 68.5368 6.45854 66.8387 6.89153 65.5711C7.57946 63.5565 12.506 63.4206 16.1919 63.6138C16.6763 61.3361 17.2863 59.1049 18.0146 56.9278L12.4792 56.5047L10.7678 49.4482L16.9509 45.6396L21.1828 49.2374C22.2137 47.1495 23.3594 45.1283 24.6116 43.1822C21.858 40.7234 18.4525 37.155 19.3831 35.2396C19.9686 34.0355 22.1253 33.7839 24.5501 33.9283C22.2762 29.4772 20.3901 24.4215 22.2969 22.5164C24.2028 20.612 29.2618 22.4743 33.7179 24.7267C33.5636 22.3011 33.8053 20.1411 35.0078 19.5514C36.9192 18.6127 40.5015 22.0041 42.9715 24.7479C44.9045 23.4929 46.9123 22.3433 48.9867 21.3073L45.3695 17.092L49.1501 10.8916L56.2148 12.5708L56.6625 18.104C58.8454 17.3627 61.0833 16.7403 63.3684 16.2447C63.1603 12.5594 63.2763 7.63213 65.2878 6.93606C66.5529 6.49813 68.256 7.84658 69.8684 9.66265C71.4074 4.9072 73.649 -0.000824532 76.3443 1.03901e-07C79.0387 0.000824948 81.2993 4.89483 82.8572 9.63874C84.463 7.81524 86.1611 6.45854 87.4288 6.89153ZM76.5 133.59C108.03 133.59 133.59 108.03 133.59 76.5C133.59 44.9703 108.03 19.4104 76.5 19.4104C44.9703 19.4104 19.4104 44.9703 19.4104 76.5C19.4104 108.03 44.9703 133.59 76.5 133.59Z" fill="white"/>
</svg>
