<svg xmlns="http://www.w3.org/2000/svg" width="48" height="48" viewBox="0 0 48 48" fill="none">
<path fill-rule="evenodd" clip-rule="evenodd" d="M38.4683 6.54895C34.9756 3.05621 29.5128 3.25117 26.068 6.53192C24.7625 7.77525 24.0999 9.21047 23.9671 10.6927C20.4692 14.354 17.0893 18.4683 14.4236 22.2295C11.7438 26.0106 9.7023 29.5496 9.06493 31.9398C8.97298 32.2845 9.07173 32.6522 9.32405 32.9045L10.0109 33.5913L8.15058 35.4516C6.1462 37.456 6.1462 40.5833 8.15058 42.5877C8.1618 42.5989 8.17327 42.6098 8.18501 42.6205C10.1754 44.4299 13.0789 44.4271 15.066 42.8012C15.0742 42.7946 15.0822 42.7878 15.0901 42.7809L27.7006 31.7834C30.0607 29.8023 33.7944 30.1902 35.6399 32.6507C35.9713 33.0926 36.5981 33.1821 37.0399 32.8507C37.4817 32.5194 37.5713 31.8926 37.2399 31.4507C34.6856 28.045 29.6215 27.5511 26.4061 30.2588L26.3929 30.2701L13.7882 41.2626C12.554 42.2635 10.7809 42.2621 9.54806 41.1566C8.34149 39.9331 8.34707 38.0836 9.56479 36.8658L11.4251 35.0056L11.8182 35.3987C12.0626 35.6431 12.4159 35.7439 12.7525 35.6654C15.1661 35.1022 18.7207 33.0462 22.4958 30.3522C26.1985 27.71 30.2414 24.3599 33.8562 20.9213C35.4239 20.8453 36.9579 20.1837 38.3216 18.82C41.7677 15.3739 41.9647 10.0454 38.4683 6.54895ZM11.818 32.5701C11.9597 32.6177 12.0928 32.6979 12.2056 32.8108C12.3185 32.9236 12.3987 33.0567 12.4464 33.1984L12.8214 33.5735C14.8342 32.9425 17.8687 31.1971 21.3341 28.7242C24.5673 26.4171 28.0788 23.5478 31.3216 20.5554C29.776 20.0432 28.3274 19.0429 27.0776 17.793C25.7711 16.4865 24.7428 14.9431 24.2535 13.3097C21.2399 16.5757 18.3688 20.1218 16.0554 23.386C13.6078 26.8394 11.854 29.8815 11.1625 31.9145L11.818 32.5701ZM33.2148 18.9164C33.409 18.8576 33.6173 18.8593 33.8103 18.9209C34.7744 18.8625 35.7385 18.4763 36.6654 17.6363C34.5093 17.2833 32.4489 15.9757 30.7451 14.2719C28.9707 12.4975 27.626 10.3363 27.3418 8.08302C26.1287 9.29397 25.7851 10.6485 26.0029 12.0134C26.2351 13.4681 27.123 15.01 28.4918 16.3788C29.8668 17.7538 31.3728 18.6371 32.8038 18.8679C32.9406 18.8899 33.0776 18.9062 33.2148 18.9164ZM37.0541 7.96317C34.9414 5.85043 31.8569 5.47164 29.3152 6.68876C29.0997 8.64711 30.1582 10.8565 32.1593 12.8577C34.1098 14.8082 36.2581 15.8631 38.179 15.7158C39.5588 13.1849 39.2089 10.118 37.0541 7.96317ZM24.6759 20.3401C24.2853 19.9495 23.6522 19.9495 23.2616 20.3401L21.9412 21.6605C21.5507 22.051 21.5507 22.6842 21.9412 23.0747C22.3317 23.4652 22.9649 23.4652 23.3554 23.0747L24.6759 21.7543C25.0664 21.3638 25.0664 20.7306 24.6759 20.3401Z" fill="#1A0E38"/>
</svg>
