<svg width="57" height="57" viewBox="0 0 57 57" fill="none" xmlns="http://www.w3.org/2000/svg">
<path d="M24.588 4.94733C26.5847 2.42214 30.4152 2.42214 32.412 4.94733C33.7244 6.60705 35.9412 7.25798 37.9426 6.57126C40.9875 5.52645 44.21 7.59737 44.5245 10.8012C44.7312 12.907 46.2442 14.6531 48.2992 15.1574C51.4256 15.9247 53.0169 19.409 51.5494 22.2743C50.5848 24.1576 50.9136 26.4445 52.3697 27.9797C54.585 30.3155 54.0399 34.107 51.2562 35.7241C49.4266 36.7869 48.4668 38.8885 48.8617 40.9672C49.4626 44.1299 46.9541 47.0248 43.7381 46.8802C41.6244 46.7851 39.6807 48.0343 38.8891 49.9965C37.6847 52.9819 34.0093 54.0611 31.382 52.2008C29.6552 50.978 27.3448 50.978 25.618 52.2007C22.9907 54.0611 19.3153 52.9819 18.1109 49.9965C17.3193 48.0343 15.3756 46.7851 13.2619 46.8802C10.0459 47.0248 7.53745 44.1299 8.13828 40.9672C8.53319 38.8885 7.5734 36.7869 5.7438 35.7241C2.96015 34.107 2.41501 30.3155 4.63033 27.9797C6.08639 26.4445 6.4152 24.1576 5.45065 22.2743C3.98313 19.409 5.57437 15.9247 8.70084 15.1574C10.7558 14.6531 12.2688 12.907 12.4755 10.8012C12.79 7.59737 16.0125 5.52645 19.0574 6.57126C21.0588 7.25798 23.2756 6.60705 24.588 4.94733Z" fill="#FFE500"/>
<path d="M22.0768 35H18.6912L15.5488 29.722C15.1147 28.9755 14.8196 28.2463 14.7154 27.8643H14.6807C14.8196 28.8366 14.9411 30.3297 14.9411 31.9096V35H11.8334V23.2809H15.4446L18.3614 28.1769C18.7954 28.9234 19.0732 29.6526 19.1947 30.0346H19.2294C19.1079 29.0623 18.969 27.5692 18.969 25.9893V23.2809H22.0768V35ZM31.9302 35H24.7251V23.2809H31.9302V26.024H27.9544V27.6734H31.5656V30.3123H27.9544V32.2048H31.9302V35ZM44.0534 23.2809V30.3471C44.0534 33.75 42.0916 35.2431 38.9491 35.2431C35.1816 35.2431 34.192 33.2465 34.192 30.7637V23.2809H37.4213V30.6075C37.4213 31.8575 37.8032 32.5346 39.1401 32.5346C40.4422 32.5346 40.8589 31.9791 40.8589 30.5207V23.2809H44.0534Z" fill="#1A0E38"/>
</svg>
