<?xml version="1.0" encoding="utf-8"?>

<!-- Uploaded to: SVG Repo, www.svgrepo.com, Generator: SVG Repo Mixer Tools -->
<svg height="800px" width="800px" version="1.1" id="Icons" xmlns="http://www.w3.org/2000/svg" xmlns:xlink="http://www.w3.org/1999/xlink" 
	 viewBox="0 0 32 32" xml:space="preserve">
<path d="M28,14h-5V6c0-0.6-0.4-1-1-1H4C3.4,5,3,5.4,3,6v18c0,2.2,1.8,4,4,4h17c0.1,0,0.2,0,0.3-0.1c0.2,0,0.4,0.1,0.7,0.1
	c2.2,0,4-1.8,4-4v-9C29,14.4,28.6,14,28,14z M10,16H8c-0.6,0-1-0.4-1-1s0.4-1,1-1h2c0.6,0,1,0.4,1,1S10.6,16,10,16z M14,12H8
	c-0.6,0-1-0.4-1-1s0.4-1,1-1h6c0.6,0,1,0.4,1,1S14.6,12,14,12z M27,24c0,1.1-0.9,2-2,2c-0.2,0-0.4,0-0.6-0.1c0,0,0,0,0,0
	c-0.6-0.2-1-0.7-1.2-1.2c0,0,0-0.1,0-0.1C23,24.4,23,24.2,23,24v-8h4V24z"/>
</svg>
