<svg aria-label="Audio abspielen" role="img" viewBox="0 0 24 24" xmlns="http://www.w3.org/2000/svg" class="MediaControlButton_playButtonIcon__O3rE_"><title>Audio abspielen</title><path d="M6.73274 21C6.4449 20.9995 6.16215 20.9251 5.91231 20.7843C5.34974 20.4701 5 19.8604 5 19.1984V5.8017C5 5.13788 5.34974 4.52994 5.91231 4.21581C6.1681 4.07096 6.45868 3.99647 6.75368 4.00013C7.04867 4.00379 7.33726 4.08546 7.58927 4.2366L19.2089 11.0902C19.451 11.2398 19.6506 11.4476 19.789 11.694C19.9274 11.9404 20 12.2175 20 12.4991C20 12.7808 19.9274 13.0578 19.789 13.3042C19.6506 13.5507 19.451 13.7585 19.2089 13.9081L7.58739 20.7635C7.32949 20.9171 7.0341 20.9989 6.73274 21Z"></path> </svg>
