<svg width="24" height="23" viewBox="0 0 24 23" fill="none" xmlns="http://www.w3.org/2000/svg">
<g id="help-question-1--circle-faq-frame-help-info-mark-more-query-question">
<path id="Subtract" fill-rule="evenodd" clip-rule="evenodd" d="M24.0002 11.6302C24.0002 17.8214 18.6277 22.8403 12.0002 22.8403C5.37283 22.8403 0.000244141 17.8214 0.000244141 11.6302C0.000244141 5.4391 5.37283 0.420166 12.0002 0.420166C18.6277 0.420166 24.0002 5.4391 24.0002 11.6302ZM9.85739 8.82773C9.85739 7.72216 10.8168 6.82593 12.0002 6.82593C13.1837 6.82593 14.1431 7.72216 14.1431 8.82773C14.1431 9.9333 13.1837 10.8295 12.0002 10.8295C11.2902 10.8295 10.7145 11.3673 10.7145 12.0306V13.0659C10.7145 13.7293 11.2902 14.267 12.0002 14.267C12.7103 14.267 13.286 13.7293 13.286 13.0659C15.2647 12.5431 16.7145 10.8436 16.7145 8.82773C16.7145 6.39549 14.6039 4.42377 12.0002 4.42377C9.39662 4.42377 7.28596 6.39549 7.28596 8.82773C7.28596 9.49106 7.8616 10.0288 8.57167 10.0288C9.28175 10.0288 9.85739 9.49106 9.85739 8.82773ZM13.7145 17.2353C13.7145 18.1198 12.947 18.8367 12.0002 18.8367C11.0535 18.8367 10.286 18.1198 10.286 17.2353C10.286 16.3508 11.0535 15.6339 12.0002 15.6339C12.947 15.6339 13.7145 16.3508 13.7145 17.2353Z" fill="#AEAEAE"/>
</g>
</svg>
