<svg width="48" height="48" viewBox="0 0 48 48" xmlns="http://www.w3.org/2000/svg">
<g id="Frame 16">
<path id="Vector" d="M22.4565 31.9228C27.1955 30.0848 31.2839 27.7926 34.7261 25.0417C36.9055 23.299 38.8196 21.3785 40.4714 19.2757C43.4278 15.5133 45.5532 11.1634 46.8462 6.2253C46.3102 6.28844 45.7709 6.25494 45.2536 6.13189C44.4451 5.93926 43.6894 5.52695 43.0819 4.91943C42.4737 4.31126 42.0607 3.55492 41.8642 2.7245C41.7451 2.19751 41.7154 1.67374 41.7766 1.15384C36.8379 2.44618 32.4867 4.57154 28.7243 7.5286C26.6215 9.18044 24.7017 11.0945 22.9583 13.2739C21.0243 15.6944 19.319 18.4305 17.8173 21.5312C17.195 22.8152 16.6158 24.152 16.0772 25.5435C16.0315 25.6614 16.0147 25.7812 16.027 25.8946C16.0385 26.0061 16.0811 26.1195 16.1513 26.2245C16.2202 26.3289 16.3078 26.4107 16.4193 26.4725C16.5256 26.5273 16.6332 26.5537 16.7491 26.5563C17.3618 26.5737 17.9661 26.7064 18.526 26.9473C19.0787 27.1857 19.5915 27.5291 20.0309 27.9691C20.4716 28.4091 20.8137 28.9226 21.052 29.474C21.293 30.0339 21.4257 30.6382 21.4431 31.2502C21.4457 31.3758 21.4772 31.4931 21.5326 31.5923C21.5893 31.6922 21.6705 31.7798 21.7749 31.8481C21.8799 31.9183 21.9933 31.9608 22.1047 31.9724C22.2181 31.9846 22.3386 31.9679 22.4565 31.9228ZM3.79925 24.5946C4.00734 24.3865 4.34686 24.3865 4.55495 24.5946C4.76304 24.8026 4.76304 25.1422 4.55495 25.3503L0.911762 28.9941C0.703672 29.2022 0.364157 29.2022 0.156067 28.9941C-0.0520225 28.786 -0.0520225 28.4465 0.156067 28.2384L3.79925 24.5946ZM9.6335 24.1462C9.84159 23.9381 10.1811 23.9381 10.3892 24.1462C10.5973 24.3543 10.5973 24.6938 10.3892 24.9019L6.74601 28.5457C6.53792 28.7538 6.19841 28.7538 5.99032 28.5457C5.78223 28.3376 5.78223 27.9981 5.99032 27.79L9.6335 24.1462ZM22.6491 43.4451C22.8572 43.237 23.1967 43.237 23.4048 43.4451C23.6129 43.6531 23.6129 43.9927 23.4048 44.2008L19.761 47.8439C19.5529 48.052 19.2134 48.052 19.0053 47.8439C18.7972 47.6358 18.7972 47.2963 19.0053 47.0882L22.6491 43.4451ZM23.0981 37.6102C23.3062 37.4021 23.6457 37.4021 23.8538 37.6102C24.0619 37.8183 24.0619 38.1578 23.8538 38.3659L20.21 42.009C20.0019 42.2171 19.6624 42.2171 19.4543 42.009C19.2462 41.801 19.2462 41.4614 19.4543 41.2533L23.0981 37.6102ZM4.5382 43.4612C7.41602 42.6971 11.1694 41.1387 13.6304 38.6777C15.3885 36.9202 16.476 34.6872 16.0547 31.9447C13.3128 31.5234 11.0805 32.6108 9.32233 34.3696C6.86133 36.8306 5.30291 40.5833 4.5382 43.4612ZM47.1251 5.09337C47.5046 3.45829 47.7971 1.76007 48 0C46.2399 0.202936 44.5424 0.494778 42.9073 0.874236C42.7804 1.4038 42.7804 1.9469 42.9015 2.48033C43.0535 3.11748 43.3698 3.69666 43.8376 4.16373C44.304 4.63081 44.8832 4.94713 45.4997 5.09337C46.0267 5.21835 46.584 5.22222 47.1251 5.09337ZM38.797 9.20299C38.0684 8.47306 37.1091 8.10842 36.1505 8.10842C35.1931 8.10842 34.2351 8.47371 33.5052 9.20363C32.7753 9.93356 32.4094 10.8922 32.4094 11.8495C32.4094 12.8075 32.7746 13.7668 33.5039 14.4961C34.2332 15.2254 35.1925 15.5906 36.1505 15.5906C37.1078 15.5906 38.0664 15.2247 38.7964 14.4948C39.5263 13.7649 39.8916 12.8069 39.8916 11.8495C39.8916 10.8909 39.5269 9.93162 38.797 9.20299ZM36.1505 7.03962C37.3778 7.03962 38.6083 7.50928 39.5482 8.44729C40.4901 9.39046 40.9604 10.6216 40.9604 11.8495C40.9604 13.08 40.4907 14.3118 39.5521 15.2505C38.6141 16.1885 37.381 16.6594 36.1505 16.6594C34.9213 16.6594 33.6908 16.1885 32.7515 15.2505C31.8115 14.3092 31.3406 13.0787 31.3406 11.8495C31.3406 10.619 31.8115 9.38595 32.7495 8.44794C33.6882 7.50928 34.92 7.03962 36.1505 7.03962ZM21.5217 13.3841C18.3056 13.1393 15.5625 13.5194 13.296 14.5218C11.2048 15.4457 9.50981 16.9088 8.21166 18.9065C9.62319 18.5954 11.0689 18.5471 12.4752 18.7545C14.1155 18.9942 15.7074 19.5824 17.1376 20.4991C18.4351 17.8964 19.8976 15.5236 21.5217 13.3841ZM27.5009 30.8624C28.4176 32.2926 29.0058 33.8845 29.2455 35.5247C29.4523 36.9311 29.4046 38.3762 29.0935 39.7877C33.2411 37.089 35.0823 32.6521 34.6159 26.479C32.4751 28.1037 30.1036 29.5649 27.5009 30.8624Z" />
</g>
</svg>
