<svg xmlns="http://www.w3.org/2000/svg" width="48" height="48" viewBox="0 0 48 48" fill="none">
<path d="M21.9092 31.2599C28.859 28.5646 34.2463 24.7845 38.067 19.9233C40.5842 16.7202 42.4281 13.0388 43.5981 8.87882C43.2881 8.86851 42.9804 8.82725 42.6802 8.75563C41.8602 8.56081 41.0936 8.14195 40.4765 7.52484C39.8593 6.90772 39.4399 6.14049 39.2451 5.31996C39.1844 5.00367 39.1357 4.72634 39.1242 4.40145C34.9631 5.5715 31.2805 7.4154 28.0769 9.93313C22.7377 14.1297 19.16 19.8608 16.7402 26.091C16.7276 26.1231 16.7224 26.1563 16.7242 26.1838C16.727 26.2067 16.7396 26.2359 16.7603 26.2675C16.7792 26.2961 16.8009 26.3179 16.821 26.3288L16.9127 26.3528C17.5327 26.37 18.1429 26.5041 18.705 26.7459C19.2614 26.9854 19.7782 27.3315 20.2234 27.7767C20.6681 28.2214 21.0142 28.7393 21.2537 29.2951C21.4955 29.8573 21.6296 30.4675 21.6467 31.0869C21.6473 31.1224 21.6553 31.1539 21.6674 31.1757C21.6823 31.1992 21.7035 31.2204 21.7321 31.2393C21.7636 31.2599 21.7929 31.2725 21.8158 31.2748C21.8433 31.2777 21.8765 31.2725 21.9092 31.2599ZM4.79387 24.7118C5.17261 24.333 5.78686 24.333 6.16561 24.7118C6.54436 25.0905 6.54436 25.7048 6.16561 26.0835L2.856 29.3931C2.47725 29.7719 1.86301 29.7719 1.48426 29.3931C1.10551 29.0144 1.10551 28.4001 1.48426 28.0214L4.79387 24.7118ZM10.0935 24.3044C10.4722 23.9256 11.0865 23.9256 11.4652 24.3044C11.844 24.6831 11.844 25.2974 11.4652 25.6761L8.15562 28.9857C7.77687 29.3645 7.16262 29.3645 6.78387 28.9857C6.40512 28.607 6.40512 27.9927 6.78387 27.614L10.0935 24.3044ZM21.9161 41.8345C22.2948 41.4558 22.9091 41.4558 23.2878 41.8345C23.6665 42.2133 23.6665 42.8275 23.2878 43.2063L19.9782 46.5159C19.5994 46.8946 18.9852 46.8946 18.6064 46.5159C18.2277 46.1371 18.2277 45.5229 18.6064 45.1441L21.9161 41.8345ZM22.324 36.5343C22.7028 36.1556 23.317 36.1556 23.6958 36.5343C24.0745 36.9131 24.0745 37.5273 23.6958 37.9061L20.3862 41.2157C20.0074 41.5945 19.3932 41.5945 19.0144 41.2157C18.6357 40.837 18.6357 40.2227 19.0144 39.844L22.324 36.5343ZM6.51227 41.4873C8.92057 40.7493 11.785 39.4434 13.724 37.5044C15.1393 36.0891 16.044 34.3163 15.8343 32.1653C13.6833 31.9556 11.9116 32.8603 10.4957 34.2762C8.55671 36.2152 7.25086 39.079 6.51227 41.4873ZM15.0957 38.8762C12.4147 41.5572 8.24157 43.1444 5.36915 43.7936C5.23106 43.8263 5.08323 43.8291 4.9354 43.7959C4.41454 43.679 4.08679 43.161 4.20368 42.6402C4.85231 39.7677 6.44008 35.5883 9.12398 32.9044C11.1105 30.9179 13.673 29.726 16.8726 30.3615C17.2484 30.4354 17.5607 30.7288 17.6381 31.127C18.2735 34.3266 17.0817 36.8902 15.0957 38.8762ZM44.0915 6.92033C44.3551 5.73939 44.5682 4.52235 44.7309 3.26922C43.4778 3.43195 42.2602 3.6451 41.0792 3.90925C41.0386 4.22382 41.0494 4.5659 41.1325 4.87302C41.2454 5.34804 41.4895 5.7944 41.8482 6.15309C42.2069 6.51179 42.6527 6.75531 43.1271 6.86819C43.4406 6.94268 43.7672 6.96044 44.0915 6.92033ZM36.5853 11.4149C36.018 10.8471 35.2714 10.564 34.5231 10.564C33.777 10.564 33.031 10.8482 32.4626 11.4166C31.8947 11.9844 31.61 12.7311 31.61 13.4771C31.61 14.2248 31.8942 14.9709 32.4609 15.5393C33.0293 16.106 33.7753 16.3902 34.5231 16.3902C35.2691 16.3902 36.0157 16.1054 36.5835 15.5376C37.152 14.9692 37.4362 14.2231 37.4362 13.4771C37.4362 12.7288 37.1531 11.9822 36.5853 11.4149ZM34.5231 8.62269C35.7601 8.62269 37.0001 9.09598 37.9496 10.0426C38.8646 10.9576 39.3775 12.1821 39.3775 13.4771C39.3775 14.7188 38.9036 15.961 37.9553 16.9093C37.0081 17.8565 35.7647 18.3315 34.5231 18.3315C33.2837 18.3315 32.0426 17.8571 31.0943 16.9093C30.1431 15.9576 29.6687 14.7165 29.6687 13.4771C29.6687 12.2354 30.1437 10.992 31.0908 10.0449C32.0391 9.09656 33.2814 8.62269 34.5231 8.62269ZM20.3122 15.3038C17.853 15.2144 15.7335 15.5628 13.9577 16.3478C12.4897 16.9964 11.2452 17.9539 10.2258 19.2185C11.1816 19.1131 12.1437 19.1308 13.0879 19.2695C14.4717 19.4718 15.82 19.9359 17.0571 20.6487C18.0426 18.7269 19.1279 16.9454 20.3122 15.3038ZM16.2079 22.3923C15.157 21.7677 13.9996 21.3626 12.8072 21.1879C11.3604 20.9753 9.8597 21.1054 8.43524 21.5958C8.19114 21.6772 7.91496 21.664 7.66972 21.5351C7.197 21.2864 7.01536 20.7002 7.26404 20.2275C8.65985 17.5849 10.6321 15.6986 13.1773 14.5738C15.549 13.5246 18.4042 13.1516 21.7367 13.4553C23.2981 11.5587 25.0125 9.8764 26.8793 8.40897C32.3887 4.07943 38.8738 1.90435 45.7342 1.20472C46.3405 1.14513 46.8579 1.65223 46.7954 2.2659C46.0947 9.11489 43.9396 15.5863 39.5912 21.1208C38.1237 22.9876 36.4414 24.7015 34.5443 26.2634C35.1774 33.1915 32.9198 38.0173 27.7726 40.7361C27.2999 40.9848 26.7137 40.8032 26.465 40.3304C26.3361 40.0852 26.3229 39.809 26.406 39.5655C26.8948 38.1404 27.0249 36.6404 26.8123 35.193C26.6375 34.0011 26.2324 32.8431 25.6073 31.7923C24.6401 32.2398 23.6396 32.6632 22.6071 33.0637C22.2788 33.1915 21.9401 33.2356 21.6106 33.2001C21.276 33.164 20.954 33.0471 20.6629 32.854C20.369 32.6592 20.1352 32.4059 19.973 32.112C19.8137 31.8192 19.7238 31.4897 19.7135 31.1396C19.7037 30.7752 19.6212 30.4079 19.4717 30.0607C19.3284 29.7283 19.1198 29.4166 18.8517 29.1485C18.583 28.8797 18.2724 28.6712 17.9395 28.5279C17.5922 28.3784 17.225 28.2958 16.86 28.2861C16.4904 28.2752 16.2153 28.1893 15.8882 28.0271C15.5942 27.865 15.341 27.6312 15.1456 27.3367C14.9525 27.0456 14.8356 26.7236 14.7995 26.3889C14.7651 26.0566 14.8092 25.7202 14.9364 25.3931C15.3369 24.3605 15.761 23.3595 16.2079 22.3923ZM27.3509 30.9431C28.0637 32.1802 28.5284 33.529 28.7307 34.9122C28.8688 35.8548 28.8871 36.8151 28.7822 37.7691C31.5492 35.5236 32.8528 32.1636 32.6952 27.689C31.0536 28.8734 29.2721 29.9581 27.3509 30.9431Z" fill="#1A0E38"/>
</svg>
