<svg xmlns="http://www.w3.org/2000/svg" width="80" height="80" viewBox="0 0 80 80">
<path d="M36.515 52.1C48.098 47.6077 57.0768 41.3077 63.4447 33.2055C67.64 27.8671 70.7131 21.7313 72.6632 14.7981C72.1466 14.7809 71.6337 14.7122 71.1333 14.5928C69.7667 14.2681 68.489 13.57 67.4604 12.5415C66.4319 11.513 65.7329 10.2342 65.4082 8.86668C65.3069 8.33953 65.2258 7.87731 65.2067 7.33583C58.2715 9.28592 52.1338 12.3591 46.7945 16.5553C37.8959 23.5496 31.9329 33.1014 27.9 43.485C27.879 43.5385 27.8704 43.5939 27.8733 43.6397C27.8781 43.6779 27.8991 43.7266 27.9334 43.7792C27.965 43.8269 28.0012 43.8632 28.0347 43.8814L28.1875 43.9215C29.2208 43.9501 30.2378 44.1736 31.1747 44.5766C32.102 44.9758 32.9634 45.5526 33.7054 46.2946C34.4465 47.0357 35.0233 47.899 35.4225 48.8253C35.8255 49.7622 36.0489 50.7792 36.0776 51.8116C36.0785 51.8708 36.0919 51.9233 36.112 51.9596C36.1368 51.9988 36.1721 52.0341 36.2199 52.0656C36.2724 52.1 36.3211 52.121 36.3593 52.1248C36.4052 52.1296 36.4605 52.121 36.515 52.1ZM7.98945 41.1864C8.6207 40.5551 9.64445 40.5551 10.2757 41.1864C10.9069 41.8176 10.9069 42.8414 10.2757 43.4726L4.75968 48.9886C4.12843 49.6199 3.10468 49.6199 2.47344 48.9886C1.84219 48.3574 1.84219 47.3336 2.47344 46.7024L7.98945 41.1864ZM16.8221 40.5074C17.4534 39.8761 18.4771 39.8761 19.1084 40.5074C19.7396 41.1386 19.7396 42.1624 19.1084 42.7936L13.5924 48.3096C12.9611 48.9409 11.9374 48.9409 11.3061 48.3096C10.6749 47.6784 10.6749 46.6546 11.3061 46.0234L16.8221 40.5074ZM36.5264 69.7243C37.1577 69.0931 38.1814 69.0931 38.8127 69.7243C39.4439 70.3556 39.4439 71.3793 38.8127 72.0106L33.2967 77.5266C32.6654 78.1578 31.6417 78.1578 31.0104 77.5266C30.3792 76.8953 30.3792 75.8716 31.0104 75.2403L36.5264 69.7243ZM37.2064 60.8907C37.8376 60.2594 38.8614 60.2594 39.4926 60.8907C40.1239 61.5219 40.1239 62.5457 39.4926 63.1769L33.9766 68.6929C33.3454 69.3242 32.3216 69.3242 31.6904 68.6929C31.0591 68.0617 31.0591 67.0379 31.6904 66.4067L37.2064 60.8907ZM10.8535 69.1456C14.8673 67.9156 19.6413 65.7391 22.873 62.5075C25.2318 60.1486 26.7397 57.1939 26.3902 53.6089C22.8052 53.2593 19.8523 54.7673 17.4925 57.127C14.2609 60.3587 12.0844 65.1318 10.8535 69.1456ZM25.1592 64.7937C20.6908 69.2621 13.7356 71.9074 8.94826 72.9894C8.71811 73.0439 8.47172 73.0486 8.22533 72.9932C7.35725 72.7984 6.811 71.9351 7.00581 71.067C8.08686 66.2797 10.7331 59.314 15.2063 54.8408C18.5173 51.5299 22.788 49.5435 28.1206 50.6026C28.7471 50.7258 29.2676 51.2147 29.3965 51.8784C30.4556 57.2111 28.4692 61.4837 25.1592 64.7937ZM73.4855 11.534C73.9248 9.56573 74.28 7.53733 74.5512 5.44877C72.4627 5.71999 70.4333 6.07525 68.4651 6.5155C68.3973 7.03978 68.4154 7.60991 68.5539 8.12179C68.742 8.91347 69.1489 9.65741 69.7467 10.2552C70.3445 10.8531 71.0875 11.2589 71.8782 11.4471C72.4006 11.5712 72.9449 11.6008 73.4855 11.534ZM60.9751 19.0249C60.0297 18.0785 58.7853 17.6067 57.5381 17.6067C56.2947 17.6067 55.0513 18.0804 54.104 19.0278C53.1576 19.9742 52.6829 21.2185 52.6829 22.4619C52.6829 23.7082 53.1566 24.9516 54.1011 25.8989C55.0484 26.8434 56.2918 27.3171 57.5381 27.3171C58.7815 27.3171 60.0258 26.8424 60.9722 25.896C61.9196 24.9487 62.3933 23.7053 62.3933 22.4619C62.3933 21.2147 61.9215 19.9703 60.9751 19.0249ZM57.5381 14.3712C59.5999 14.3712 61.6665 15.1601 63.2489 16.7377C64.7741 18.2628 65.6288 20.3036 65.6288 22.4619C65.6288 24.5314 64.839 26.6018 63.2585 28.1823C61.6799 29.7609 59.6076 30.5526 57.5381 30.5526C55.4725 30.5526 53.404 29.7618 51.8234 28.1823C50.2382 26.5961 49.4474 24.5275 49.4474 22.4619C49.4474 20.3924 50.2391 18.3201 51.8177 16.7415C53.3982 15.161 55.4686 14.3712 57.5381 14.3712ZM33.8534 25.5064C29.7546 25.3574 26.2221 25.9381 23.2626 27.2464C20.8159 28.3274 18.7417 29.9232 17.0427 32.0309C18.6357 31.8552 20.2391 31.8848 21.8129 32.1159C24.1192 32.453 26.3663 33.2265 28.4281 34.4145C30.0707 31.2115 31.8795 28.2425 33.8534 25.5064ZM27.0128 37.3206C25.2614 36.2796 23.3323 35.6045 21.345 35.3132C18.9336 34.9589 16.4325 35.1757 14.0584 35.9931C13.6516 36.1287 13.1913 36.1068 12.7825 35.8919C11.9947 35.4774 11.6919 34.5005 12.1064 33.7126C14.4328 29.3082 17.7198 26.1644 21.9619 24.2897C25.9146 22.5412 30.6733 21.9195 36.2275 22.4256C38.8299 19.2646 41.6872 16.4608 44.7985 14.015C53.9808 6.79913 64.7893 3.17399 76.2234 2.00795C77.2338 1.90863 78.0962 2.75379 77.9921 3.77659C76.8241 15.1916 73.2324 25.9772 65.985 35.2015C63.5392 38.3128 60.7354 41.1692 57.5734 43.7725C58.6287 55.3193 54.866 63.3622 46.2874 67.8936C45.4995 68.3081 44.5226 68.0053 44.1081 67.2175C43.8932 66.8087 43.8713 66.3484 44.0097 65.9426C44.8243 63.5675 45.0411 61.0673 44.6868 58.655C44.3955 56.6687 43.7204 54.7386 42.6785 52.9872C41.0664 53.733 39.399 54.4388 37.6782 55.1063C37.1309 55.3193 36.5665 55.3928 36.0174 55.3336C35.4597 55.2734 34.923 55.0786 34.4379 54.7568C33.948 54.4321 33.5583 54.01 33.2881 53.5201C33.0226 53.0321 32.8726 52.4829 32.8555 51.8994C32.8392 51.2921 32.7017 50.6799 32.4524 50.1012C32.2137 49.5473 31.8661 49.0278 31.4192 48.5809C30.9713 48.133 30.4537 47.7853 29.8988 47.5466C29.3201 47.2973 28.7079 47.1598 28.0996 47.1436C27.4836 47.1255 27.0252 46.9822 26.4799 46.7119C25.99 46.4417 25.5679 46.052 25.2423 45.5612C24.9205 45.076 24.7256 44.5393 24.6655 43.9816C24.6082 43.4277 24.6817 42.8672 24.8937 42.3219C25.5613 40.601 26.2679 38.9326 27.0128 37.3206ZM45.5845 51.5719C46.7725 53.6337 47.547 55.8817 47.8841 58.1871C48.1143 59.758 48.1448 61.3586 47.9701 62.9487C52.5817 59.2061 54.7543 53.606 54.4917 46.1485C51.7556 48.1225 48.7866 49.9303 45.5845 51.5719Z" />
</svg>
