<svg xmlns="http://www.w3.org/2000/svg" width="154" height="154" viewBox="0 0 154 154" fill="none">
<path fill-rule="evenodd" clip-rule="evenodd" d="M75.6712 0L67.2939 14.9011C56.5048 16.5121 46.6186 20.8865 38.3785 27.2811L21.7983 23.0423L26.4166 39.5192C20.221 47.891 16.0712 57.8684 14.7057 68.7126L0 77.4296L14.8901 85.7996C16.4913 96.6099 20.8663 106.516 27.2684 114.771L23.0425 131.301L39.4538 126.701C47.85 132.932 57.8661 137.102 68.7549 138.466L77.4296 153.1L85.7589 138.282C96.6129 136.682 106.557 132.285 114.835 125.848L131.301 130.058L126.714 113.694C132.951 105.283 137.121 95.2483 138.474 84.3396L153.099 75.6716L138.271 67.3353C136.661 56.5021 132.265 46.5779 125.835 38.3145L130.057 21.7988L113.629 26.4035C105.242 20.2016 95.2461 16.0522 84.3819 14.6969L75.6712 0ZM134.037 76.5831C134.037 108.314 108.314 134.037 76.583 134.037C44.852 134.037 19.129 108.314 19.129 76.5831C19.129 44.8522 44.852 19.1292 76.583 19.1292C108.314 19.1292 134.037 44.8522 134.037 76.5831ZM128.524 76.5832C128.524 105.269 105.269 128.524 76.5833 128.524C47.897 128.524 24.6422 105.269 24.6422 76.5832C24.6422 47.8969 47.897 24.6422 76.5833 24.6422C105.269 24.6422 128.524 47.8969 128.524 76.5832ZM131.314 76.5832C131.314 106.81 106.81 131.314 76.5833 131.314C46.3563 131.314 21.8525 106.81 21.8525 76.5832C21.8525 46.3563 46.3563 21.8525 76.5833 21.8525C106.81 21.8525 131.314 46.3563 131.314 76.5832Z" fill="white"/>
</svg>
