<svg width="22" height="22" viewBox="0 0 22 22" fill="none" xmlns="http://www.w3.org/2000/svg">
<g id="vertical-slider-square--adjustment-adjust-controls-fader-vertical-settings-slider-square">
<path id="Subtract" fill-rule="evenodd" clip-rule="evenodd" d="M2.66441 0.250031C1.39218 0.250031 0.36084 1.28137 0.36084 2.5536L0.360841 19.4465C0.360841 20.7186 1.39218 21.75 2.66441 21.75H19.5573C20.8295 21.75 21.8608 20.7186 21.8608 19.4465V2.5536C21.8608 1.28137 20.8295 0.250031 19.5573 0.250031L2.66441 0.250031ZM6.31173 9.28766V17.1429C6.31173 17.673 6.74146 18.1027 7.27155 18.1027C7.80164 18.1027 8.23138 17.673 8.23138 17.1429V9.28768C9.24163 8.90128 9.95905 7.92274 9.95905 6.77663C9.95905 5.29237 8.75582 4.08913 7.27155 4.08913C5.78729 4.08913 4.58405 5.29237 4.58405 6.77663C4.58405 7.92274 5.30148 8.90128 6.31173 9.28766ZM17.6376 12.1517C17.6376 13.2978 16.9201 14.2763 15.9099 14.6627V17.1429C15.9099 17.673 15.4802 18.1027 14.9501 18.1027C14.42 18.1027 13.9903 17.673 13.9903 17.1429V14.6627C12.9801 14.2763 12.2626 13.2978 12.2626 12.1517C12.2626 11.0056 12.9801 10.027 13.9903 9.64065V4.85717C13.9903 4.32708 14.42 3.89735 14.9501 3.89735C15.4802 3.89735 15.9099 4.32708 15.9099 4.85717V9.64065C16.9201 10.027 17.6376 11.0056 17.6376 12.1517Z" fill="#AEAEAE"/>
</g>
</svg>
