<svg xmlns="http://www.w3.org/2000/svg" width="25" height="24" viewBox="0 0 25 24" fill="none">
  <g clip-path="url(#clip0_887_8276)">
    <path fill-rule="evenodd" clip-rule="evenodd" d="M21.18 12C21.18 11.4776 21.132 10.944 21.0346 10.4103L23.6619 8.13317L21.1687 3.87248L17.8539 4.97789C17.0167 4.2833 16.0624 3.73552 15.0558 3.3727L14.3725 0H9.40024L8.71696 3.3713C7.69909 3.73553 6.76168 4.27483 5.91744 4.97648L2.60403 3.87248L0.11084 8.13317L2.73814 10.4103C2.64071 10.944 2.59271 11.4776 2.59271 12C2.59271 12.5223 2.64071 13.056 2.73813 13.5896L0.11084 15.8668L2.60401 20.1275L5.91884 19.0221C6.75601 19.7167 7.71036 20.2645 8.71696 20.6273L9.40024 24H14.3725L15.0558 20.6287C16.0722 20.2645 17.0111 19.7252 17.8553 19.0235L21.1687 20.1289L23.6619 15.8682L21.0346 13.5911C21.132 13.056 21.18 12.5223 21.18 12ZM11.8864 16.9412C9.16165 16.9412 6.94518 14.7247 6.94518 12C6.94518 9.2753 9.16165 7.05882 11.8864 7.05882C14.6111 7.05882 16.8275 9.2753 16.8275 12C16.8275 14.7247 14.6111 16.9412 11.8864 16.9412Z" fill="white"/>
  </g>
  <defs>
    <clipPath id="clip0_887_8276">
      <rect width="24" height="24" fill="white" transform="translate(0.11084)"/>
    </clipPath>
  </defs>
</svg>
