<svg xmlns="http://www.w3.org/2000/svg" width="24" height="24" viewBox="0 0 24 24" fill="none">
<path fill-rule="evenodd" clip-rule="evenodd" d="M21.1799 12C21.1799 11.4776 21.1319 10.944 21.0345 10.4103L23.6618 8.13317L21.1686 3.87248L17.8538 4.97789C17.0166 4.2833 16.0622 3.73552 15.0557 3.3727L14.3724 0H9.40012L8.71684 3.3713C7.69897 3.73553 6.76156 4.27483 5.91732 4.97648L2.60391 3.87248L0.110718 8.13317L2.73802 10.4103C2.64059 10.944 2.59259 11.4776 2.59259 12C2.59259 12.5223 2.64059 13.056 2.73801 13.5896L0.110718 15.8668L2.60389 20.1275L5.91872 19.0221C6.75589 19.7167 7.71024 20.2645 8.71684 20.6273L9.40012 24H14.3724L15.0556 20.6287C16.0721 20.2645 17.0109 19.7252 17.8552 19.0235L21.1686 20.1289L23.6618 15.8682L21.0345 13.5911C21.1319 13.056 21.1799 12.5223 21.1799 12ZM11.8862 16.9412C9.16153 16.9412 6.94506 14.7247 6.94506 12C6.94506 9.2753 9.16153 7.05882 11.8862 7.05882C14.6109 7.05882 16.8274 9.2753 16.8274 12C16.8274 14.7247 14.6109 16.9412 11.8862 16.9412Z" fill="#686868"/>
</svg>
