<svg xmlns="http://www.w3.org/2000/svg" width="48" height="48" viewBox="0 0 48 48" fill="none">
<circle cx="24" cy="24" r="24" fill="white"/>
<path fill-rule="evenodd" clip-rule="evenodd" d="M31.5 18C33.9853 18 36 15.9853 36 13.5C36 11.0147 33.9853 9 31.5 9C29.0147 9 27 11.0147 27 13.5C27 13.7259 27.0166 13.9478 27.0488 14.1647L16.5327 21.1754C15.7328 20.4453 14.6684 20 13.5 20C11.0147 20 9 22.0147 9 24.5C9 26.9853 11.0147 29 13.5 29C14.4731 29 15.3741 28.6911 16.1102 28.1661L27.0085 34.2207C27.0029 34.3131 27 34.4062 27 34.5C27 36.9853 29.0147 39 31.5 39C33.9853 39 36 36.9853 36 34.5C36 32.0147 33.9853 30 31.5 30C30.1929 30 29.0159 30.5573 28.1938 31.4473L17.8396 25.695C17.9442 25.3144 18 24.9137 18 24.5C18 24.2742 17.9834 24.0522 17.9513 23.8353L28.4673 16.8246C29.2672 17.5547 30.3316 18 31.5 18Z" fill="#1A0E38"/>
</svg>
