<svg xmlns="http://www.w3.org/2000/svg" width="48" height="48" viewBox="0 0 48 48" fill="none">
<circle cx="24" cy="24" r="24" fill="white"/>
<path fill-rule="evenodd" clip-rule="evenodd" d="M33 13.5C33 15.9853 30.9853 18 28.5 18C27.3316 18 26.2672 17.5547 25.4673 16.8246L13.379 24.8835L25.1938 31.4473C26.0159 30.5573 27.1929 30 28.5 30C30.9853 30 33 32.0147 33 34.5C33 36.9853 30.9853 39 28.5 39C26.0147 39 24 36.9853 24 34.5C24 34.4062 24.0029 34.3131 24.0085 34.2207L9.77154 26.3113C9.31428 26.0572 9.02239 25.5833 9.00123 25.0607C8.98008 24.538 9.23272 24.0421 9.66795 23.752L24.0488 14.1647C24.0166 13.9478 24 13.7259 24 13.5C24 11.0147 26.0147 9 28.5 9C30.9853 9 33 11.0147 33 13.5Z" fill="#111A15"/>
</svg>
