<svg xmlns="http://www.w3.org/2000/svg" width="80" height="80" viewBox="0 0 80 80" fill="none">
<path d="M74.4883 29.7504C71.7586 20.5005 65.6169 12.9186 57.1246 8.3695C48.6323 3.82037 38.9269 2.7589 29.7522 5.48838C20.5016 8.21787 12.9192 14.3592 8.36979 22.8509C3.82036 31.3426 2.75882 41.0475 5.48848 50.2216C8.21815 59.4715 14.3599 67.0534 22.8522 71.6025C28.1598 74.4836 34.0741 76 39.9884 76C43.4005 76 46.8884 75.4693 50.3004 74.4836C59.551 71.7541 67.1334 65.6128 71.6828 57.1211C76.2322 48.7052 77.218 38.9245 74.4883 29.7504ZM25.2027 43.322C25.5818 43.1704 26.0368 43.4737 26.1884 43.8528V44.0044C27.25 47.7195 29.6763 50.7523 33.0126 52.5719C33.1642 52.6478 33.3159 52.7236 33.4675 52.7994C33.8466 53.0269 33.9983 53.4818 33.8466 53.8609C33.695 54.1641 33.4675 54.3158 33.1642 54.3158C33.0126 54.3158 32.9368 54.3158 32.7851 54.24C32.6335 54.1641 32.406 54.0883 32.2543 53.9367C28.539 51.8896 25.8093 48.4777 24.6719 44.4593L24.5961 44.3077C24.5961 43.8528 24.8236 43.3979 25.2027 43.322ZM14.0566 39.7585C14.5115 39.7585 14.8148 40.0618 14.8148 40.5167C14.8907 43.322 15.4214 46.1273 16.4071 48.781C18.3786 54.1641 22.0181 58.4858 26.8708 61.4428C27.25 61.6702 27.3258 62.1251 27.0983 62.5042C26.9467 62.7317 26.7192 62.8833 26.4159 62.8833C26.2642 62.8833 26.1126 62.8833 26.0368 62.8075C20.8807 59.6989 17.0137 55.074 14.8907 49.3876C13.8291 46.5823 13.2225 43.6253 13.2225 40.5926C13.2984 40.1376 13.6016 39.7585 14.0566 39.7585ZM27.3258 68.5697C27.1741 68.873 26.9467 69.0247 26.6434 69.0247C26.5675 69.0247 26.4159 69.0247 26.3401 68.9488C25.0511 68.3423 23.8379 67.6599 22.6247 66.9017C16.1038 62.7317 11.4028 56.3629 9.20386 49.0085C9.05221 48.6294 9.35551 48.1744 9.73463 48.0228C10.1137 47.8712 10.5687 48.0986 10.7203 48.5535C12.7676 55.5289 17.317 61.5944 23.4588 65.6128C24.5961 66.371 25.7335 66.9775 26.9467 67.5841C27.3258 67.7357 27.4774 68.1906 27.3258 68.5697ZM35.2873 60.0022C35.2115 60.3055 34.9082 60.5329 34.5291 60.5329C34.4532 60.5329 34.3774 60.5329 34.3016 60.5329C33.9225 60.4571 33.6192 60.3055 33.2401 60.2297C32.0269 59.8506 30.8137 59.3198 29.6763 58.6375C24.7478 55.8322 21.1082 51.3588 19.5159 45.8999C19.061 44.2319 18.7577 42.5639 18.6819 40.8958C18.6819 40.4409 18.9851 40.1376 19.4401 40.0618C19.8192 40.0618 20.1983 40.3651 20.2742 40.82C20.35 42.4122 20.5775 43.9286 21.0324 45.445C22.4731 50.5248 25.8093 54.6949 30.4346 57.2727C31.4961 57.8793 32.6335 58.3342 33.7708 58.7133C34.0741 58.7891 34.4532 58.9407 34.7565 59.0166C35.1357 59.1682 35.4389 59.5473 35.2873 60.0022ZM44.7653 48.9326C39.8367 51.5863 33.695 49.6908 31.0412 44.7626C28.3873 39.8344 30.2829 33.693 35.2115 31.0394C40.14 28.3857 46.2818 30.2812 48.9356 35.2094C51.5895 40.1376 49.6939 46.3548 44.7653 48.9326ZM54.7741 36.65C54.6982 36.65 54.6224 36.65 54.5466 36.65C54.2433 36.65 53.8642 36.4225 53.7883 36.1192V35.9676C52.7268 32.2525 50.3004 29.2197 46.9642 27.4001C46.8125 27.3242 46.6609 27.2484 46.4334 27.1726C46.0543 26.9451 45.9027 26.4902 46.1301 26.1111C46.3576 25.732 46.8125 25.5804 47.1917 25.8079C47.3433 25.8837 47.5708 25.9595 47.7224 26.1111C51.4378 28.1582 54.1675 31.5701 55.3048 35.5885L55.3807 35.7401C55.3807 36.1192 55.1532 36.5742 54.7741 36.65ZM60.5367 39.9102C60.0817 39.9102 59.7784 39.6069 59.7026 39.152C59.6268 37.5598 59.3993 36.0434 58.9444 34.527C57.5037 29.4472 54.1675 25.2771 49.5422 22.6993C48.4807 22.0927 47.3433 21.6378 46.206 21.2587C45.9027 21.1829 45.5235 21.0313 45.2202 20.9554C44.8411 20.8796 44.5378 20.4247 44.6895 20.0456C44.7653 19.6665 45.2202 19.3633 45.5994 19.5149C45.9785 19.5907 46.2818 19.7423 46.6609 19.8182C47.8741 20.1973 49.0873 20.728 50.2246 21.4104C55.229 24.1398 58.8686 28.6132 60.4609 34.0721C60.9158 35.7401 61.2191 37.4082 61.2949 39.0762C61.2949 39.5311 60.9158 39.8344 60.5367 39.9102ZM65.9202 40.2135C65.4652 40.2135 65.1619 39.9102 65.1619 39.4553C65.0861 36.65 64.5554 33.8447 63.5696 31.191C61.5982 25.8079 57.9587 21.4862 53.1059 18.5292C52.7268 18.3018 52.651 17.8469 52.8785 17.4678C53.1059 17.0887 53.5609 17.0129 53.94 17.2403C59.096 20.3489 62.963 24.9739 65.0861 30.6603C66.1477 33.4656 66.7542 36.4225 66.7542 39.4553C66.6784 39.8344 66.3751 40.2135 65.9202 40.2135ZM70.2421 31.8734C70.1663 31.8734 70.0905 31.8734 70.0147 31.8734C69.7114 31.8734 69.4081 31.6459 69.2564 31.3426C67.2092 24.3673 62.6598 18.3018 56.518 14.2834C55.3807 13.5252 54.2433 12.9186 53.0301 12.3121C52.651 12.1605 52.4993 11.7055 52.651 11.2506C52.8026 10.8715 53.2576 10.7199 53.7125 10.8715C55.0015 11.4781 56.2147 12.1605 57.4279 12.9186C63.8729 17.0887 68.6498 23.4575 70.7729 30.8119C70.8487 31.3426 70.6213 31.7976 70.2421 31.8734Z" fill="#AEAEAE"/>
<path d="M40.4432 38.5454C39.6091 38.318 38.7751 38.7729 38.5476 39.607C38.3201 40.441 38.7751 41.2751 39.6092 41.5026C40.4432 41.73 41.2773 41.2751 41.5048 40.441C41.7322 39.607 41.2773 38.7729 40.4432 38.5454Z" fill="#AEAEAE"/>
</svg>
