<svg width="24" height="24" viewBox="0 0 24 24"  xmlns="http://www.w3.org/2000/svg">
<g id="icon_spotify">
<path id="Vector" d="M12 2C6.476 2 2 6.476 2 12C2 17.524 6.476 22 12 22C17.524 22 22 17.524 22 12C22 6.476 17.524 2 12 2ZM16.588 16.424C16.408 16.72 16.024 16.812 15.732 16.632C13.384 15.196 10.428 14.872 6.948 15.668C6.612 15.744 6.28 15.536 6.2 15.2C6.124 14.864 6.332 14.532 6.668 14.452C10.476 13.58 13.744 13.956 16.38 15.568C16.672 15.748 16.768 16.132 16.588 16.424ZM17.812 13.7C17.584 14.068 17.108 14.184 16.74 13.956C14.052 12.304 9.956 11.824 6.776 12.792C6.364 12.916 5.928 12.684 5.804 12.272C5.68 11.86 5.912 11.424 6.324 11.3C9.956 10.196 14.472 10.732 17.556 12.628C17.924 12.852 18.036 13.332 17.812 13.7ZM17.916 10.864C14.692 8.948 9.376 8.772 6.3 9.708C5.804 9.856 5.284 9.58 5.132 9.084C4.984 8.588 5.26 8.068 5.756 7.916C9.288 6.844 15.16 7.052 18.872 9.252C19.316 9.516 19.464 10.088 19.2 10.532C18.936 10.976 18.36 11.124 17.92 10.86L17.916 10.864Z" />
</g>
</svg>
