<svg xmlns="http://www.w3.org/2000/svg" width="64" height="62" viewBox="0 0 64 62" fill="none">
  <path d="M29.1289 2.83638C30.0326 0.0550647 33.9674 0.0550637 34.8711 2.83638L40.3028 19.5533C40.7069 20.7972 41.866 21.6393 43.1739 21.6393H60.7511C63.6756 21.6393 64.8915 25.3816 62.5256 27.1005L48.3053 37.4321C47.2472 38.2009 46.8045 39.5635 47.2086 40.8073L52.6403 57.5243C53.544 60.3056 50.3607 62.6184 47.9947 60.8995L33.7744 50.5679C32.7164 49.7991 31.2836 49.7991 30.2256 50.5679L16.0053 60.8995C13.6393 62.6184 10.456 60.3056 11.3597 57.5243L16.7914 40.8073C17.1955 39.5635 16.7528 38.2009 15.6947 37.4321L1.47441 27.1005C-0.891514 25.3816 0.32441 21.6393 3.24886 21.6393H20.8261C22.134 21.6393 23.2931 20.7972 23.6972 19.5533L29.1289 2.83638Z" fill="#B89826"/>
</svg>
