<svg width="39" height="37" viewBox="0 0 39 37" xmlns="http://www.w3.org/2000/svg">
<path id="Star 3" d="M17.6592 1.68364C18.2014 0.0148528 20.5623 0.0148511 21.1045 1.68364L24.3635 11.7138C24.606 12.4601 25.3015 12.9654 26.0862 12.9654H36.6325C38.3872 12.9654 39.1167 15.2107 37.6972 16.2421L29.165 22.4411C28.5302 22.9023 28.2645 23.7199 28.507 24.4662L31.766 34.4964C32.3082 36.1652 30.3982 37.5529 28.9787 36.5215L20.4465 30.3225C19.8117 29.8613 18.952 29.8613 18.3172 30.3225L9.785 36.5215C8.36544 37.5529 6.45544 36.1652 6.99766 34.4964L10.2567 24.4662C10.4991 23.7199 10.2335 22.9023 9.59866 22.4411L1.06648 16.2421C-0.353072 15.2107 0.376483 12.9654 2.13115 12.9654H12.6775C13.4622 12.9654 14.1577 12.4601 14.4002 11.7138L17.6592 1.68364Z" />
</svg>
