<svg xmlns="http://www.w3.org/2000/svg" width="25" height="24" viewBox="0 0 25 24" fill="none">
<path fill-rule="evenodd" clip-rule="evenodd" d="M24.1107 12C24.1107 15.2175 22.8444 18.1392 20.7831 20.2941C18.606 22.5698 15.5422 23.9901 12.1465 24C12.1346 24 12.1227 24 12.1107 24C12.0988 24 12.0868 24 12.0749 24C8.67923 23.9901 5.61539 22.5698 3.43837 20.2941C1.37699 18.1392 0.110718 15.2175 0.110718 12C0.110718 5.37259 5.48331 0 12.1107 0C18.7381 0 24.1107 5.37259 24.1107 12ZM19.3841 18C17.6549 15.9059 15.0386 14.5714 12.1107 14.5714C9.18282 14.5714 6.56662 15.9059 4.83726 18C6.56662 20.094 9.18282 21.4286 12.1107 21.4286C15.0386 21.4286 17.6549 20.094 19.3841 18ZM12.1109 12.8571C14.4779 12.8571 16.3966 10.9383 16.3966 8.57138C16.3966 6.20445 14.4779 4.28566 12.1109 4.28566C9.74399 4.28566 7.82521 6.20445 7.82521 8.57138C7.82521 10.9383 9.74399 12.8571 12.1109 12.8571Z" fill="#686868"/>
</svg>
