<svg xmlns="http://www.w3.org/2000/svg" width="25" height="24" viewBox="0 0 25 24" fill="none">
<path fill-rule="evenodd" clip-rule="evenodd" d="M24.1108 12C24.1108 15.2175 22.8445 18.1392 20.7832 20.2941C18.6061 22.5698 15.5423 23.9901 12.1467 24C12.1347 24 12.1228 24 12.1108 24C12.0989 24 12.087 24 12.075 24C8.67935 23.9901 5.61551 22.5698 3.43849 20.2941C1.37711 18.1392 0.11084 15.2175 0.11084 12C0.11084 5.37259 5.48343 0 12.1108 0C18.7383 0 24.1108 5.37259 24.1108 12ZM19.3842 18C17.655 15.9059 15.0387 14.5714 12.1108 14.5714C9.18294 14.5714 6.56674 15.9059 4.83738 18C6.56674 20.094 9.18294 21.4286 12.1108 21.4286C15.0387 21.4286 17.655 20.094 19.3842 18ZM12.111 12.8571C14.478 12.8571 16.3968 10.9383 16.3968 8.57138C16.3968 6.20445 14.478 4.28566 12.111 4.28566C9.74411 4.28566 7.82533 6.20445 7.82533 8.57138C7.82533 10.9383 9.74411 12.8571 12.111 12.8571Z" fill="white"/>
</svg>
