<svg xmlns="http://www.w3.org/2000/svg" width="64" height="64" viewBox="0 0 64 64">
  <circle cx="32" cy="32" r="28" fill="#F0F0F0" stroke="#CCCCCC" stroke-width="2"/>
  <path d="M32 16C23.1634 16 16 23.1634 16 32C16 40.8366 23.1634 48 32 48C40.8366 48 48 40.8366 48 32C48 23.1634 40.8366 16 32 16ZM32 44C25.3726 44 20 38.6274 20 32C20 25.3726 25.3726 20 32 20C38.6274 20 44 25.3726 44 32C44 38.6274 38.6274 44 32 44Z" fill="#DDDDDD"/>
  <path d="M32 22C26.4772 22 22 26.4772 22 32C22 37.5228 26.4772 42 32 42C37.5228 42 42 37.5228 42 32C42 26.4772 37.5228 22 32 22ZM32 38C28.6863 38 26 35.3137 26 32C26 28.6863 28.6863 26 32 26C35.3137 26 38 28.6863 38 32C38 35.3137 35.3137 38 32 38Z" fill="#4A90E2"/>
  <path d="M32 28C29.7909 28 28 29.7909 28 32C28 34.2091 29.7909 36 32 36C34.2091 36 36 34.2091 36 32C36 29.7909 34.2091 28 32 28Z" fill="#4A90E2"/>
</svg>
