<?xml version="1.0" standalone="no"?>
<!DOCTYPE svg PUBLIC "-//W3C//DTD SVG 20010904//EN"
 "http://www.w3.org/TR/2001/REC-SVG-20010904/DTD/svg10.dtd">
<svg version="1.0" xmlns="http://www.w3.org/2000/svg"
 width="274.000000pt" height="274.000000pt" viewBox="0 0 274.000000 274.000000"
 preserveAspectRatio="xMidYMid meet">
<metadata>
Created by potrace 1.14, written by Peter Selinger 2001-2017
</metadata>
<g transform="translate(0.000000,274.000000) scale(0.100000,-0.100000)"
fill="#000000" stroke="none">
<path d="M0 2341 c0 -372 1 -400 18 -405 9 -4 28 -16 42 -27 25 -20 25 -20
-17 1 l-43 20 0 -45 0 -45 88 -44 c48 -25 107 -57 132 -72 35 -22 42 -23 30
-8 -15 18 -14 18 10 2 36 -24 233 -118 248 -118 4 0 -11 11 -33 25 -45 27 -41
34 6 9 17 -8 33 -13 36 -10 3 2 -10 12 -29 22 -18 9 -94 53 -168 97 -137 82
-200 126 -123 88 23 -12 44 -21 46 -21 2 0 -7 22 -20 50 -14 29 -39 61 -61 76
-35 25 -26 28 23 8 20 -7 20 -7 1 14 -10 12 -47 40 -82 63 -35 23 -64 43 -64
45 0 2 36 -14 80 -36 45 -22 85 -38 90 -35 6 4 10 -14 10 -44 0 -65 13 -98 58
-144 48 -50 82 -67 132 -67 134 0 181 141 92 273 -55 82 -175 115 -227 63 -13
-13 -27 -36 -31 -49 -6 -27 -18 -27 -62 1 -15 10 -19 17 -12 22 7 4 -22 27
-69 55 -45 26 -81 49 -81 52 0 2 38 -16 85 -41 47 -24 85 -43 85 -41 0 3 -34
27 -75 55 -87 59 -99 75 -23 32 29 -17 73 -42 98 -56 47 -27 60 -31 60 -18 0
4 -25 22 -55 40 -77 46 -69 52 10 8 52 -28 70 -34 85 -26 56 30 147 -4 211
-79 43 -50 143 -116 160 -105 17 10 9 22 -27 44 -19 12 -33 25 -30 28 3 3 23
-6 43 -20 40 -26 80 -28 46 -2 -17 12 -16 13 8 14 14 0 36 8 48 19 l21 19 -27
7 c-16 3 -57 25 -92 47 -35 22 -60 34 -56 28 4 -7 -8 -4 -26 5 -51 25 -229
148 -229 157 0 4 36 -14 80 -42 82 -52 112 -62 39 -13 -23 15 -37 29 -31 31
11 3 111 -58 150 -92 12 -11 22 -15 22 -10 0 16 -13 29 -62 64 -61 43 -62 50
-2 15 l47 -27 -7 33 c-4 22 -1 44 9 62 18 36 13 47 -40 87 -55 41 -52 52 4 15
22 -15 44 -24 49 -21 5 3 17 -1 28 -8 13 -10 24 -11 39 -4 30 13 92 -5 142
-41 41 -30 93 -116 93 -155 0 -12 3 -16 8 -11 4 6 21 21 39 33 l32 22 -25 55
c-14 30 -22 59 -19 65 9 15 25 2 19 -15 -5 -11 12 -43 43 -84 1 -2 9 2 18 9
19 16 19 60 0 86 -22 29 -17 43 5 14 17 -21 19 -21 14 -5 -5 17 -2 16 15 -5
11 -14 21 -28 21 -32 0 -5 4 -8 10 -8 6 0 7 18 4 44 -8 54 10 69 26 22 l11
-34 57 29 c75 37 162 59 237 59 58 0 63 3 169 75 60 40 114 71 119 68 11 -7
-15 -30 -115 -101 -37 -26 -67 -49 -67 -52 -1 -3 16 -12 37 -21 37 -15 39 -15
67 7 28 22 127 74 141 74 5 0 -27 -23 -69 -51 -42 -27 -77 -53 -77 -57 0 -4
10 -13 21 -21 19 -11 24 -10 46 13 13 14 34 26 47 26 13 0 53 17 87 39 74 44
169 93 169 87 0 -3 -27 -21 -60 -42 -33 -20 -60 -38 -60 -40 0 -7 55 18 116
52 35 20 64 34 64 31 0 -6 -43 -33 -218 -136 -67 -40 -124 -77 -127 -81 -3 -5
4 -24 15 -44 l21 -35 85 41 c46 22 87 38 90 35 3 -3 -33 -27 -80 -53 -71 -40
-85 -53 -81 -69 2 -11 5 -57 5 -103 0 -63 3 -83 13 -79 14 4 15 58 3 128 l-8
46 49 18 c121 45 327 128 422 170 57 25 105 44 107 42 2 -2 -70 -39 -161 -82
-91 -43 -163 -80 -161 -82 2 -2 77 28 167 67 159 68 205 84 164 57 -26 -16
-213 -104 -338 -157 -54 -24 -96 -44 -94 -47 5 -4 108 35 282 109 152 65 175
73 175 59 0 -5 -69 -44 -152 -86 -84 -42 -142 -74 -128 -71 15 4 9 -2 -15 -13
-60 -29 -28 -25 65 9 46 17 88 29 93 27 16 -5 -140 -72 -245 -107 -54 -17 -98
-33 -98 -36 0 -12 190 49 304 97 38 16 70 28 72 26 6 -6 -140 -70 -236 -103
-93 -32 -94 -33 -49 -34 64 0 84 -24 83 -99 -2 -54 -12 -89 -36 -122 -9 -13
-6 -23 18 -53 16 -20 31 -31 32 -26 2 6 -2 18 -10 27 -10 13 -10 17 0 21 25 8
41 33 51 82 6 28 11 59 11 68 0 11 8 18 20 19 12 1 35 14 53 29 66 56 138 69
188 34 l28 -21 76 41 c41 23 81 40 87 37 13 -4 -75 -65 -126 -89 -26 -11 -34
-32 -17 -43 6 -3 35 7 65 22 52 25 76 27 62 4 -4 -5 -32 -24 -64 -42 -47 -26
-61 -40 -81 -83 -18 -38 -34 -56 -64 -71 -22 -11 -40 -25 -40 -30 1 -6 -11
-16 -26 -22 -26 -13 -26 -13 -1 -6 14 4 36 6 50 6 13 -1 54 12 90 28 53 24 60
25 40 8 l-25 -20 25 6 c14 4 49 22 77 41 59 38 63 40 63 20 0 -15 -100 -76
-124 -76 -15 0 -67 -39 -52 -40 5 0 41 16 78 36 38 19 86 37 106 40 36 4 36 3
-28 -37 -36 -23 -69 -45 -75 -51 -14 -13 64 20 104 45 19 11 31 16 27 9 -4 -6
-27 -23 -52 -38 -24 -14 -42 -30 -39 -34 3 -5 -5 -16 -17 -25 -23 -17 -23 -17
11 -10 23 5 31 4 27 -4 -5 -8 0 -8 19 -1 37 14 42 12 19 -5 -18 -14 -17 -15
11 -9 36 8 60 20 86 42 18 16 19 36 19 569 l0 553 -1370 0 -1370 0 0 -399z
m2190 64 c0 -8 -137 -95 -175 -111 -58 -24 -39 -6 33 30 37 19 81 46 97 60 29
24 45 32 45 21z m-210 -59 c0 -2 -7 -6 -15 -10 -8 -3 -15 -1 -15 4 0 6 7 10
15 10 8 0 15 -2 15 -4z m-1419 -23 c13 -16 12 -17 -3 -4 -10 7 -18 15 -18 17
0 8 8 3 21 -13z m-30 -30 c10 -12 5 -11 -18 6 -18 12 -33 24 -33 27 0 9 37
-15 51 -33z m-176 7 c3 -6 -1 -7 -9 -4 -18 7 -21 14 -7 14 6 0 13 -4 16 -10z
m1411 -35 c-11 -8 -24 -15 -30 -15 -5 0 -1 7 10 15 10 8 24 14 29 14 6 0 1 -6
-9 -14z m179 -4 c-17 -15 -105 -63 -105 -57 0 3 24 19 53 36 53 30 68 37 52
21z m394 -135 c-2 -2 -46 -23 -98 -45 -97 -43 -136 -49 -59 -10 63 33 173 71
157 55z m101 0 c0 -4 -254 -116 -295 -130 -14 -5 -16 -9 -7 -15 10 -6 9 -14
-3 -37 -8 -16 -15 -40 -16 -54 0 -14 -7 -43 -15 -65 l-14 -40 6 35 c15 101 15
119 6 153 -10 35 -9 37 13 37 12 0 49 12 81 27 66 29 225 92 237 93 4 0 7 -2
7 -4z m-2062 -42 c17 -5 22 -14 22 -40 0 -31 -3 -34 -29 -34 -17 0 -31 -6 -35
-16 -30 -79 60 -173 120 -123 21 17 12 74 -17 105 -16 17 -19 29 -14 53 7 34
21 32 49 -7 11 -15 13 -21 6 -15 -10 9 -17 10 -27 2 -9 -8 -13 -8 -13 0 0 6 5
11 11 11 5 0 7 5 3 11 -5 8 -10 7 -16 -4 -6 -11 -3 -25 8 -42 17 -26 49 -34
57 -12 2 6 9 -5 17 -27 15 -45 8 -112 -14 -134 -14 -15 -18 -14 -45 6 -18 13
-40 20 -53 18 -13 -3 -26 -5 -30 -5 -4 -1 -8 -11 -11 -23 -3 -22 -4 -22 -11
-3 -4 11 -10 26 -12 34 -3 11 -7 11 -19 1 -18 -15 -19 -7 -4 23 12 22 12 22
-9 4 -20 -18 -21 -18 -38 8 -22 34 -30 117 -14 155 19 46 66 68 118 54z m292
-85 c0 -5 -4 -9 -10 -9 -5 0 -10 7 -10 16 0 8 5 12 10 9 6 -3 10 -10 10 -16z
m-261 -19 c28 -14 47 -66 31 -85 -17 -21 -40 -19 -67 7 -22 20 -31 67 -16 81
9 10 31 9 52 -3z m251 -46 c0 -2 -9 0 -20 6 -11 6 -20 13 -20 16 0 2 9 0 20
-6 11 -6 20 -13 20 -16z m-510 -80 c0 -2 -9 0 -20 6 -11 6 -20 13 -20 16 0 2
9 0 20 -6 11 -6 20 -13 20 -16z m171 -51 c13 -16 12 -17 -3 -4 -10 7 -18 15
-18 17 0 8 8 3 21 -13z"/>
<path d="M501 1944 c0 -11 3 -14 6 -6 3 7 2 16 -1 19 -3 4 -6 -2 -5 -13z"/>
<path d="M478 1917 c8 -54 42 -80 42 -32 0 16 -6 25 -15 25 -8 0 -15 6 -15 14
0 8 -4 17 -8 20 -5 3 -6 -9 -4 -27z"/>
<path d="M380 1941 c0 -24 18 -37 32 -23 8 8 7 16 -2 27 -17 21 -30 19 -30 -4z"/>
<path d="M1270 2357 c-90 -31 -154 -70 -228 -141 -76 -72 -122 -145 -156 -246
-26 -78 -43 -190 -32 -209 4 -5 13 -8 21 -4 11 3 15 21 15 57 0 45 23 163 35
174 2 2 47 -2 100 -8 77 -10 95 -16 91 -27 -3 -8 -6 -20 -6 -27 0 -7 -6 -13
-12 -14 -33 -2 -131 -35 -163 -53 -40 -24 -45 -39 -12 -40 l22 0 -22 -11 c-13
-6 -23 -17 -23 -25 0 -16 -4 -16 45 2 22 8 59 14 81 15 23 0 55 7 70 15 16 8
38 15 50 15 31 0 33 7 17 49 -48 123 119 269 214 187 24 -21 28 -31 27 -74 0
-29 -8 -61 -17 -76 -22 -34 -21 -40 6 -32 12 4 65 15 117 26 172 35 170 34
170 85 l0 44 -32 -10 c-18 -5 -44 -8 -58 -8 -15 1 -6 5 23 11 26 6 47 14 47
19 0 12 5 13 -94 -16 -109 -32 -143 -31 -51 1 113 39 156 56 152 60 -2 2 -41
-10 -87 -26 -45 -17 -84 -29 -86 -27 -5 5 170 87 185 87 11 0 14 -40 11 -132
-2 -51 1 -54 31 -38 15 9 19 21 19 63 -1 166 -90 302 -226 343 -70 21 -168 17
-244 -9z m192 -18 c98 -20 166 -75 203 -161 14 -35 14 -37 -4 -35 -14 1 -19 8
-18 27 1 15 -3 24 -10 23 -7 -2 -10 3 -7 11 8 22 -16 30 -34 12 -10 -10 -12
-16 -7 -15 23 4 28 -2 10 -15 -16 -12 -17 -15 -3 -34 8 -12 17 -21 19 -19 2 1
-2 -5 -10 -13 -8 -8 -27 -16 -42 -17 -16 -1 -47 -12 -69 -23 l-41 -21 -19 23
c-21 26 -19 89 3 126 5 6 6 16 3 21 -3 4 8 23 24 41 34 38 36 46 14 54 -35 13
-51 6 -58 -25 -3 -17 -18 -63 -33 -101 -24 -62 -28 -67 -36 -46 -8 21 -10 21
-16 5 -4 -11 -30 -27 -61 -38 -60 -21 -98 -53 -126 -105 -12 -21 -24 -32 -34
-30 -25 8 -134 28 -152 29 -25 2 -22 16 12 70 65 103 173 195 277 236 82 32
133 37 215 20z m-55 -215 c-3 -3 -12 -4 -19 -1 -8 3 -5 6 6 6 11 1 17 -2 13
-5z"/>
<path d="M1535 2204 l-50 -46 53 42 c45 36 59 51 50 50 -2 0 -25 -21 -53 -46z"/>
<path d="M1487 2119 c-7 -28 -6 -31 12 -20 9 6 10 14 4 26 -9 15 -11 15 -16
-6z"/>
<path d="M1445 2114 c-12 -13 -13 -19 -4 -30 14 -17 24 -10 34 24 8 26 -7 29
-30 6z"/>
<path d="M607 2359 c7 -7 15 -10 18 -7 3 3 -2 9 -12 12 -14 6 -15 5 -6 -5z"/>
<path d="M629 2322 c-31 -28 -34 -35 -34 -84 1 -91 70 -170 158 -185 82 -13
132 37 125 123 -8 89 -80 163 -166 172 -44 4 -53 1 -83 -26z m94 -17 c2 -14 2
-23 -1 -21 -10 10 -31 -29 -32 -57 0 -54 74 -99 108 -65 18 18 14 53 -8 73
-20 18 -28 75 -10 75 13 0 60 -50 69 -75 23 -58 24 -68 5 -61 -15 6 -17 5 -6
-5 17 -18 15 -43 -6 -63 -18 -15 -20 -15 -36 3 -9 10 -30 21 -47 23 -24 4 -29
1 -30 -16 -1 -18 -2 -17 -8 4 -5 17 -13 24 -25 22 -12 -2 -15 1 -11 8 5 9 1
10 -15 5 -19 -6 -22 -4 -17 9 4 10 3 15 -2 12 -5 -3 -11 1 -15 9 -3 10 1 15
11 15 9 0 13 3 9 8 -4 4 -13 7 -19 7 -7 0 -14 11 -15 24 -3 19 0 23 15 17 17
-6 17 -5 -1 9 -18 13 -18 16 -2 40 24 36 82 36 89 0z m47 -65 c11 -11 20 -31
20 -45 0 -20 -5 -25 -24 -25 -28 0 -56 33 -56 67 0 29 32 31 60 3z"/>
<path d="M735 2231 c-10 -17 15 -45 29 -31 7 7 5 15 -6 26 -11 11 -18 13 -23
5z"/>
<path d="M2000 2100 c-18 -12 -2 -12 25 0 13 6 15 9 5 9 -8 0 -22 -4 -30 -9z"/>
<path d="M1249 1991 c-45 -46 -35 -101 18 -101 33 0 73 43 73 78 0 57 -45 69
-91 23z"/>
<path d="M1931 1988 c-29 -5 -162 -33 -295 -63 -132 -31 -251 -57 -262 -60
-12 -3 -37 -28 -55 -56 -37 -58 -53 -50 -19 9 20 32 20 35 3 20 -18 -17 -20
-17 -37 0 -18 16 -18 15 -12 -28 3 -25 9 -55 12 -67 3 -13 2 -23 -3 -23 -6 0
-15 25 -22 55 -7 30 -16 55 -21 55 -30 0 -117 -26 -126 -37 -8 -9 -21 -12 -38
-7 -37 9 -117 -13 -172 -47 -31 -20 -45 -25 -41 -15 8 21 -9 20 -113 -4 -92
-23 -144 -52 -186 -107 -49 -65 -68 -168 -38 -211 13 -19 13 -23 1 -28 -17 -6
-22 -24 -77 -258 -28 -124 -36 -174 -29 -188 12 -23 12 -23 79 3 75 30 169 31
206 4 15 -12 34 -32 43 -45 12 -19 8 -18 -15 7 -82 85 -233 58 -343 -62 -58
-63 -84 -125 -84 -205 -1 -79 21 -131 76 -174 34 -27 46 -31 102 -30 81 1 156
36 219 104 25 27 46 46 46 41 0 -4 -9 -42 -21 -86 -11 -43 -16 -81 -12 -86 4
-4 26 -10 48 -14 28 -5 36 -3 26 3 -21 15 45 27 137 26 76 0 94 -9 106 -50 7
-22 -12 -54 -34 -57 -8 -2 -26 -10 -40 -19 -35 -23 -100 -50 -99 -41 0 5 27
21 59 36 33 16 69 42 81 58 19 27 20 32 7 46 -18 17 -138 31 -138 16 0 -5 13
-8 29 -5 34 5 101 -15 101 -29 0 -31 -133 -109 -186 -109 -30 0 -9 33 32 49
85 33 93 62 16 60 -42 -2 -44 -2 -14 -8 48 -9 41 -23 -18 -44 -81 -27 -125 -4
-52 27 33 15 33 16 7 11 -34 -7 -67 -33 -62 -49 2 -6 19 -14 38 -17 l34 -6
-37 -2 c-47 -1 -58 -18 -16 -24 25 -3 21 -4 -16 -5 -42 -2 -47 0 -36 13 11 13
8 13 -20 4 -24 -9 -34 -9 -43 1 -9 10 -9 11 0 6 6 -3 27 3 45 15 18 12 24 18
13 14 -11 -4 -31 -10 -45 -13 -23 -5 -24 -4 -10 13 8 10 42 31 75 47 33 16 49
26 35 22 -120 -31 -188 -110 -128 -148 60 -37 202 -25 304 24 46 22 76 30 117
30 47 0 59 4 86 29 28 26 31 35 31 91 0 38 -4 59 -10 55 -5 -3 -10 -1 -10 4 0
6 -7 11 -15 11 -20 0 -19 24 1 45 12 12 19 13 29 5 16 -13 18 -3 35 152 14
133 14 131 -23 158 -17 12 -26 17 -19 9 6 -7 12 -18 12 -23 0 -6 -8 -1 -18 10
-9 12 -26 26 -37 32 -17 10 -18 11 -2 12 21 0 22 9 3 35 -7 11 -17 35 -21 53
-9 43 -43 52 -99 24 -22 -12 -40 -24 -38 -27 8 -18 0 -25 -17 -15 -13 6 -28 7
-43 1 -20 -8 -27 -23 -43 -90 -10 -45 -20 -79 -22 -77 -3 2 3 40 13 84 l17 81
109 46 c60 26 111 46 112 44 2 -2 11 -30 20 -62 21 -74 73 -131 158 -175 93
-49 104 -58 88 -77 -8 -10 -9 -19 -2 -27 13 -17 0 -48 -33 -78 -15 -14 -38
-36 -51 -48 -13 -13 -29 -22 -35 -20 -7 2 4 17 26 34 73 55 85 73 82 118 -3
37 -8 44 -51 70 -34 22 -50 26 -55 18 -10 -17 -33 -220 -26 -232 3 -5 1 -11
-4 -14 -5 -4 -12 -55 -16 -114 -7 -96 -10 -109 -28 -118 -20 -9 -41 -57 -29
-68 3 -3 122 -6 264 -6 l258 0 0 29 c0 20 -8 35 -22 46 -20 13 -24 29 -33 122
-9 93 -13 108 -29 111 -10 2 -43 28 -74 58 -50 50 -54 57 -48 89 5 25 3 36 -9
42 -11 7 7 20 70 52 49 25 99 59 120 82 19 21 35 35 35 31 0 -17 -89 -91 -146
-121 l-60 -32 1 -51 c1 -41 6 -54 26 -70 13 -10 35 -28 48 -39 14 -12 35 -25
46 -29 24 -9 35 -58 35 -159 0 -52 3 -58 34 -83 24 -19 47 -28 71 -28 20 0 49
-8 63 -19 43 -30 130 -51 212 -51 63 0 82 4 104 21 68 54 -38 139 -204 164
-67 11 -43 -4 42 -24 75 -19 132 -43 143 -61 4 -6 -8 -2 -27 10 -40 24 -52 25
-44 4 6 -14 4 -15 -9 -4 -13 11 -13 15 -3 22 10 7 10 9 -2 5 -8 -2 -29 2 -47
10 -38 15 -91 17 -113 3 -12 -8 -13 -13 -3 -29 9 -15 9 -22 0 -30 -16 -13 -74
14 -88 41 -16 30 -5 45 43 53 23 4 38 9 32 11 -20 8 -87 -12 -98 -28 -8 -14
-4 -24 24 -53 32 -34 33 -35 11 -32 -14 2 -25 11 -27 22 -1 10 -7 22 -13 28
-22 22 -12 48 26 63 60 26 233 -2 322 -52 l44 -25 94 32 c51 17 93 35 93 41 0
6 -14 66 -30 134 l-31 123 35 33 c38 36 52 74 36 98 -8 13 -13 13 -39 -2 -51
-28 -42 2 21 77 55 65 61 69 94 66 82 -7 126 38 123 125 -3 61 3 71 46 76 21
2 30 8 29 20 -1 10 3 16 10 15 6 -1 10 4 8 11 -1 8 2 11 7 8 14 -9 23 25 10
40 -33 40 -114 29 -134 -19 -10 -23 -70 -97 -79 -97 -2 0 -3 11 -2 26 1 19 5
24 19 20 9 -2 17 -1 17 4 0 12 -59 21 -88 13 -76 -18 -116 -88 -94 -166 10
-40 9 -43 -21 -74 -17 -18 -34 -33 -38 -33 -3 0 -10 14 -15 31 -8 29 -21 35
-189 103 -219 89 -254 104 -237 105 7 1 35 -9 62 -20 l50 -21 92 22 c108 26
128 35 128 56 0 8 24 26 53 39 49 24 42 26 -29 9 -16 -4 -25 -3 -21 3 6 10 37
192 37 220 0 37 -9 2 -29 -111 -12 -65 -26 -126 -32 -135 -8 -12 -9 -9 -4 13
3 16 15 79 26 140 11 61 29 149 40 196 10 47 21 93 23 102 5 22 -19 44 -29 28
-4 -7 -28 -114 -54 -238 l-46 -227 -55 -11 c-30 -6 -75 -14 -99 -18 l-44 -7 6
36 c7 40 1 46 -13 13 -10 -23 -10 -23 -7 2 1 14 9 26 20 28 13 3 17 -3 17 -27
0 -39 1 -39 147 -6 16 4 23 15 28 47 4 24 25 128 47 232 l39 188 -26 39 -25
39 22 30 c30 41 38 142 14 169 -22 24 -49 29 -115 19z m75 -26 c45 -30 39
-107 -13 -152 l-34 -30 32 -45 c18 -25 30 -46 28 -48 -2 -2 -25 -8 -51 -14
-47 -10 -48 -9 -71 21 -13 17 -29 41 -36 54 -19 35 -44 13 -56 -50 -10 -51
-12 -54 -53 -67 -24 -7 -45 -11 -47 -9 -6 5 56 291 65 301 10 11 153 44 195
46 17 0 35 -3 41 -7z m-281 -74 c-4 -18 -12 -36 -17 -39 -5 -3 -45 -14 -89
-23 -64 -14 -79 -21 -79 -35 0 -18 3 -18 70 -3 39 8 72 13 75 10 3 -3 2 -19
-1 -36 -5 -25 -13 -32 -38 -37 -125 -25 -136 -28 -136 -47 0 -21 -3 -21 80 -3
93 20 93 20 85 -17 -4 -18 -10 -36 -14 -40 -8 -10 -242 -60 -248 -54 -5 5 25
154 50 250 l13 50 114 27 c151 35 143 35 135 -3z m-283 -60 c-107 -183 -177
-290 -193 -299 -11 -6 -30 -9 -41 -7 -19 3 -27 21 -56 131 -19 70 -32 130 -30
133 3 2 22 5 44 7 l38 2 19 -83 19 -82 49 85 c27 47 55 94 61 105 7 10 28 23
48 28 60 17 64 15 42 -20z m-377 -74 c20 -8 45 -56 45 -87 0 -88 -70 -175
-165 -202 -60 -18 -88 -14 -122 18 -38 35 -27 126 23 193 43 59 160 100 219
78z m-260 -76 c-4 -18 -8 -34 -9 -35 -1 -1 -31 -10 -67 -19 -35 -9 -74 -22
-86 -30 -24 -15 -48 -77 -39 -101 7 -16 31 -15 129 3 38 7 38 7 32 -22 -4 -16
-8 -34 -10 -41 -4 -12 -89 -33 -147 -35 -20 -1 -49 7 -64 16 -25 17 -26 21
-21 79 6 65 38 122 88 160 28 20 137 55 177 56 21 1 23 -2 17 -31z m1211 -45
c-3 -10 -21 -97 -41 -192 -19 -96 -38 -178 -42 -182 -5 -4 -30 -11 -57 -15
l-49 -7 7 34 c3 19 9 52 13 73 l6 39 -34 -7 c-19 -3 -51 -9 -71 -12 -37 -6
-37 -7 -54 -80 l-17 -73 -50 -11 c-28 -6 -52 -8 -55 -5 -5 4 20 136 56 300
l18 79 53 13 c29 8 55 13 56 11 2 -2 -2 -34 -9 -72 l-13 -68 31 6 c17 4 48 9
68 12 36 6 37 8 48 63 17 87 18 89 58 99 61 16 84 15 78 -5z m-219 -65 c-3 -8
-6 -5 -6 6 -1 11 2 17 5 13 3 -3 4 -12 1 -19z m-209 -50 c-5 -23 -10 -43 -11
-44 -1 -1 -51 -13 -112 -26 -89 -19 -110 -27 -113 -42 -4 -17 1 -18 44 -13 27
3 63 9 81 13 26 5 36 2 59 -21 23 -23 26 -32 21 -71 -6 -56 -48 -117 -95 -140
l-37 -17 54 -18 c29 -10 60 -27 68 -36 10 -13 16 -15 19 -5 3 6 10 10 15 6 14
-8 1 -24 -21 -24 -10 0 -20 7 -23 15 -10 24 -140 58 -205 53 -53 -4 -121 -29
-165 -60 -14 -11 -19 -10 -27 2 -5 8 -7 17 -4 19 3 3 8 0 12 -6 12 -20 35 2
39 37 8 73 20 83 121 102 123 22 132 26 132 49 0 17 -5 19 -33 14 -18 -4 -53
-7 -79 -8 -79 -3 -108 46 -74 127 24 58 70 83 207 114 68 16 127 27 130 25 4
-1 3 -22 -3 -45z m199 0 c-3 -7 -5 -2 -5 12 0 14 2 19 5 13 2 -7 2 -19 0 -25z
m-567 -45 c0 -34 -50 -255 -64 -281 -8 -15 -23 -36 -35 -46 -11 -10 -18 -23
-15 -28 3 -5 0 -8 -7 -7 -8 1 -26 -3 -41 -9 -41 -17 -143 -33 -164 -26 -30 11
-64 46 -64 66 0 25 48 237 59 264 7 15 22 23 51 28 24 4 44 5 46 3 2 -2 -7
-57 -21 -123 -13 -65 -20 -123 -16 -127 12 -12 78 2 101 22 12 11 27 55 45
136 14 66 27 121 29 122 2 2 73 20 89 22 4 1 7 -7 7 -16z m-413 -109 c21 -21
25 -32 20 -65 -6 -49 -30 -86 -68 -107 -16 -10 -29 -21 -29 -26 0 -5 27 -47
61 -93 34 -46 58 -87 55 -90 -3 -4 -31 -10 -62 -14 -65 -9 -60 -12 -135 102
-57 88 -76 89 -101 4 -10 -33 -22 -63 -26 -66 -4 -4 -26 -10 -49 -14 l-43 -7
7 34 c17 90 73 312 80 319 10 10 188 47 231 48 23 1 41 -7 59 -25z m1008 -33
c-6 -5 -23 -11 -39 -13 -28 -3 -31 -7 -44 -68 -15 -72 -31 -90 -76 -89 l-31 1
34 8 c40 10 47 19 61 87 12 58 22 69 65 76 17 2 32 5 35 6 2 0 0 -3 -5 -8z
m-58 -168 c-3 -10 -5 -4 -5 12 0 17 2 24 5 18 2 -7 2 -21 0 -30z m-99 -26 c26
-13 125 -55 219 -92 95 -38 171 -70 168 -73 -2 -2 -25 4 -50 14 -37 14 -48 15
-55 5 -5 -9 -10 -10 -14 -2 -4 6 -1 11 6 11 21 1 -39 30 -115 56 -38 13 -74
21 -80 17 -6 -3 -7 -1 -3 5 4 7 3 12 -3 12 -5 0 -16 3 -25 6 -11 4 -16 0 -16
-12 0 -16 -2 -15 -13 5 -14 28 -57 59 -57 42 0 -6 4 -11 10 -11 16 0 40 -56
40 -93 0 -19 -5 -48 -11 -65 -8 -25 -6 -68 10 -194 12 -90 24 -173 27 -185 2
-13 1 -23 -4 -23 -14 0 -61 373 -50 394 12 22 14 102 4 132 -4 12 -16 24 -26
27 -12 3 -20 14 -20 26 0 26 0 26 58 -2z m682 3 c0 -23 -28 -27 -50 -7 -12 10
-12 9 -3 -3 9 -11 8 -20 -3 -34 -8 -11 -14 -27 -14 -36 0 -9 -11 -22 -24 -28
-24 -11 -24 -10 -22 33 3 62 34 93 94 94 16 1 22 -5 22 -19z m49 -63 c-30 -34
-40 -51 -24 -37 l30 25 -24 -27 c-13 -15 -27 -25 -31 -23 -4 2 -34 -26 -67
-63 -92 -102 -113 -129 -106 -136 3 -3 4 -6 0 -6 -19 0 -13 24 15 57 30 36 29
35 -15 -6 -26 -25 -49 -42 -53 -39 -3 4 68 81 157 173 90 92 165 162 167 156
2 -6 -20 -39 -49 -74z m-942 40 c18 -10 6 -12 -75 -13 -67 0 -109 -6 -136 -17
-42 -18 -49 -18 -37 1 21 35 199 56 248 29z m73 -39 c0 -6 -6 -5 -15 2 -8 7
-15 14 -15 16 0 2 7 1 15 -2 8 -4 15 -11 15 -16z m803 -7 c-20 -21 -29 -25
-31 -14 -6 26 7 43 33 43 l26 0 -28 -29z m-1745 -44 c-11 -50 -15 -57 -41 -63
-16 -3 -31 -3 -34 0 -4 3 3 6 14 6 27 0 37 14 53 73 17 64 23 54 8 -16z m527
46 c-31 -82 19 -189 112 -241 10 -6 15 -13 12 -16 -3 -3 -24 6 -46 20 -46 30
-89 91 -104 148 -13 49 -4 106 18 106 10 0 13 -5 8 -17z m318 7 c3 -3 2 -32
-3 -65 -7 -59 -7 -59 -10 -15 -2 42 -2 43 -10 15 -4 -16 -13 -56 -21 -89 -10
-44 -18 -61 -36 -69 -21 -9 -28 -7 -54 24 -27 31 -29 32 -29 11 0 -29 25 -90
48 -116 16 -18 16 -18 -5 -7 -47 24 -95 125 -109 229 l-7 52 44 20 c34 16 60
20 116 18 39 -2 74 -5 76 -8z m208 -12 c30 -55 -34 -185 -116 -236 -37 -23
-36 -21 17 29 44 42 60 66 71 106 19 63 13 97 -13 83 -24 -13 -50 -13 -50 0 0
6 14 13 30 17 17 3 30 9 30 14 0 17 19 9 31 -13z m803 1 c-3 -6 -1 -15 7 -20
10 -6 11 -15 3 -36 -5 -15 -14 -27 -19 -25 -5 2 -12 -5 -16 -15 -6 -16 -8 -15
-19 9 -12 25 -10 31 14 63 25 32 46 49 30 24z m-1379 -8 c-6 -6 -30 -12 -55
-16 l-45 -5 45 14 c58 17 66 18 55 7z m115 -6 c0 -16 -45 -21 -54 -6 -8 12 4
21 31 21 14 0 23 -6 23 -15z m-511 -70 c0 -5 -11 4 -24 20 -14 17 -25 35 -25
40 0 6 11 -3 25 -20 13 -16 24 -34 24 -40z m861 58 c0 -5 -7 -45 -15 -91 -14
-82 -50 -166 -70 -164 -5 0 -21 -9 -35 -21 -20 -18 -19 -16 5 13 15 19 32 34
37 32 5 -1 7 1 4 6 -3 5 6 35 19 68 13 32 27 83 31 112 3 28 10 52 15 52 5 0
9 -3 9 -7z m-582 -10 c-10 -2 -28 -2 -40 0 -13 2 -5 4 17 4 22 1 32 -1 23 -4z
m835 -60 c17 -18 26 -33 21 -33 -13 0 -47 37 -63 67 -14 28 -14 44 1 18 6 -11
24 -35 41 -52z m113 42 c31 -21 50 -71 34 -90 -19 -23 -45 -18 -79 14 -32 30
-39 59 -19 79 16 16 39 15 64 -3z m394 10 c0 -2 -10 -9 -22 -15 -22 -11 -22
-10 -4 4 21 17 26 19 26 11z m-1106 -21 c9 -23 1 -28 -14 -9 -18 22 -30 19
-29 -7 0 -22 1 -22 9 -3 10 23 11 21 15 -20 1 -16 6 -39 11 -50 8 -18 9 -17
14 9 5 27 6 25 16 -18 l10 -46 -29 27 c-34 33 -48 56 -58 100 -6 31 -5 33 21
33 17 0 30 -7 34 -16z m415 -16 c-2 -32 -2 -32 -6 -5 -5 35 -32 33 -50 -3 -7
-14 -13 -19 -13 -12 0 27 21 52 45 52 22 0 25 -4 24 -32z m181 -63 c11 -3 20
-10 20 -15 0 -10 -31 -22 -38 -15 -3 3 1 5 9 5 7 0 -3 14 -24 31 -22 18 -37
39 -37 52 0 18 4 16 25 -15 14 -20 34 -39 45 -43z m-752 53 c19 -19 14 -44
-14 -78 -33 -39 -68 -38 -72 3 -2 20 5 35 27 57 33 33 41 36 59 18z m1076 -21
c16 -12 16 -13 -3 -13 -11 0 -23 6 -25 13 -3 7 -2 13 2 13 5 0 16 -6 26 -13z
m-34 -17 c0 -5 -2 -10 -4 -10 -3 0 -8 5 -11 10 -3 6 -1 10 4 10 6 0 11 -4 11
-10z m-1262 -52 c-14 -73 -21 -84 -34 -44 -8 27 -8 33 2 29 8 -3 16 6 20 24
15 64 24 57 12 -9z m-198 28 c0 -8 -12 -32 -26 -54 -20 -30 -35 -42 -61 -47
-61 -11 -124 -129 -94 -177 9 -15 7 -24 -11 -49 -12 -16 -24 -25 -26 -19 -3 8
-8 7 -18 -1 -18 -15 -26 -8 -28 25 -1 29 -16 36 -17 9 0 -13 -3 -11 -10 6 -28
71 54 229 145 279 76 41 146 55 146 28z m89 -20 c12 -13 24 -30 25 -37 2 -8 6
-21 10 -30 4 -9 5 -38 3 -65 l-3 -49 -2 58 c-1 41 -5 56 -14 51 -7 -4 -8 -3
-4 4 4 7 2 12 -4 12 -7 0 -9 9 -5 23 7 22 7 22 -8 2 -11 -15 -12 -22 -4 -27
13 -9 3 -11 -31 -8 -31 2 -56 -18 -41 -36 6 -7 9 -28 6 -46 l-4 -33 -1 36 c-1
20 -9 42 -17 49 -21 17 -19 47 6 86 25 41 56 44 88 10z m1370 5 c-13 -11 -26
-18 -28 -15 -7 7 21 34 36 34 10 0 8 -6 -8 -19z m24 -25 c-3 -13 0 -27 6 -30
12 -8 4 -33 -17 -58 -14 -16 -13 -20 4 -40 l19 -23 -22 19 c-13 11 -23 15 -23
11 0 -5 10 -20 23 -34 l22 -26 -26 23 c-26 22 -45 30 -34 13 3 -5 0 -13 -6
-17 -8 -4 -9 -3 -5 4 11 18 -5 14 -25 -5 -16 -17 -15 -20 10 -48 l26 -30 -32
29 c-20 18 -36 25 -45 20 -15 -9 -8 0 61 86 l45 55 -55 -50 -54 -50 49 52 c27
29 54 51 60 50 6 -1 10 9 8 23 -2 24 3 50 11 50 2 0 2 -11 0 -24z m39 2 c-7
-7 -12 -8 -12 -2 0 14 12 26 19 19 2 -3 -1 -11 -7 -17z m-194 -25 c47 -38 55
-64 9 -29 -42 33 -104 44 -130 24 -25 -19 -36 -78 -25 -130 5 -24 11 -63 13
-88 l3 -44 -19 34 c-10 19 -16 42 -13 51 2 9 -2 29 -11 45 -8 16 -15 42 -15
57 0 37 24 92 47 106 31 19 101 6 141 -26z m-403 17 c-3 -5 -12 -10 -18 -10
-7 0 -6 4 3 10 19 12 23 12 15 0z m-474 -30 c26 -14 49 -62 49 -102 0 -50 -19
-110 -32 -102 -8 5 -9 1 -5 -10 4 -10 3 -15 -3 -11 -9 5 -14 -7 -11 -27 0 -4
-19 -28 -43 -55 -40 -44 -48 -48 -89 -48 -55 0 -90 28 -105 85 -11 43 -1 114
22 157 16 30 79 94 111 111 25 14 81 15 106 2z m-294 -92 c-2 -13 -4 -3 -4 22
0 25 2 35 4 23 2 -13 2 -33 0 -45z m1235 40 c-7 -7 -34 -20 -60 -29 -26 -9
-47 -21 -47 -27 0 -5 -4 -14 -9 -19 -5 -5 -6 -3 -2 5 4 6 3 12 -2 12 -5 0 -17
-15 -26 -32 -10 -22 -16 -27 -16 -15 0 30 54 75 104 88 25 6 49 15 52 20 3 5
8 9 12 9 3 0 0 -6 -6 -12z m-1424 -10 c31 -31 -4 -118 -56 -136 -38 -13 -72 8
-72 44 0 32 25 80 47 93 24 14 66 14 81 -1z m282 -2 c0 -2 -8 -10 -17 -17 -16
-13 -17 -12 -4 4 13 16 21 21 21 13z m1378 -26 c-2 -8 -20 -26 -40 -39 -33
-21 -44 -37 -62 -94 -5 -16 -8 -17 -36 -2 -31 16 -38 29 -20 40 6 3 10 11 10
16 0 6 -5 7 -12 3 -7 -4 -8 -3 -4 5 4 6 11 9 16 6 5 -3 12 4 15 16 12 37 53
65 96 64 30 0 39 -4 37 -15z m-1444 -29 c-4 -17 -9 -30 -11 -27 -3 2 -2 19 2
36 4 17 9 30 11 27 2 -2 1 -18 -2 -36z m363 7 c-3 -7 -5 -2 -5 12 0 14 2 19 5
13 2 -7 2 -19 0 -25z m228 -18 c4 -6 -7 -10 -25 -10 -18 0 -29 4 -25 10 3 6
15 10 25 10 10 0 22 -4 25 -10z m-702 -6 c22 -4 37 -12 37 -21 0 -38 -74 -138
-93 -126 -6 3 -7 1 -3 -5 4 -7 3 -12 -3 -12 -5 0 -13 5 -16 10 -10 17 -24 2
-18 -20 3 -11 3 -20 0 -20 -3 0 -14 24 -23 54 l-17 55 31 36 c18 19 32 40 32
45 0 11 20 12 73 4z m697 -61 c16 -47 16 -47 -12 -55 -18 -5 -14 -6 17 -8 22
-1 32 -4 23 -7 -10 -2 -18 -9 -18 -14 0 -5 -31 -9 -70 -9 -40 0 -70 4 -70 10
0 6 4 10 10 10 14 0 58 50 71 82 16 38 32 35 49 -9z m-603 5 c-3 -8 -6 -5 -6
6 -1 11 2 17 5 13 3 -3 4 -12 1 -19z m1242 -50 c2 -18 -19 -6 -48 27 -25 29
-32 33 -37 20 -4 -10 4 -28 22 -48 l29 -32 -32 29 c-35 32 -40 45 -21 64 9 9
20 4 49 -21 20 -18 38 -35 38 -39z m-1294 22 c-35 -68 -148 -160 -195 -160 -8
0 4 9 28 20 63 29 109 67 144 121 35 55 46 64 23 19z m1432 -47 c-3 -10 -5 -2
-5 17 0 19 2 27 5 18 2 -10 2 -26 0 -35z m-1617 18 c0 -9 -3 -12 -8 -6 -10 15
-62 13 -62 -2 0 -6 10 -14 23 -16 16 -3 14 -4 -6 -3 -15 0 -32 -6 -37 -14 -13
-21 -13 3 1 32 8 18 19 24 50 24 30 1 39 -2 39 -15z m917 -17 c-3 -3 -12 -4
-19 -1 -8 3 -5 6 6 6 11 1 17 -2 13 -5z m307 -46 c15 -25 -7 -47 -29 -28 -9 7
-15 8 -15 2 0 -13 19 -19 98 -27 34 -4 64 -10 67 -14 4 -7 -94 3 -142 14 -26
6 -47 40 -39 61 8 20 46 14 60 -8z m286 2 c0 -5 -4 -10 -10 -10 -5 0 -10 5
-10 10 0 6 5 10 10 10 6 0 10 -4 10 -10z m-777 -7 c-75 -4 -82 -6 -86 -26 -4
-18 -5 -17 -6 6 l-1 27 88 -2 87 -2 -82 -3z m130 0 c-7 -2 -19 -2 -25 0 -7 3
-2 5 12 5 14 0 19 -2 13 -5z m110 0 c-18 -2 -48 -2 -65 0 -18 2 -4 4 32 4 36
0 50 -2 33 -4z m587 -3 c0 -5 -2 -10 -4 -10 -3 0 -8 5 -11 10 -3 6 -1 10 4 10
6 0 11 -4 11 -10z m-1705 -48 c11 -6 15 -12 8 -12 -7 0 -22 10 -35 23 -13 12
-17 17 -8 11 8 -6 24 -16 35 -22z m1745 35 c0 -2 -10 -12 -22 -23 l-23 -19 19
23 c18 21 26 27 26 19z m-1366 -26 c3 -5 -3 -11 -14 -14 -11 -3 -20 -11 -20
-17 0 -9 5 -9 18 1 15 13 16 12 3 -3 -17 -23 -31 -23 -31 0 0 30 32 53 44 33z
m746 -71 c0 -47 -4 -80 -10 -80 -5 0 -10 6 -11 13 0 10 -2 10 -6 0 -3 -10 -42
-13 -143 -13 -76 0 -141 3 -143 8 -3 4 -2 40 0 80 l6 72 153 0 154 0 0 -80z
m720 19 c0 -14 -7 -19 -27 -18 -24 2 -25 2 -5 6 l22 4 -21 18 c-16 13 -20 23
-15 37 7 18 8 18 27 -5 10 -13 19 -32 19 -42z m-1747 24 c-13 -2 -33 -2 -45 0
-13 2 -3 4 22 4 25 0 35 -2 23 -4z m1560 0 c-13 -2 -35 -2 -50 0 -16 2 -5 4
22 4 28 0 40 -2 28 -4z m115 -30 c-10 -2 -28 -2 -40 0 -13 2 -5 4 17 4 22 1
32 -1 23 -4z m-262 -79 c39 -19 43 -30 14 -39 -23 -7 -55 1 -88 21 -50 32 13
47 74 18z m-38 -44 c6 0 12 -9 12 -21 0 -18 -4 -20 -32 -14 -18 4 -37 11 -42
15 -14 14 5 32 28 26 11 -3 27 -6 34 -6z m-278 -7 c0 -5 -101 -8 -225 -8 -190
0 -227 -2 -235 -15 -9 -13 -10 -13 -10 1 0 9 3 19 7 22 9 10 463 9 463 0z
m410 -8 c25 -13 41 -35 26 -35 -8 0 -76 42 -76 46 0 8 22 3 50 -11z m-1180
-49 c0 -2 -13 -6 -29 -8 -17 -2 -28 -1 -25 4 5 8 54 12 54 4z"/>
<path d="M1870 1883 c-26 -5 -40 -19 -40 -42 0 -19 91 -6 107 16 23 30 1 38
-67 26z"/>
<path d="M928 1660 c-29 -22 -53 -82 -44 -105 9 -24 71 -19 102 8 21 19 27 33
28 68 1 42 0 44 -30 47 -19 2 -40 -5 -56 -18z"/>
<path d="M618 1283 c-16 -2 -28 -8 -28 -13 0 -5 -3 -16 -7 -26 -6 -15 -1 -17
45 -11 60 7 92 22 92 42 0 15 -37 18 -102 8z"/>
<path d="M2232 937 c-25 -27 -30 -46 -6 -27 15 13 38 50 31 50 -2 0 -13 -10
-25 -23z"/>
<path d="M1830 1005 c-11 -13 -10 -21 7 -43 38 -51 96 -36 68 19 -21 39 -54
50 -75 24z"/>
<path d="M964 955 c-13 -13 -24 -33 -24 -45 0 -28 44 -27 64 2 36 50 3 86 -40
43z"/>
<path d="M945 806 c-73 -32 -136 -144 -120 -215 10 -48 63 -85 100 -70 16 6
12 8 -16 8 -33 1 -59 15 -59 34 0 4 5 5 10 2 6 -3 10 -2 10 3 0 13 47 26 81
23 20 -2 34 7 58 36 17 21 31 34 31 30 0 -20 -42 -87 -67 -106 -20 -16 -22
-19 -6 -11 54 26 110 143 98 207 -6 34 -46 73 -74 73 -9 -1 -29 -7 -46 -14z
m28 -127 c-27 -30 -53 -38 -53 -16 0 27 43 59 66 50 9 -3 4 -14 -13 -34z"/>
<path d="M492 738 c-19 -19 -15 -58 7 -58 24 0 44 24 39 47 -4 22 -29 28 -46
11z"/>
<path d="M1725 520 c3 -5 8 -10 11 -10 2 0 4 5 4 10 0 6 -5 10 -11 10 -5 0 -7
-4 -4 -10z"/>
<path d="M1220 435 c0 -19 5 -25 23 -25 20 1 21 2 5 14 -10 7 -18 16 -18 19 0
3 8 8 18 10 13 4 11 5 -5 6 -18 1 -23 -4 -23 -24z"/>
<path d="M1272 438 c2 -15 10 -23 23 -23 13 0 21 8 23 23 3 18 -1 22 -23 22
-22 0 -26 -4 -23 -22z m32 -9 c-3 -5 -10 -7 -15 -3 -5 3 -7 10 -3 15 3 5 10 7
15 3 5 -3 7 -10 3 -15z"/>
<path d="M1330 449 c0 -8 5 -21 10 -29 9 -13 13 -11 30 10 19 24 19 24 13 3
-5 -20 -1 -23 23 -23 20 0 25 3 16 9 -8 4 -14 12 -14 16 0 4 6 12 14 16 8 6 0
9 -24 9 -22 0 -38 -5 -38 -11 0 -8 -5 -8 -15 1 -12 10 -15 10 -15 -1z"/>
<path d="M1440 438 c0 -17 6 -23 24 -24 32 -2 31 40 -1 44 -18 3 -23 -1 -23
-20z"/>
<path d="M1240 368 c0 -25 3 -29 12 -20 9 9 15 9 27 -1 12 -10 14 -9 8 6 -8
22 2 22 18 0 18 -24 45 -9 44 24 0 27 -1 27 -9 6 -11 -27 -30 -30 -30 -5 0 12
-9 18 -35 19 -33 3 -35 1 -35 -29z"/>
<path d="M1369 398 c-1 -2 -3 -16 -5 -31 -3 -26 -1 -28 29 -25 18 2 36 8 40
13 6 6 10 6 14 -2 9 -24 23 -13 23 17 0 30 -14 41 -23 18 -4 -10 -8 -9 -16 2
-9 12 -11 12 -17 -3 -3 -9 -10 -17 -15 -17 -4 0 -6 7 -3 15 4 9 0 15 -10 15
-9 0 -17 -1 -17 -2z"/>
<path d="M2190 461 c0 -5 5 -13 10 -16 6 -3 10 -2 10 4 0 5 -4 13 -10 16 -5 3
-10 2 -10 -4z"/>
<path d="M1842 339 c3 -8 18 -15 34 -17 33 -4 24 11 -15 23 -17 5 -22 4 -19
-6z"/>
<path d="M2266 1977 c-57 -32 -79 -67 -80 -127 -1 -41 4 -54 27 -77 39 -40
108 -40 161 1 50 38 67 78 56 136 -15 84 -85 113 -164 67z m38 -12 c-6 -14
-18 -19 -38 -16 -4 1 -6 -9 -2 -22 6 -26 -24 -67 -50 -67 -25 0 -5 52 34 88
37 34 65 43 56 17z m87 -2 c7 -10 9 -15 5 -11 -14 12 -34 -11 -29 -32 7 -27
22 -25 33 3 7 18 9 15 9 -20 1 -34 -3 -43 -16 -43 -15 0 -16 -2 -3 -10 13 -8
12 -13 -7 -32 -14 -13 -23 -17 -23 -10 0 7 -4 11 -9 7 -18 -10 -22 15 -7 37
19 26 21 75 5 80 -9 3 -9 10 0 26 14 27 24 28 42 5z m-53 -76 c3 -21 -2 -29
-20 -36 -32 -12 -48 -3 -48 25 0 47 63 58 68 11z m-18 -65 c0 -5 -11 -14 -25
-20 -22 -10 -25 -9 -25 8 0 15 7 20 25 20 14 0 25 -4 25 -8z"/>
<path d="M2380 1885 c-10 -12 -10 -15 4 -15 9 0 16 7 16 15 0 8 -2 15 -4 15
-2 0 -9 -7 -16 -15z"/>
<path d="M2291 1886 c-8 -10 -9 -16 -1 -21 13 -8 30 3 30 21 0 18 -14 18 -29
0z"/>
<path d="M738 1983 c7 -3 16 -2 19 1 4 3 -2 6 -13 5 -11 0 -14 -3 -6 -6z"/>
<path d="M725 1953 c-84 -44 -135 -141 -118 -224 4 -23 10 -28 22 -23 9 4 44
13 79 22 61 14 63 15 57 42 -3 16 -2 31 4 35 6 3 11 1 11 -5 0 -6 5 -8 11 -4
8 5 10 -1 7 -20 -7 -35 19 -35 32 0 13 33 13 74 0 74 -5 0 -10 -7 -10 -16 0
-25 -25 -10 -28 17 -2 13 -9 30 -14 36 -7 9 -7 22 2 43 14 34 19 36 46 15 29
-22 43 -17 15 5 -28 24 -75 25 -116 3z m33 -14 c-10 -5 -18 -15 -18 -20 0 -6
5 -7 10 -4 6 3 10 1 10 -4 0 -6 -6 -11 -13 -11 -18 0 -63 -49 -72 -78 -6 -22
-42 -48 -52 -38 -3 3 2 26 11 50 20 52 86 116 119 116 20 -1 20 -2 5 -11z m9
-84 c4 -27 -19 -54 -48 -57 -32 -4 -37 30 -8 60 24 27 53 25 56 -3z"/>
<path d="M720 1845 c-9 -11 -10 -19 -3 -26 7 -7 14 -5 23 6 9 11 10 19 3 26
-7 7 -14 5 -23 -6z"/>
<path d="M565 1927 c1 -12 3 -32 4 -44 1 -16 7 -23 21 -23 26 0 25 12 0 35
-12 10 -18 25 -16 32 3 7 1 15 -3 17 -5 3 -7 -5 -6 -17z"/>
<path d="M2143 1846 c-7 -33 -11 -61 -10 -63 2 -1 10 3 18 10 10 9 13 26 9 62
l-5 50 -12 -59z"/>
<path d="M0 1815 c0 -6 214 -115 218 -111 3 4 -202 116 -212 116 -3 0 -6 -2
-6 -5z"/>
<path d="M0 1777 c0 -15 173 -101 191 -95 5 2 -35 27 -91 56 -69 37 -100 49
-100 39z"/>
<path d="M0 1725 c0 -8 27 -28 60 -45 33 -17 60 -28 60 -25 0 2 -14 12 -31 20
-17 9 -29 19 -26 21 3 3 19 -2 36 -11 17 -8 31 -13 31 -10 0 5 -115 65 -125
65 -3 0 -5 -7 -5 -15z"/>
<path d="M520 1736 c0 -3 9 -10 20 -16 11 -6 20 -8 20 -6 0 3 -9 10 -20 16
-11 6 -20 8 -20 6z"/>
<path d="M2115 1720 c10 -11 22 -17 27 -14 5 3 1 12 -9 20 -27 20 -39 17 -18
-6z"/>
<path d="M466 1722 c-6 -10 91 -58 100 -49 6 6 -69 57 -85 57 -5 0 -12 -4 -15
-8z"/>
<path d="M2600 1720 c-9 -6 -10 -10 -3 -10 6 0 15 5 18 10 8 12 4 12 -15 0z"/>
<path d="M2554 1694 c-18 -14 -18 -15 4 -4 12 6 22 13 22 15 0 8 -5 6 -26 -11z"/>
<path d="M0 1682 c0 -8 101 -54 106 -49 2 2 -21 15 -51 30 -30 15 -55 23 -55
19z"/>
<path d="M470 1685 c0 -7 57 -35 72 -35 7 0 -5 9 -27 20 -42 22 -45 22 -45 15z"/>
<path d="M200 1651 c-40 -39 -46 -72 -25 -127 34 -88 104 -144 182 -144 73 0
112 76 79 154 -52 126 -170 184 -236 117z m90 9 c16 -5 19 -8 8 -9 -22 -1 -12
-31 11 -32 9 0 4 -5 -11 -11 -22 -8 -28 -16 -28 -39 0 -28 -2 -30 -32 -27 -32
3 -33 5 -36 50 -3 39 1 49 20 62 24 17 31 18 68 6z m61 -57 c-12 -20 -14 -14
-5 12 4 9 9 14 11 11 3 -2 0 -13 -6 -23z m-26 -19 c19 -8 48 -61 40 -74 -16
-26 -63 -1 -79 43 -11 32 5 44 39 31z m105 -136 c0 -10 -9 -22 -19 -28 -16 -8
-23 -6 -35 12 -19 27 -20 40 -5 55 15 15 58 -14 59 -39z"/>
<path d="M310 1551 c0 -13 29 -35 37 -28 7 8 -15 37 -28 37 -5 0 -9 -4 -9 -9z"/>
<path d="M2126 1671 c-3 -5 -13 -42 -22 -82 -19 -88 -26 -130 -18 -109 3 8 14
35 24 60 24 63 37 166 16 131z"/>
<path d="M2253 1645 c-17 -7 -50 -32 -73 -55 -109 -109 -112 -284 -6 -334 43
-20 62 -20 117 0 24 9 54 18 67 19 26 4 76 34 69 42 -3 2 -15 0 -26 -7 -26
-14 -27 1 -2 24 28 25 58 103 65 166 6 46 3 61 -17 95 -12 22 -26 39 -30 37
-4 -1 -20 4 -37 13 -36 18 -85 19 -127 0z m106 -6 c40 -14 61 -54 61 -116 0
-66 -10 -79 -48 -65 -23 8 -32 7 -36 -1 -2 -7 -5 5 -5 26 -1 20 -6 46 -13 56
-9 15 -7 25 10 54 l22 35 -24 4 c-34 7 -43 -1 -51 -44 -4 -22 -16 -43 -30 -52
-20 -13 -24 -13 -41 2 -18 17 -18 16 0 -5 17 -20 17 -23 2 -45 -9 -12 -16 -31
-16 -41 0 -20 -46 -67 -66 -67 -18 0 -18 34 1 96 19 63 87 140 140 159 49 17
54 18 94 4z m78 -81 c-3 -8 -6 -5 -6 6 -1 11 2 17 5 13 3 -3 4 -12 1 -19z m7
-62 c-3 -21 -8 -35 -11 -32 -2 2 -1 20 3 40 3 21 8 35 11 32 2 -2 1 -20 -3
-40z m-146 22 c33 -33 -13 -123 -61 -116 -17 2 -23 10 -25 39 -3 30 2 41 28
63 36 29 41 31 58 14z m74 -141 c-2 -5 -9 -4 -15 2 -17 17 -31 13 -17 -4 7 -9
11 -18 8 -20 -2 -3 -15 9 -27 26 -17 23 -20 33 -11 44 9 10 16 8 38 -14 16
-14 26 -30 24 -34z m39 20 c-10 -9 -11 -8 -5 6 3 10 9 15 12 12 3 -3 0 -11 -7
-18z m-181 -27 c1 -18 -39 -77 -47 -72 -8 5 -11 86 -4 110 2 5 50 -32 51 -38z
m160 -13 c0 -2 -15 -16 -32 -33 l-33 -29 29 33 c28 30 36 37 36 29z m-137 -94
c-7 -2 -19 -2 -25 0 -7 3 -2 5 12 5 14 0 19 -2 13 -5z"/>
<path d="M2241 1471 c-8 -14 -7 -22 2 -30 16 -13 37 4 37 31 0 24 -27 23 -39
-1z"/>
<path d="M0 1641 c0 -8 121 -62 138 -61 8 1 -119 69 -130 70 -5 0 -8 -4 -8 -9z"/>
<path d="M0 1594 c0 -14 113 -74 140 -74 28 0 3 23 -60 55 -80 40 -80 40 -80
19z"/>
<path d="M2651 1554 c-39 -26 -70 -48 -68 -50 2 -2 38 10 80 27 58 24 77 36
77 50 0 27 -8 25 -89 -27z"/>
<path d="M0 1547 c0 -7 15 -21 33 -31 31 -16 25 -16 -18 0 -14 5 -17 4 -10 -4
10 -10 132 -62 144 -62 3 1 -10 9 -29 20 -41 23 -24 26 26 5 66 -28 21 7 -55
42 -42 19 -79 37 -83 40 -5 2 -8 -2 -8 -10z"/>
<path d="M2628 1463 c-60 -29 -108 -54 -108 -57 0 -7 42 0 73 13 35 14 38 -9
5 -32 -14 -9 11 -4 57 12 70 25 80 32 83 55 8 65 5 65 -110 9z"/>
<path d="M3 1471 c-1 -14 12 -24 54 -40 73 -28 80 -20 8 9 -31 12 -54 24 -52
27 3 2 28 -5 56 -17 28 -11 55 -20 59 -20 5 1 -116 60 -122 60 -1 0 -2 -8 -3
-19z"/>
<path d="M2 1428 c2 -6 26 -19 54 -28 92 -32 99 -30 25 5 -82 39 -84 40 -79
23z"/>
<path d="M2577 1338 c-86 -45 -155 -83 -153 -85 2 -2 16 2 32 8 16 6 43 15 59
19 17 5 50 16 75 26 37 14 150 30 138 19 -2 -1 -37 -17 -79 -34 l-77 -32 11
-29 c9 -25 7 -34 -17 -69 -16 -23 -34 -41 -40 -42 -6 -1 -20 -2 -31 -3 -18 -1
-20 -7 -17 -56 3 -62 -20 -112 -62 -131 -18 -9 -24 -19 -24 -41 1 -30 18 -52
18 -23 0 9 6 15 13 14 29 -4 45 2 49 19 4 12 14 17 34 17 24 -1 30 -7 32 -30
3 -27 2 -27 -32 -21 -36 7 -87 -11 -102 -36 -4 -6 8 -2 28 10 39 24 48 27 48
12 0 -13 -69 -42 -82 -34 -11 7 -40 -15 -33 -26 10 -16 100 10 122 35 28 32
53 33 53 1 0 -19 -6 -26 -27 -29 l-28 -4 28 -2 c22 -1 27 -6 27 -26 0 -21 -5
-25 -29 -25 -25 0 -30 5 -34 28 -2 15 -5 1 -6 -30 -1 -57 -1 -58 -30 -58 -28
0 -30 2 -34 48 l-3 47 -2 -47 c-2 -46 -3 -48 -32 -48 l-31 0 2 100 c1 56 -1
104 -5 107 -3 4 -6 -41 -6 -100 0 -75 -4 -107 -12 -110 -10 -4 -10 -6 0 -6 7
-1 12 -14 12 -31 0 -27 -3 -30 -29 -30 -28 0 -30 2 -34 48 l-3 47 -2 -47 c-2
-42 -5 -48 -24 -48 -12 0 -18 -3 -15 -6 3 -4 29 -6 56 -6 49 2 50 1 54 -31 l4
-32 1 33 c2 29 5 32 32 32 25 0 30 -4 30 -25 0 -17 -6 -25 -17 -26 -31 -1 18
-18 55 -18 27 -1 32 -5 32 -25 0 -18 -7 -26 -22 -29 l-23 -4 23 -2 c18 -1 22
-7 22 -32 0 -31 -1 -31 -38 -27 l-38 6 4 -34 c4 -32 3 -34 -28 -34 -30 0 -31
2 -28 33 3 29 1 32 -22 29 -32 -5 -39 -12 -12 -12 17 0 22 -6 22 -25 0 -24 -3
-25 -60 -25 -33 0 -60 -4 -60 -10 0 -5 9 -10 20 -10 28 0 91 -33 112 -59 10
-12 25 -21 33 -21 8 0 15 -7 15 -16 0 -8 -4 -13 -9 -9 -5 3 -12 1 -15 -4 -7
-10 27 -21 68 -21 67 0 10 -11 -105 -21 -68 -5 -162 -16 -209 -25 -47 -8 -155
-19 -240 -23 l-155 -8 125 -3 125 -3 -115 -9 c-268 -20 -1223 -9 -1246 15 -2
2 82 3 188 1 l193 -3 -160 10 c-150 9 -213 15 -345 37 -30 5 -100 13 -155 18
-88 7 -94 9 -53 14 58 7 74 20 26 20 -22 0 -38 6 -41 14 -7 17 13 26 54 26 25
0 34 8 31 31 -2 13 65 36 113 39 48 3 -33 21 -97 21 l-68 0 2 67 3 67 -37 -3
c-35 -3 -37 -2 -34 25 3 19 9 27 20 25 9 -2 16 2 16 8 0 5 -9 10 -21 10 -15 0
-20 5 -17 23 2 12 10 25 18 29 12 5 12 7 -2 7 -24 1 -24 47 -1 60 14 8 15 10
3 11 -11 0 -14 10 -13 32 1 18 2 41 2 51 1 12 10 17 34 18 l32 2 -33 6 c-18 3
-33 9 -32 14 0 4 0 16 0 27 0 17 6 19 50 19 28 -1 54 1 57 5 3 3 -19 6 -50 6
-36 0 -57 4 -57 11 0 8 -4 8 -14 -1 -8 -6 -25 -10 -38 -8 -18 2 -23 9 -23 33
-1 27 -4 30 -38 33 -34 3 -37 6 -37 33 0 25 4 29 28 29 20 0 31 -8 42 -32 18
-36 72 -68 114 -68 l30 0 -34 35 c-32 33 -65 50 -41 21 9 -11 6 -12 -14 -9
-23 5 -57 33 -39 33 5 0 2 5 -6 11 -11 8 -6 9 22 7 29 -3 38 0 41 14 3 10 1
18 -4 18 -5 0 -9 -4 -9 -10 0 -5 -13 -10 -30 -10 -28 0 -30 2 -30 41 0 24 4
38 10 34 6 -4 10 10 10 35 0 22 7 52 16 66 31 47 100 67 146 43 13 -7 18 -7
14 -1 -4 6 1 15 10 20 17 9 -38 36 -201 97 -33 13 -83 32 -112 44 l-52 20 1
-699 1 -700 1369 0 1368 0 0 175 c0 149 -2 175 -15 175 -9 0 -15 9 -15 25 0
16 6 25 15 25 8 0 15 5 15 10 0 6 -8 10 -17 8 -12 -2 -19 4 -21 19 -3 18 2 23
17 23 12 0 21 5 21 10 0 6 -9 10 -20 10 -15 0 -20 7 -20 25 0 18 5 25 20 25
11 0 20 5 20 10 0 6 -9 10 -20 10 -28 0 -26 38 3 50 l22 9 -22 0 c-31 1 -34
51 -3 51 11 0 20 5 20 10 0 6 -9 10 -20 10 -15 0 -20 7 -20 25 0 18 5 25 20
25 20 0 20 7 20 345 0 190 -1 345 -2 344 -2 0 -74 -37 -161 -81z m-2427 -168
c0 -27 -3 -30 -30 -30 -27 0 -30 3 -30 30 0 27 3 30 30 30 27 0 30 -3 30 -30z
m0 -70 c0 -27 -3 -30 -30 -30 -27 0 -30 3 -30 30 0 27 3 30 30 30 27 0 30 -3
30 -30z m0 -70 c0 -27 -3 -30 -30 -30 -27 0 -30 3 -30 30 0 27 3 30 30 30 27
0 30 -3 30 -30z m2390 -70 c0 -27 -3 -30 -30 -30 -27 0 -30 3 -30 30 0 27 3
30 30 30 27 0 30 -3 30 -30z m70 0 c0 -27 -3 -30 -30 -30 -27 0 -30 3 -30 30
0 27 3 30 30 30 27 0 30 -3 30 -30z m-2460 -70 c0 -27 -3 -30 -30 -30 -27 0
-30 3 -30 30 0 27 3 30 30 30 27 0 30 -3 30 -30z m2458 3 c-2 -22 -9 -29 -30
-31 -25 -3 -28 0 -28 27 0 28 3 31 31 31 27 0 30 -3 27 -27z m-2530 -98 c-1
-54 -1 -55 -29 -55 -22 0 -29 5 -29 20 0 11 6 20 13 20 8 0 7 3 -3 10 -8 5
-16 21 -17 35 -2 22 2 25 32 25 l33 0 0 -55z m72 25 c0 -27 -3 -30 -30 -30
-27 0 -30 3 -30 30 0 27 3 30 30 30 27 0 30 -3 30 -30z m76 14 c-3 -9 -6 -22
-6 -30 0 -11 -8 -14 -26 -12 -21 2 -28 9 -30 31 -2 25 0 27 33 27 28 0 34 -3
29 -16z m2384 -9 c0 -21 -5 -25 -30 -25 -25 0 -30 4 -30 25 0 21 5 25 30 25
25 0 30 -4 30 -25z m80 0 c0 -22 -4 -25 -35 -25 -27 0 -35 4 -35 18 0 25 9 32
42 32 23 0 28 -4 28 -25z m-80 -60 c0 -21 -5 -25 -30 -25 -25 0 -30 4 -30 25
0 21 5 25 30 25 25 0 30 -4 30 -25z m75 -31 c0 -45 -2 -49 -26 -52 -24 -3 -27
1 -33 44 -7 56 -2 66 32 61 25 -3 27 -7 27 -53z m-2535 -4 c0 -49 -1 -50 -29
-50 -29 0 -30 1 -29 50 0 48 1 50 29 50 28 0 29 -1 29 -50z m72 18 c6 -55 -1
-70 -30 -66 -26 3 -27 8 -23 83 1 9 11 15 25 15 19 0 25 -6 28 -32z m-142 -43
c0 -21 -5 -25 -30 -25 -25 0 -30 4 -30 25 0 21 5 25 30 25 25 0 30 -4 30 -25z
m2460 0 c0 -21 -5 -25 -30 -25 -25 0 -30 4 -30 25 0 21 5 25 30 25 25 0 30 -4
30 -25z m70 0 c0 -21 -5 -25 -30 -25 -25 0 -30 4 -30 25 0 21 5 25 30 25 25 0
30 -4 30 -25z m-2530 -65 c0 -27 -3 -30 -30 -30 -27 0 -30 3 -30 30 0 27 3 30
30 30 27 0 30 -3 30 -30z m70 0 c0 -27 -3 -30 -30 -30 -27 0 -30 3 -30 30 0
27 3 30 30 30 27 0 30 -3 30 -30z m70 0 c0 -25 -4 -30 -25 -30 -14 0 -28 7
-31 15 -10 25 4 45 31 45 21 0 25 -5 25 -30z m2180 -6 c0 -20 -5 -24 -30 -24
-26 0 -30 4 -30 28 0 26 3 28 30 24 24 -3 30 -9 30 -28z m70 6 c0 -27 -3 -30
-30 -30 -27 0 -30 3 -30 30 0 27 3 30 30 30 27 0 30 -3 30 -30z m70 -1 c0 -26
-4 -29 -30 -29 -25 0 -30 4 -30 23 0 29 2 32 34 33 22 2 26 -2 26 -27z m145 0
c0 -19 -6 -25 -27 -27 -25 -3 -28 0 -28 25 0 25 4 29 28 27 22 -1 27 -6 27
-25z m-75 -4 c0 -20 -5 -25 -24 -25 -17 0 -25 7 -28 25 -5 22 -2 25 23 25 24
0 29 -4 29 -25z m-2530 -60 c0 -21 -5 -25 -30 -25 -25 0 -30 4 -30 25 0 21 5
25 30 25 25 0 30 -4 30 -25z m70 0 c0 -21 -5 -25 -30 -25 -25 0 -30 4 -30 25
0 21 5 25 30 25 25 0 30 -4 30 -25z m70 0 c0 -21 -5 -25 -28 -25 -24 0 -28 4
-26 23 1 12 3 23 3 25 1 1 12 2 26 2 20 0 25 -5 25 -25z m2250 0 c0 -21 -5
-25 -30 -25 -25 0 -30 4 -30 25 0 21 5 25 30 25 25 0 30 -4 30 -25z m70 0 c0
-21 -5 -25 -30 -25 -25 0 -30 4 -30 25 0 21 5 25 30 25 25 0 30 -4 30 -25z
m70 0 c0 -21 -5 -25 -29 -25 -25 0 -28 3 -23 25 3 18 11 25 28 25 19 0 24 -5
24 -25z m78 -2 c3 -20 -1 -23 -27 -23 -27 0 -31 4 -31 26 0 22 4 25 28 22 19
-2 28 -9 30 -25z m-2468 -63 c0 -27 -3 -30 -30 -30 -25 0 -30 4 -30 24 0 19 6
26 28 29 15 2 28 5 30 6 1 0 2 -12 2 -29z m-140 -5 c0 -21 -5 -25 -30 -25 -25
0 -30 4 -30 25 0 21 5 25 30 25 25 0 30 -4 30 -25z m70 0 c0 -21 -5 -25 -30
-25 -25 0 -30 4 -30 25 0 21 5 25 30 25 25 0 30 -4 30 -25z m2390 0 c0 -21 -5
-25 -30 -25 -25 0 -30 4 -30 25 0 21 5 25 30 25 25 0 30 -4 30 -25z m70 0 c0
-21 -5 -25 -29 -25 -25 0 -28 3 -23 25 3 18 11 25 28 25 19 0 24 -5 24 -25z
m78 3 c-2 -17 -11 -24 -30 -26 -24 -3 -28 0 -28 22 0 22 4 26 31 26 26 0 30
-3 27 -22z m-2610 -65 c-2 -20 -9 -27 -26 -28 -13 -1 -26 4 -29 12 -9 23 6 43
32 43 23 0 26 -4 23 -27z m72 2 c0 -14 -3 -25 -7 -26 -5 0 -16 -2 -26 -4 -10
-2 -21 3 -24 11 -9 24 5 44 32 44 20 0 25 -5 25 -25z m68 -2 c-3 -30 -44 -44
-54 -18 -10 25 4 45 31 45 23 0 26 -4 23 -27z m72 -3 c0 -27 -3 -30 -30 -30
-27 0 -30 3 -30 30 0 27 3 30 30 30 27 0 30 -3 30 -30z m2248 3 c-3 -32 -44
-46 -54 -19 -10 26 4 46 31 46 23 0 26 -4 23 -27z m70 -1 c-2 -21 -8 -27 -28
-27 -19 0 -24 5 -23 23 1 29 -1 27 29 30 22 2 25 -2 22 -26z m76 10 c-2 -27
-5 -30 -29 -34 -22 -5 -25 -2 -25 21 0 23 4 26 28 25 15 0 27 -6 26 -12z
m-2606 -74 c-3 -25 -34 -36 -50 -20 -17 17 -1 42 27 42 22 0 26 -4 23 -22z
m72 -3 c0 -21 -5 -25 -30 -25 -22 0 -30 5 -30 18 0 25 9 32 37 32 18 0 23 -5
23 -25z m70 0 c0 -21 -5 -25 -30 -25 -25 0 -30 4 -30 25 0 21 5 25 30 25 25 0
30 -4 30 -25z m70 0 c0 -21 -5 -25 -30 -25 -25 0 -30 4 -30 25 0 21 5 25 30
25 25 0 30 -4 30 -25z m2180 0 c0 -21 -5 -25 -30 -25 -25 0 -30 4 -30 25 0 21
5 25 30 25 25 0 30 -4 30 -25z m70 0 c0 -21 -5 -25 -30 -25 -25 0 -30 4 -30
25 0 21 5 25 30 25 25 0 30 -4 30 -25z m70 0 c0 -21 -5 -25 -30 -25 -22 0 -30
5 -30 18 0 25 9 32 37 32 18 0 23 -5 23 -25z m70 0 c0 -20 -5 -25 -25 -25 -20
0 -25 5 -25 25 0 20 5 25 25 25 20 0 25 -5 25 -25z"/>
<path d="M2648 733 c7 -3 16 -2 19 1 4 3 -2 6 -13 5 -11 0 -14 -3 -6 -6z"/>
<path d="M460 1400 c-12 -8 -10 -10 8 -10 13 0 20 4 17 10 -7 12 -6 12 -25 0z"/>
<path d="M254 1206 c-18 -8 -35 -19 -38 -25 -10 -16 3 -13 20 4 18 18 55 20
52 4 -2 -6 -12 -22 -23 -34 -11 -13 -26 -30 -33 -39 -21 -26 -34 -19 -28 17
l6 32 -12 -29 c-20 -54 33 -117 92 -108 45 7 57 14 73 41 28 47 22 95 -14 125
-34 29 -50 31 -95 12z m95 -19 c30 -37 20 -117 -15 -117 -21 0 -28 24 -14 50
9 16 9 25 1 33 -16 16 -14 47 3 47 7 0 19 -6 25 -13z m-40 -40 c15 -19 -10
-53 -33 -44 -16 6 -22 38 -9 50 10 11 30 8 42 -6z"/>
<path d="M270 1130 c0 -5 7 -10 15 -10 8 0 15 5 15 10 0 6 -7 10 -15 10 -8 0
-15 -4 -15 -10z"/>
<path d="M2393 1207 c-13 -5 -23 -14 -23 -19 0 -15 40 -9 47 7 8 22 2 24 -24
12z"/>
<path d="M2005 1098 c-75 -26 -86 -33 -69 -40 15 -7 42 -1 102 22 80 31 111
51 75 49 -10 0 -58 -14 -108 -31z"/>
<path d="M2038 1068 c-32 -11 -58 -24 -58 -29 0 -9 108 27 125 42 14 13 -2 10
-67 -13z"/>
<path d="M2080 1053 c-19 -9 -30 -18 -23 -20 6 -2 29 5 50 16 45 24 24 27 -27
4z"/>
<path d="M268 1003 c18 -4 22 -12 24 -41 l1 -37 4 35 c3 19 10 38 16 42 7 4
-6 7 -28 6 -23 0 -30 -3 -17 -5z"/>
<path d="M898 953 c7 -3 16 -2 19 1 4 3 -2 6 -13 5 -11 0 -14 -3 -6 -6z"/>
<path d="M2260 555 c0 -14 4 -25 9 -25 4 0 6 11 3 25 -2 14 -6 25 -8 25 -2 0
-4 -11 -4 -25z"/>
<path d="M2325 520 c-6 -9 1 -14 18 -11 11 2 8 -13 -9 -37 -19 -28 -11 -42 26
-42 18 0 34 8 44 22 23 32 20 45 -14 63 -34 17 -56 19 -65 5z m74 -44 c-13
-11 -49 -16 -49 -6 0 14 44 31 49 18 1 -5 1 -11 0 -12z"/>
<path d="M1099 494 c-10 -12 -9 -13 6 -8 14 6 16 4 10 -7 -8 -12 -6 -12 8 0
21 16 21 17 3 24 -8 3 -20 -1 -27 -9z"/>
<path d="M2278 463 c6 -2 18 -2 25 0 6 3 1 5 -13 5 -14 0 -19 -2 -12 -5z"/>
<path d="M362 390 c0 -14 2 -19 5 -12 2 6 2 18 0 25 -3 6 -5 1 -5 -13z"/>
<path d="M798 393 c6 -2 18 -2 25 0 6 3 1 5 -13 5 -14 0 -19 -2 -12 -5z"/>
<path d="M915 372 c-20 -14 -16 -33 7 -30 31 5 50 17 43 29 -7 11 -36 12 -50
1z"/>
<path d="M985 334 c-9 -15 -12 -23 -6 -20 11 7 35 46 28 46 -3 0 -12 -12 -22
-26z"/>
<path d="M781 339 c-13 -5 -21 -12 -18 -15 9 -9 57 5 57 16 0 12 -7 12 -39 -1z"/>
<path d="M1072 113 c37 -2 100 -2 140 0 40 1 10 3 -67 3 -77 0 -110 -1 -73 -3z"/>
<path d="M1423 113 c54 -2 139 -2 190 0 51 1 7 3 -98 3 -104 0 -146 -2 -92 -3z"/>
</g>
</svg>
