<svg xmlns="http://www.w3.org/2000/svg" width="64" height="64" viewBox="0 0 64 64">
  <circle cx="32" cy="32" r="28" fill="#F0F0F0" stroke="#CCCCCC" stroke-width="2"/>
  <path d="M32 16C23.1634 16 16 23.1634 16 32C16 40.8366 23.1634 48 32 48C40.8366 48 48 40.8366 48 32C48 23.1634 40.8366 16 32 16ZM32 44C25.3726 44 20 38.6274 20 32C20 25.3726 25.3726 20 32 20C38.6274 20 44 25.3726 44 32C44 38.6274 38.6274 44 32 44Z" fill="#DDDDDD"/>
  <path d="M32 24C30.8954 24 30 24.8954 30 26V38C30 39.1046 30.8954 40 32 40C33.1046 40 34 39.1046 34 38V26C34 24.8954 33.1046 24 32 24Z" fill="#4CAF50"/>
  <path d="M24 32C22.8954 32 22 32.8954 22 34V38C22 39.1046 22.8954 40 24 40C25.1046 40 26 39.1046 26 38V34C26 32.8954 25.1046 32 24 32Z" fill="#4CAF50"/>
  <path d="M40 28C38.8954 28 38 28.8954 38 30V38C38 39.1046 38.8954 40 40 40C41.1046 40 42 39.1046 42 38V30C42 28.8954 41.1046 28 40 28Z" fill="#4CAF50"/>
</svg>
