<?xml version="1.0" encoding="utf-8"?><!-- Uploaded to: SVG Repo, www.svgrepo.com, Generator: SVG Repo Mixer Tools -->
<svg width="800px" height="800px" viewBox="0 0 24 24" xmlns="http://www.w3.org/2000/svg">
<path d="M10.2981 4.06892L9.7663 3.22207V3.22207L10.2981 4.06892ZM11.5551 3.41192L11.3327 2.43697L11.5551 3.41192ZM13.7019 4.06891L14.2337 3.22207V3.22207L13.7019 4.06891ZM12.4449 3.41192L12.6673 2.43697L12.4449 3.41192ZM4.09202 19.7821L4.54601 18.8911L4.09202 19.7821ZM3.21799 18.9081L4.10899 18.4541L3.21799 18.9081ZM20.782 18.9081L19.891 18.4541L20.782 18.9081ZM19.908 19.7821L19.454 18.8911L19.908 19.7821ZM20.9089 9.16112L21.8633 8.86273L20.9089 9.16112ZM19.5019 7.71139L18.97 8.55824L19.5019 7.71139ZM20.5206 8.45876L21.2809 7.80919L20.5206 8.45876ZM3.09111 9.16112L2.13667 8.86273L3.09111 9.16112ZM4.49814 7.71139L5.02997 8.55824L4.49814 7.71139ZM3.4794 8.45876L2.7191 7.80919L3.4794 8.45876ZM10.225 14.8168L10.7797 13.9847L10.225 14.8168ZM13.775 14.8168L13.2203 13.9847L13.775 14.8168ZM21.5547 10.8322C22.0142 10.5258 22.1384 9.90495 21.8321 9.44542C21.5257 8.98589 20.9048 8.86172 20.4453 9.16807L21.5547 10.8322ZM11.5339 15.5414L11.767 14.5689H11.767L11.5339 15.5414ZM12.4661 15.5414L12.233 14.5689H12.233L12.4661 15.5414ZM12 7.00012L12.7071 6.29301C12.3166 5.90249 11.6834 5.90249 11.2929 6.29301L12 7.00012ZM11 12.0001C11 12.5524 11.4477 13.0001 12 13.0001C12.5523 13.0001 13 12.5524 13 12.0001H11ZM9.29289 8.29302C8.90237 8.68354 8.90237 9.3167 9.29289 9.70723C9.68342 10.0978 10.3166 10.0978 10.7071 9.70723L9.29289 8.29302ZM13.2929 9.70723C13.6834 10.0978 14.3166 10.0978 14.7071 9.70723C15.0976 9.3167 15.0976 8.68354 14.7071 8.29302L13.2929 9.70723ZM20 10.4213V16.8001H22V10.4213H20ZM17.8 19.0001H6.2V21.0001H17.8V19.0001ZM4 16.8001V10.4213H2V16.8001H4ZM5.02997 8.55824L10.83 4.91576L9.7663 3.22207L3.9663 6.86454L5.02997 8.55824ZM13.17 4.91576L18.97 8.55824L20.0337 6.86454L14.2337 3.22207L13.17 4.91576ZM10.83 4.91576C11.5096 4.48892 11.6516 4.41561 11.7776 4.38687L11.3327 2.43697C10.7964 2.55933 10.3211 2.87365 9.7663 3.22207L10.83 4.91576ZM14.2337 3.22207C13.6789 2.87365 13.2036 2.55933 12.6673 2.43697L12.2224 4.38687C12.3484 4.41561 12.4904 4.48892 13.17 4.91576L14.2337 3.22207ZM11.7776 4.38687C11.924 4.35347 12.076 4.35347 12.2224 4.38687L12.6673 2.43697C12.2281 2.33677 11.7719 2.33677 11.3327 2.43697L11.7776 4.38687ZM6.2 19.0001C5.62345 19.0001 5.25117 18.9993 4.96784 18.9762C4.69617 18.954 4.59545 18.9163 4.54601 18.8911L3.63803 20.6731C4.01641 20.8659 4.40963 20.9373 4.80497 20.9696C5.18864 21.0009 5.65645 21.0001 6.2 21.0001V19.0001ZM2 16.8001C2 17.3437 1.99922 17.8115 2.03057 18.1951C2.06287 18.5905 2.13419 18.9837 2.32698 19.3621L4.10899 18.4541C4.0838 18.4047 4.04612 18.3039 4.02393 18.0323C4.00078 17.7489 4 17.3767 4 16.8001H2ZM4.54601 18.8911C4.35785 18.7953 4.20487 18.6423 4.10899 18.4541L2.32698 19.3621C2.6146 19.9266 3.07354 20.3855 3.63803 20.6731L4.54601 18.8911ZM20 16.8001C20 17.3767 19.9992 17.7489 19.9761 18.0323C19.9539 18.3039 19.9162 18.4047 19.891 18.4541L21.673 19.3621C21.8658 18.9837 21.9371 18.5905 21.9694 18.1951C22.0008 17.8115 22 17.3437 22 16.8001H20ZM17.8 21.0001C18.3436 21.0001 18.8114 21.0009 19.195 20.9696C19.5904 20.9373 19.9836 20.8659 20.362 20.6731L19.454 18.8911C19.4045 18.9163 19.3038 18.954 19.0322 18.9762C18.7488 18.9993 18.3766 19.0001 17.8 19.0001V21.0001ZM19.891 18.4541C19.7951 18.6423 19.6422 18.7953 19.454 18.8911L20.362 20.6731C20.9265 20.3855 21.3854 19.9266 21.673 19.3621L19.891 18.4541ZM22 10.4213C22 9.83991 22.0108 9.33436 21.8633 8.86273L19.9544 9.45951C19.9892 9.57075 20 9.71104 20 10.4213H22ZM18.97 8.55824C19.5715 8.93598 19.6846 9.01972 19.7603 9.10834L21.2809 7.80919C20.9599 7.43349 20.5261 7.17375 20.0337 6.86454L18.97 8.55824ZM21.8633 8.86273C21.7424 8.4758 21.5442 8.11741 21.2809 7.80919L19.7603 9.10834C19.8481 9.21107 19.9141 9.33054 19.9544 9.45951L21.8633 8.86273ZM4 10.4213C4 9.71104 4.01078 9.57075 4.04556 9.45951L2.13667 8.86273C1.98922 9.33436 2 9.83991 2 10.4213H4ZM3.9663 6.86454C3.47394 7.17375 3.04009 7.43349 2.7191 7.80919L4.2397 9.10834C4.31541 9.01972 4.42848 8.93598 5.02997 8.55824L3.9663 6.86454ZM4.04556 9.45951C4.08588 9.33054 4.15192 9.21108 4.2397 9.10834L2.7191 7.80919C2.45577 8.11741 2.25764 8.4758 2.13667 8.86273L4.04556 9.45951ZM2.4453 10.8322L9.67026 15.6488L10.7797 13.9847L3.5547 9.16807L2.4453 10.8322ZM14.3297 15.6488L21.5547 10.8322L20.4453 9.16807L13.2203 13.9847L14.3297 15.6488ZM9.67026 15.6488C10.2464 16.0329 10.7392 16.3792 11.3009 16.5138L11.767 14.5689C11.6353 14.5373 11.4865 14.456 10.7797 13.9847L9.67026 15.6488ZM13.2203 13.9847C12.5135 14.456 12.3647 14.5373 12.233 14.5689L12.6991 16.5138C13.2608 16.3792 13.7536 16.0329 14.3297 15.6488L13.2203 13.9847ZM11.3009 16.5138C11.7605 16.624 12.2395 16.624 12.6991 16.5138L12.233 14.5689C12.0798 14.6056 11.9202 14.6056 11.767 14.5689L11.3009 16.5138ZM11 7.00012V12.0001H13V7.00012H11ZM10.7071 9.70723L12.7071 7.70723L11.2929 6.29301L9.29289 8.29302L10.7071 9.70723ZM11.2929 7.70723L13.2929 9.70723L14.7071 8.29302L12.7071 6.29301L11.2929 7.70723Z" />
</svg>
