<?xml version="1.0" encoding="utf-8"?>

<!DOCTYPE svg PUBLIC "-//W3C//DTD SVG 1.1//EN" "http://www.w3.org/Graphics/SVG/1.1/DTD/svg11.dtd">
<!-- Uploaded to: SVG Repo, www.svgrepo.com, Generator: SVG Repo Mixer Tools -->
<svg version="1.1" id="_x32_" xmlns="http://www.w3.org/2000/svg" xmlns:xlink="http://www.w3.org/1999/xlink" 
	 width="800px" height="800px" viewBox="0 0 512 512"  xml:space="preserve">
<style type="text/css">

</style>
<g>
	<path d="M428.266,87.271h-91.625l45.156-45.156c7.078-7.078,7.078-18.563,0-25.625c-7.078-7.078-18.547-7.078-25.641,0
		l-70.781,70.781h-58.75L155.844,16.49c-7.094-7.078-18.563-7.078-25.625,0c-7.094,7.063-7.094,18.547,0,25.625l45.156,45.156
		H83.734C37.5,87.271,0,124.756,0,171.006v246.078c0,46.25,37.5,83.734,83.734,83.734h344.531c46.25,0,83.734-37.484,83.734-83.734
		V171.006C512,124.756,474.516,87.271,428.266,87.271z M421.75,368.006c0,27.797-22.547,50.344-50.344,50.344H140.594
		c-27.797,0-50.344-22.547-50.344-50.344V220.068c0-27.797,22.547-50.328,50.344-50.328h230.813
		c27.797,0,50.344,22.531,50.344,50.328V368.006z"/>
</g>
</svg>
