<svg xmlns="http://www.w3.org/2000/svg" width="64" height="64" viewBox="0 0 64 64">
  <circle cx="32" cy="32" r="28" fill="#F0F0F0" stroke="#CCCCCC" stroke-width="2"/>
  <path d="M32 16C23.1634 16 16 23.1634 16 32C16 40.8366 23.1634 48 32 48C40.8366 48 48 40.8366 48 32C48 23.1634 40.8366 16 32 16ZM32 44C25.3726 44 20 38.6274 20 32C20 25.3726 25.3726 20 32 20C38.6274 20 44 25.3726 44 32C44 38.6274 38.6274 44 32 44Z" fill="#DDDDDD"/>
  <path d="M32 20L35.8 27.8L44 29.1L38 35.1L39.6 44L32 39.8L24.4 44L26 35.1L20 29.1L28.2 27.8L32 20Z" fill="#FFD700"/>
</svg>
